M48
; DRILL file {KiCad (5.1.4)-1} date 5/13/2020 7:15:59 PM
; FORMAT={-:-/ absolute / metric / decimal}
; #@! TF.CreationDate,2020-05-13T19:15:59-06:00
; #@! TF.GenerationSoftware,Kicad,Pcbnew,(5.1.4)-1
; #@! TF.FileFunction,Plated,1,2,PTH
FMAT,2
METRIC
T1C0.400
T2C0.500
T3C0.800
T4C0.900
T5C1.000
T6C1.300
T7C3.500
T8C5.000
%
G90
G05
T1
X34.925Y-60.071
X34.925Y-80.194
X53.687Y-60.96
X54.446Y-88.99
T2
X147.235Y-29.894
X148.004Y-28.038
X148.004Y-31.75
X149.86Y-27.269
X149.86Y-32.519
X151.716Y-28.038
X151.716Y-31.75
X152.485Y-29.894
X25.865Y-109.22
X26.634Y-107.364
X26.634Y-111.076
X28.49Y-106.595
X28.49Y-111.845
X30.346Y-107.364
X30.346Y-111.076
X31.115Y-109.22
X98.975Y-109.22
X99.744Y-107.364
X99.744Y-111.076
X101.6Y-106.595
X101.6Y-111.845
X103.456Y-107.364
X103.456Y-111.076
X104.225Y-109.22
X98.975Y-29.845
X99.744Y-27.989
X99.744Y-31.701
X101.6Y-27.22
X101.6Y-32.47
X103.456Y-27.989
X103.456Y-31.701
X104.225Y-29.845
X25.95Y-29.845
X26.719Y-27.989
X26.719Y-31.701
X28.575Y-27.22
X28.575Y-32.47
X30.431Y-27.989
X30.431Y-31.701
X31.2Y-29.845
X147.235Y-109.22
X148.004Y-107.364
X148.004Y-111.076
X149.86Y-106.595
X149.86Y-111.845
X151.716Y-107.364
X151.716Y-111.076
X152.485Y-109.22
T3
X27.305Y-46.99
X34.925Y-46.99
X84.201Y-45.72
X86.201Y-45.72
X88.201Y-45.72
X65.405Y-59.69
X73.025Y-59.69
X52.07Y-59.69
X52.07Y-62.23
X52.07Y-64.77
X52.07Y-67.31
X52.07Y-69.85
X52.07Y-72.39
X52.07Y-74.93
X52.07Y-77.47
X52.07Y-80.01
X59.69Y-59.69
X59.69Y-62.23
X59.69Y-64.77
X59.69Y-67.31
X59.69Y-69.85
X59.69Y-72.39
X59.69Y-74.93
X59.69Y-77.47
X59.69Y-80.01
X44.45Y-86.36
X44.45Y-93.98
X46.99Y-86.36
X46.99Y-93.98
X49.53Y-86.36
X49.53Y-93.98
X52.07Y-86.36
X52.07Y-93.98
X54.61Y-86.36
X54.61Y-93.98
X57.15Y-86.36
X57.15Y-93.98
X59.69Y-86.36
X59.69Y-93.98
X40.005Y-34.925
X47.625Y-34.925
X40.64Y-87.67
X40.64Y-90.17
X65.405Y-74.93
X73.025Y-74.93
X65.405Y-78.74
X73.025Y-78.74
X65.405Y-95.25
X73.025Y-95.25
X65.405Y-71.12
X73.025Y-71.12
X52.07Y-39.37
X52.07Y-41.91
X52.07Y-44.45
X52.07Y-46.99
X52.07Y-49.53
X52.07Y-52.07
X52.07Y-54.61
X59.69Y-39.37
X59.69Y-41.91
X59.69Y-44.45
X59.69Y-46.99
X59.69Y-49.53
X59.69Y-52.07
X59.69Y-54.61
X40.005Y-39.37
X40.005Y-41.91
X40.005Y-44.45
X40.005Y-46.99
X47.625Y-39.37
X47.625Y-41.91
X47.625Y-44.45
X47.625Y-46.99
X34.33Y-97.155
X36.83Y-97.155
X41.91Y-97.79
X41.91Y-105.41
X44.45Y-97.79
X44.45Y-105.41
X46.99Y-97.79
X46.99Y-105.41
X49.53Y-97.79
X49.53Y-105.41
X52.07Y-97.79
X52.07Y-105.41
X54.61Y-97.79
X54.61Y-105.41
X57.15Y-97.79
X57.15Y-105.41
X59.69Y-97.79
X59.69Y-105.41
X84.201Y-52.07
X86.201Y-52.07
X88.201Y-52.07
X65.405Y-99.06
X73.025Y-99.06
X65.405Y-38.945
X65.405Y-41.485
X65.405Y-44.025
X65.405Y-46.565
X65.405Y-49.105
X65.405Y-51.645
X65.405Y-54.185
X73.025Y-38.945
X73.025Y-41.485
X73.025Y-44.025
X73.025Y-46.565
X73.025Y-49.105
X73.025Y-51.645
X73.025Y-54.185
X40.005Y-62.23
X40.005Y-64.77
X40.005Y-67.31
X40.005Y-69.85
X40.005Y-72.39
X40.005Y-74.93
X40.005Y-77.47
X40.005Y-80.01
X47.625Y-62.23
X47.625Y-64.77
X47.625Y-67.31
X47.625Y-69.85
X47.625Y-72.39
X47.625Y-74.93
X47.625Y-77.47
X47.625Y-80.01
X38.1Y-54.61
X40.6Y-54.61
X65.405Y-82.55
X73.025Y-82.55
X45.085Y-54.61
X47.585Y-54.61
X65.405Y-63.5
X73.025Y-63.5
X29.21Y-90.805
X36.83Y-90.805
X34.925Y-39.41
X34.925Y-41.91
X65.405Y-67.31
X73.025Y-67.31
T4
X54.61Y-30.48
X57.15Y-30.48
X67.945Y-88.9
X70.485Y-88.9
X29.21Y-86.995
X36.83Y-86.995
X27.305Y-50.8
X34.925Y-50.8
X67.945Y-105.41
X70.485Y-105.41
T5
X38.1Y-29.21
X40.64Y-29.21
X43.18Y-29.21
X45.72Y-29.21
X28.575Y-97.155
X28.575Y-99.695
X89.281Y-58.039
X89.281Y-66.167
X48.895Y-110.49
X51.435Y-110.49
X53.975Y-110.49
X56.515Y-110.49
X59.055Y-110.49
X61.595Y-110.49
X115.57Y-34.29
X118.11Y-34.29
X120.65Y-34.29
X123.19Y-34.29
X125.73Y-34.29
X128.27Y-34.29
X130.81Y-34.29
X133.35Y-34.29
X28.575Y-60.325
X28.575Y-62.865
X28.575Y-65.405
X28.575Y-67.945
X28.575Y-70.485
X28.575Y-73.025
X28.575Y-75.565
X28.575Y-78.105
X31.115Y-60.325
X31.115Y-62.865
X31.115Y-65.405
X31.115Y-67.945
X31.115Y-70.485
X31.115Y-73.025
X31.115Y-75.565
X31.115Y-78.105
X115.57Y-106.68
X118.11Y-106.68
X120.65Y-106.68
X123.19Y-106.68
X125.73Y-106.68
X128.27Y-106.68
X130.81Y-106.68
X133.35Y-106.68
X67.945Y-29.21
X70.485Y-29.21
X28.575Y-38.1
X28.575Y-40.64
X89.281Y-70.866
X89.281Y-78.994
X35.56Y-110.49
X38.1Y-110.49
X40.64Y-110.49
X43.18Y-110.49
T6
X102.235Y-39.57
X102.235Y-52.07
X107.235Y-39.57
X107.235Y-52.07
X102.235Y-89.1
X102.235Y-101.6
X107.235Y-89.1
X107.235Y-101.6
X116.205Y-72.59
X116.205Y-85.09
X121.205Y-72.59
X121.205Y-85.09
X116.205Y-56.08
X116.205Y-68.58
X121.205Y-56.08
X121.205Y-68.58
X144.145Y-89.1
X144.145Y-101.6
X149.145Y-89.1
X149.145Y-101.6
X102.235Y-72.59
X102.235Y-85.09
X107.235Y-72.59
X107.235Y-85.09
X130.175Y-72.59
X130.175Y-85.09
X135.175Y-72.59
X135.175Y-85.09
X130.175Y-56.08
X130.175Y-68.58
X135.175Y-56.08
X135.175Y-68.58
X144.145Y-72.59
X144.145Y-85.09
X149.145Y-72.59
X149.145Y-85.09
X144.145Y-39.57
X144.145Y-52.07
X149.145Y-39.57
X149.145Y-52.07
X116.205Y-39.57
X116.205Y-52.07
X121.205Y-39.57
X121.205Y-52.07
X80.01Y-86.36
X80.01Y-91.36
X92.51Y-86.36
X92.51Y-91.36
X80.01Y-31.75
X80.01Y-36.75
X92.51Y-31.75
X92.51Y-36.75
X116.205Y-89.1
X116.205Y-101.6
X121.205Y-89.1
X121.205Y-101.6
X80.01Y-102.87
X80.01Y-107.87
X92.51Y-102.87
X92.51Y-107.87
X144.145Y-56.08
X144.145Y-68.58
X149.145Y-56.08
X149.145Y-68.58
X102.235Y-56.08
X102.235Y-68.58
X107.235Y-56.08
X107.235Y-68.58
X130.175Y-89.1
X130.175Y-101.6
X135.175Y-89.1
X135.175Y-101.6
X130.175Y-39.57
X130.175Y-52.07
X135.175Y-39.57
X135.175Y-52.07
T7
X149.86Y-109.22
X149.86Y-29.894
X28.49Y-109.22
X101.6Y-109.22
X101.6Y-29.845
X28.575Y-29.845
T8
X89.281Y-74.93
X89.281Y-62.103
T3
G00X82.785Y-72.39
M15
G01X83.585Y-72.39
M16
G05
G00X82.785Y-74.962
M15
G01X83.585Y-74.962
M16
G05
G00X82.785Y-77.47
M15
G01X83.585Y-77.47
M16
G05
G00X82.785Y-59.563
M15
G01X83.585Y-59.563
M16
G05
G00X82.785Y-62.135
M15
G01X83.585Y-62.135
M16
G05
G00X82.785Y-64.643
M15
G01X83.585Y-64.643
M16
G05
T0
M30
