G04 #@! TF.GenerationSoftware,KiCad,Pcbnew,(5.1.4)-1*
G04 #@! TF.CreationDate,2020-05-13T19:15:52-06:00*
G04 #@! TF.ProjectId,keyboard,6b657962-6f61-4726-942e-6b696361645f,rev?*
G04 #@! TF.SameCoordinates,Original*
G04 #@! TF.FileFunction,Legend,Top*
G04 #@! TF.FilePolarity,Positive*
%FSLAX46Y46*%
G04 Gerber Fmt 4.6, Leading zero omitted, Abs format (unit mm)*
G04 Created by KiCad (PCBNEW (5.1.4)-1) date 2020-05-13 19:15:52*
%MOMM*%
%LPD*%
G04 APERTURE LIST*
%ADD10C,0.120000*%
%ADD11C,0.150000*%
G04 APERTURE END LIST*
D10*
X80925000Y-65659000D02*
X80925000Y-58547000D01*
X80925000Y-58547000D02*
X81235000Y-58547000D01*
X85445000Y-58547000D02*
X85445000Y-65659000D01*
X81235000Y-65659000D02*
X80925000Y-65659000D01*
X85445000Y-65659000D02*
X85135000Y-65659000D01*
X85445000Y-58547000D02*
X85135000Y-58547000D01*
X80225000Y-64635000D02*
X80725000Y-64135000D01*
X80725000Y-64135000D02*
X80225000Y-63635000D01*
X80225000Y-63635000D02*
X80225000Y-64635000D01*
X80225000Y-76462000D02*
X80225000Y-77462000D01*
X80725000Y-76962000D02*
X80225000Y-76462000D01*
X80225000Y-77462000D02*
X80725000Y-76962000D01*
X85445000Y-71374000D02*
X85135000Y-71374000D01*
X85445000Y-78486000D02*
X85135000Y-78486000D01*
X81235000Y-78486000D02*
X80925000Y-78486000D01*
X85445000Y-71374000D02*
X85445000Y-78486000D01*
X80925000Y-71374000D02*
X81235000Y-71374000D01*
X80925000Y-78486000D02*
X80925000Y-71374000D01*
X36290000Y-92175000D02*
X36290000Y-91845000D01*
X29750000Y-92175000D02*
X36290000Y-92175000D01*
X29750000Y-91845000D02*
X29750000Y-92175000D01*
X36290000Y-89435000D02*
X36290000Y-89765000D01*
X29750000Y-89435000D02*
X36290000Y-89435000D01*
X29750000Y-89765000D02*
X29750000Y-89435000D01*
X27845000Y-45620000D02*
X27845000Y-45950000D01*
X34385000Y-45620000D02*
X27845000Y-45620000D01*
X34385000Y-45950000D02*
X34385000Y-45620000D01*
X27845000Y-48360000D02*
X27845000Y-48030000D01*
X34385000Y-48360000D02*
X27845000Y-48360000D01*
X34385000Y-48030000D02*
X34385000Y-48360000D01*
X31080000Y-85525000D02*
X31080000Y-88465000D01*
X31320000Y-85525000D02*
X31320000Y-88465000D01*
X31200000Y-85525000D02*
X31200000Y-88465000D01*
X35740000Y-88465000D02*
X35740000Y-88135000D01*
X30300000Y-88465000D02*
X35740000Y-88465000D01*
X30300000Y-88135000D02*
X30300000Y-88465000D01*
X35740000Y-85525000D02*
X35740000Y-85855000D01*
X30300000Y-85525000D02*
X35740000Y-85525000D01*
X30300000Y-85855000D02*
X30300000Y-85525000D01*
X33055000Y-52270000D02*
X33055000Y-49330000D01*
X32815000Y-52270000D02*
X32815000Y-49330000D01*
X32935000Y-52270000D02*
X32935000Y-49330000D01*
X28395000Y-49330000D02*
X28395000Y-49660000D01*
X33835000Y-49330000D02*
X28395000Y-49330000D01*
X33835000Y-49660000D02*
X33835000Y-49330000D01*
X28395000Y-52270000D02*
X28395000Y-51940000D01*
X33835000Y-52270000D02*
X28395000Y-52270000D01*
X33835000Y-51940000D02*
X33835000Y-52270000D01*
X33555000Y-38040000D02*
X36295000Y-38040000D01*
X33555000Y-43280000D02*
X36295000Y-43280000D01*
X36295000Y-43280000D02*
X36295000Y-38040000D01*
X33555000Y-43280000D02*
X33555000Y-38040000D01*
X39270000Y-86300000D02*
X42010000Y-86300000D01*
X39270000Y-91540000D02*
X42010000Y-91540000D01*
X42010000Y-91540000D02*
X42010000Y-86300000D01*
X39270000Y-91540000D02*
X39270000Y-86300000D01*
X27245000Y-58995000D02*
X28575000Y-58995000D01*
X27245000Y-60325000D02*
X27245000Y-58995000D01*
X29845000Y-58995000D02*
X32445000Y-58995000D01*
X29845000Y-61595000D02*
X29845000Y-58995000D01*
X27245000Y-61595000D02*
X29845000Y-61595000D01*
X32445000Y-58995000D02*
X32445000Y-79435000D01*
X27245000Y-61595000D02*
X27245000Y-79435000D01*
X27245000Y-79435000D02*
X32445000Y-79435000D01*
X114240000Y-108010000D02*
X114240000Y-106680000D01*
X115570000Y-108010000D02*
X114240000Y-108010000D01*
X116840000Y-108010000D02*
X116840000Y-105350000D01*
X116840000Y-105350000D02*
X134680000Y-105350000D01*
X116840000Y-108010000D02*
X134680000Y-108010000D01*
X134680000Y-108010000D02*
X134680000Y-105350000D01*
X114240000Y-35620000D02*
X114240000Y-34290000D01*
X115570000Y-35620000D02*
X114240000Y-35620000D01*
X116840000Y-35620000D02*
X116840000Y-32960000D01*
X116840000Y-32960000D02*
X134680000Y-32960000D01*
X116840000Y-35620000D02*
X134680000Y-35620000D01*
X134680000Y-35620000D02*
X134680000Y-32960000D01*
X47085000Y-36295000D02*
X47085000Y-35965000D01*
X40545000Y-36295000D02*
X47085000Y-36295000D01*
X40545000Y-35965000D02*
X40545000Y-36295000D01*
X47085000Y-33555000D02*
X47085000Y-33885000D01*
X40545000Y-33555000D02*
X47085000Y-33555000D01*
X40545000Y-33885000D02*
X40545000Y-33555000D01*
X72485000Y-96620000D02*
X72485000Y-96290000D01*
X65945000Y-96620000D02*
X72485000Y-96620000D01*
X65945000Y-96290000D02*
X65945000Y-96620000D01*
X72485000Y-93880000D02*
X72485000Y-94210000D01*
X65945000Y-93880000D02*
X72485000Y-93880000D01*
X65945000Y-94210000D02*
X65945000Y-93880000D01*
X72485000Y-100430000D02*
X72485000Y-100100000D01*
X65945000Y-100430000D02*
X72485000Y-100430000D01*
X65945000Y-100100000D02*
X65945000Y-100430000D01*
X72485000Y-97690000D02*
X72485000Y-98020000D01*
X65945000Y-97690000D02*
X72485000Y-97690000D01*
X65945000Y-98020000D02*
X65945000Y-97690000D01*
X47050000Y-27880000D02*
X47050000Y-29210000D01*
X45720000Y-27880000D02*
X47050000Y-27880000D01*
X44450000Y-27880000D02*
X44450000Y-30540000D01*
X44450000Y-30540000D02*
X36770000Y-30540000D01*
X44450000Y-27880000D02*
X36770000Y-27880000D01*
X36770000Y-27880000D02*
X36770000Y-30540000D01*
X53320000Y-28935000D02*
X53320000Y-32025000D01*
X58380000Y-30480000D02*
G75*
G03X58380000Y-30480000I-2500000J0D01*
G01*
X58870000Y-30479538D02*
G75*
G02X53320000Y-32024830I-2990000J-462D01*
G01*
X58870000Y-30480462D02*
G75*
G03X53320000Y-28935170I-2990000J462D01*
G01*
X72205000Y-88900462D02*
G75*
G03X66655000Y-87355170I-2990000J462D01*
G01*
X72205000Y-88899538D02*
G75*
G02X66655000Y-90444830I-2990000J-462D01*
G01*
X71715000Y-88900000D02*
G75*
G03X71715000Y-88900000I-2500000J0D01*
G01*
X66655000Y-87355000D02*
X66655000Y-90445000D01*
X72205000Y-105410462D02*
G75*
G03X66655000Y-103865170I-2990000J462D01*
G01*
X72205000Y-105409538D02*
G75*
G02X66655000Y-106954830I-2990000J-462D01*
G01*
X71715000Y-105410000D02*
G75*
G03X71715000Y-105410000I-2500000J0D01*
G01*
X66655000Y-103865000D02*
X66655000Y-106955000D01*
X65945000Y-81180000D02*
X65945000Y-81510000D01*
X72485000Y-81180000D02*
X65945000Y-81180000D01*
X72485000Y-81510000D02*
X72485000Y-81180000D01*
X65945000Y-83920000D02*
X65945000Y-83590000D01*
X72485000Y-83920000D02*
X65945000Y-83920000D01*
X72485000Y-83590000D02*
X72485000Y-83920000D01*
X65945000Y-58320000D02*
X65945000Y-58650000D01*
X72485000Y-58320000D02*
X65945000Y-58320000D01*
X72485000Y-58650000D02*
X72485000Y-58320000D01*
X65945000Y-61060000D02*
X65945000Y-60730000D01*
X72485000Y-61060000D02*
X65945000Y-61060000D01*
X72485000Y-60730000D02*
X72485000Y-61060000D01*
X72485000Y-80110000D02*
X72485000Y-79780000D01*
X65945000Y-80110000D02*
X72485000Y-80110000D01*
X65945000Y-79780000D02*
X65945000Y-80110000D01*
X72485000Y-77370000D02*
X72485000Y-77700000D01*
X65945000Y-77370000D02*
X72485000Y-77370000D01*
X65945000Y-77700000D02*
X65945000Y-77370000D01*
X62925000Y-109160000D02*
X62925000Y-110490000D01*
X61595000Y-109160000D02*
X62925000Y-109160000D01*
X60325000Y-109160000D02*
X60325000Y-111820000D01*
X60325000Y-111820000D02*
X47565000Y-111820000D01*
X60325000Y-109160000D02*
X47565000Y-109160000D01*
X47565000Y-109160000D02*
X47565000Y-111820000D01*
X43149759Y-52456000D02*
X43149759Y-53086000D01*
X42834759Y-52771000D02*
X43464759Y-52771000D01*
X49576000Y-54208000D02*
X49576000Y-55012000D01*
X49536000Y-53977000D02*
X49536000Y-55243000D01*
X49496000Y-53808000D02*
X49496000Y-55412000D01*
X49456000Y-53670000D02*
X49456000Y-55550000D01*
X49416000Y-53551000D02*
X49416000Y-55669000D01*
X49376000Y-53445000D02*
X49376000Y-55775000D01*
X49336000Y-53348000D02*
X49336000Y-55872000D01*
X49296000Y-53260000D02*
X49296000Y-55960000D01*
X49256000Y-53178000D02*
X49256000Y-56042000D01*
X49216000Y-53101000D02*
X49216000Y-56119000D01*
X49176000Y-53029000D02*
X49176000Y-56191000D01*
X49136000Y-52960000D02*
X49136000Y-56260000D01*
X49096000Y-52896000D02*
X49096000Y-56324000D01*
X49056000Y-52834000D02*
X49056000Y-56386000D01*
X49016000Y-52776000D02*
X49016000Y-56444000D01*
X48976000Y-52720000D02*
X48976000Y-56500000D01*
X48936000Y-52666000D02*
X48936000Y-56554000D01*
X48896000Y-52615000D02*
X48896000Y-56605000D01*
X48856000Y-52566000D02*
X48856000Y-56654000D01*
X48816000Y-52518000D02*
X48816000Y-56702000D01*
X48776000Y-52473000D02*
X48776000Y-56747000D01*
X48736000Y-52428000D02*
X48736000Y-56792000D01*
X48696000Y-52386000D02*
X48696000Y-56834000D01*
X48656000Y-52345000D02*
X48656000Y-56875000D01*
X48616000Y-55650000D02*
X48616000Y-56915000D01*
X48616000Y-52305000D02*
X48616000Y-53570000D01*
X48576000Y-55650000D02*
X48576000Y-56953000D01*
X48576000Y-52267000D02*
X48576000Y-53570000D01*
X48536000Y-55650000D02*
X48536000Y-56990000D01*
X48536000Y-52230000D02*
X48536000Y-53570000D01*
X48496000Y-55650000D02*
X48496000Y-57026000D01*
X48496000Y-52194000D02*
X48496000Y-53570000D01*
X48456000Y-55650000D02*
X48456000Y-57060000D01*
X48456000Y-52160000D02*
X48456000Y-53570000D01*
X48416000Y-55650000D02*
X48416000Y-57094000D01*
X48416000Y-52126000D02*
X48416000Y-53570000D01*
X48376000Y-55650000D02*
X48376000Y-57126000D01*
X48376000Y-52094000D02*
X48376000Y-53570000D01*
X48336000Y-55650000D02*
X48336000Y-57158000D01*
X48336000Y-52062000D02*
X48336000Y-53570000D01*
X48296000Y-55650000D02*
X48296000Y-57188000D01*
X48296000Y-52032000D02*
X48296000Y-53570000D01*
X48256000Y-55650000D02*
X48256000Y-57217000D01*
X48256000Y-52003000D02*
X48256000Y-53570000D01*
X48216000Y-55650000D02*
X48216000Y-57246000D01*
X48216000Y-51974000D02*
X48216000Y-53570000D01*
X48176000Y-55650000D02*
X48176000Y-57274000D01*
X48176000Y-51946000D02*
X48176000Y-53570000D01*
X48136000Y-55650000D02*
X48136000Y-57300000D01*
X48136000Y-51920000D02*
X48136000Y-53570000D01*
X48096000Y-55650000D02*
X48096000Y-57326000D01*
X48096000Y-51894000D02*
X48096000Y-53570000D01*
X48056000Y-55650000D02*
X48056000Y-57352000D01*
X48056000Y-51868000D02*
X48056000Y-53570000D01*
X48016000Y-55650000D02*
X48016000Y-57376000D01*
X48016000Y-51844000D02*
X48016000Y-53570000D01*
X47976000Y-55650000D02*
X47976000Y-57400000D01*
X47976000Y-51820000D02*
X47976000Y-53570000D01*
X47936000Y-55650000D02*
X47936000Y-57422000D01*
X47936000Y-51798000D02*
X47936000Y-53570000D01*
X47896000Y-55650000D02*
X47896000Y-57444000D01*
X47896000Y-51776000D02*
X47896000Y-53570000D01*
X47856000Y-55650000D02*
X47856000Y-57466000D01*
X47856000Y-51754000D02*
X47856000Y-53570000D01*
X47816000Y-55650000D02*
X47816000Y-57486000D01*
X47816000Y-51734000D02*
X47816000Y-53570000D01*
X47776000Y-55650000D02*
X47776000Y-57506000D01*
X47776000Y-51714000D02*
X47776000Y-53570000D01*
X47736000Y-55650000D02*
X47736000Y-57526000D01*
X47736000Y-51694000D02*
X47736000Y-53570000D01*
X47696000Y-55650000D02*
X47696000Y-57544000D01*
X47696000Y-51676000D02*
X47696000Y-53570000D01*
X47656000Y-55650000D02*
X47656000Y-57562000D01*
X47656000Y-51658000D02*
X47656000Y-53570000D01*
X47616000Y-55650000D02*
X47616000Y-57580000D01*
X47616000Y-51640000D02*
X47616000Y-53570000D01*
X47576000Y-55650000D02*
X47576000Y-57596000D01*
X47576000Y-51624000D02*
X47576000Y-53570000D01*
X47536000Y-55650000D02*
X47536000Y-57612000D01*
X47536000Y-51608000D02*
X47536000Y-53570000D01*
X47496000Y-55650000D02*
X47496000Y-57628000D01*
X47496000Y-51592000D02*
X47496000Y-53570000D01*
X47456000Y-55650000D02*
X47456000Y-57643000D01*
X47456000Y-51577000D02*
X47456000Y-53570000D01*
X47416000Y-55650000D02*
X47416000Y-57657000D01*
X47416000Y-51563000D02*
X47416000Y-53570000D01*
X47376000Y-55650000D02*
X47376000Y-57671000D01*
X47376000Y-51549000D02*
X47376000Y-53570000D01*
X47336000Y-55650000D02*
X47336000Y-57684000D01*
X47336000Y-51536000D02*
X47336000Y-53570000D01*
X47296000Y-55650000D02*
X47296000Y-57696000D01*
X47296000Y-51524000D02*
X47296000Y-53570000D01*
X47256000Y-55650000D02*
X47256000Y-57708000D01*
X47256000Y-51512000D02*
X47256000Y-53570000D01*
X47216000Y-55650000D02*
X47216000Y-57720000D01*
X47216000Y-51500000D02*
X47216000Y-53570000D01*
X47176000Y-55650000D02*
X47176000Y-57731000D01*
X47176000Y-51489000D02*
X47176000Y-53570000D01*
X47136000Y-55650000D02*
X47136000Y-57741000D01*
X47136000Y-51479000D02*
X47136000Y-53570000D01*
X47096000Y-55650000D02*
X47096000Y-57751000D01*
X47096000Y-51469000D02*
X47096000Y-53570000D01*
X47056000Y-55650000D02*
X47056000Y-57760000D01*
X47056000Y-51460000D02*
X47056000Y-53570000D01*
X47015000Y-55650000D02*
X47015000Y-57769000D01*
X47015000Y-51451000D02*
X47015000Y-53570000D01*
X46975000Y-55650000D02*
X46975000Y-57777000D01*
X46975000Y-51443000D02*
X46975000Y-53570000D01*
X46935000Y-55650000D02*
X46935000Y-57785000D01*
X46935000Y-51435000D02*
X46935000Y-53570000D01*
X46895000Y-55650000D02*
X46895000Y-57792000D01*
X46895000Y-51428000D02*
X46895000Y-53570000D01*
X46855000Y-55650000D02*
X46855000Y-57799000D01*
X46855000Y-51421000D02*
X46855000Y-53570000D01*
X46815000Y-55650000D02*
X46815000Y-57805000D01*
X46815000Y-51415000D02*
X46815000Y-53570000D01*
X46775000Y-55650000D02*
X46775000Y-57811000D01*
X46775000Y-51409000D02*
X46775000Y-53570000D01*
X46735000Y-55650000D02*
X46735000Y-57816000D01*
X46735000Y-51404000D02*
X46735000Y-53570000D01*
X46695000Y-55650000D02*
X46695000Y-57821000D01*
X46695000Y-51399000D02*
X46695000Y-53570000D01*
X46655000Y-55650000D02*
X46655000Y-57825000D01*
X46655000Y-51395000D02*
X46655000Y-53570000D01*
X46615000Y-55650000D02*
X46615000Y-57828000D01*
X46615000Y-51392000D02*
X46615000Y-53570000D01*
X46575000Y-55650000D02*
X46575000Y-57832000D01*
X46575000Y-51388000D02*
X46575000Y-53570000D01*
X46535000Y-51386000D02*
X46535000Y-57834000D01*
X46495000Y-51383000D02*
X46495000Y-57837000D01*
X46455000Y-51382000D02*
X46455000Y-57838000D01*
X46415000Y-51380000D02*
X46415000Y-57840000D01*
X46375000Y-51380000D02*
X46375000Y-57840000D01*
X46335000Y-51380000D02*
X46335000Y-57840000D01*
X49605000Y-54610000D02*
G75*
G03X49605000Y-54610000I-3270000J0D01*
G01*
X46465000Y-38040000D02*
X44815000Y-38040000D01*
X46465000Y-48320000D02*
X46465000Y-38040000D01*
X41165000Y-48320000D02*
X46465000Y-48320000D01*
X41165000Y-38040000D02*
X41165000Y-48320000D01*
X42815000Y-38040000D02*
X41165000Y-38040000D01*
X44815000Y-38040000D02*
G75*
G02X42815000Y-38040000I-1000000J0D01*
G01*
X140495000Y-89200000D02*
X143215000Y-89200000D01*
X150075000Y-89200000D02*
X152795000Y-89200000D01*
X148215000Y-101500000D02*
X145075000Y-101500000D01*
X152795000Y-101500000D02*
X150075000Y-101500000D01*
X151264050Y-95250000D02*
G75*
G03X151264050Y-95250000I-4579050J0D01*
G01*
X143215000Y-101500000D02*
X140495000Y-101500000D01*
X152795000Y-89200000D02*
X152795000Y-101500000D01*
X145075000Y-89200000D02*
X148215000Y-89200000D01*
X140495000Y-101500000D02*
X140495000Y-89200000D01*
X126525000Y-89200000D02*
X129245000Y-89200000D01*
X136105000Y-89200000D02*
X138825000Y-89200000D01*
X134245000Y-101500000D02*
X131105000Y-101500000D01*
X138825000Y-101500000D02*
X136105000Y-101500000D01*
X137294050Y-95250000D02*
G75*
G03X137294050Y-95250000I-4579050J0D01*
G01*
X129245000Y-101500000D02*
X126525000Y-101500000D01*
X138825000Y-89200000D02*
X138825000Y-101500000D01*
X131105000Y-89200000D02*
X134245000Y-89200000D01*
X126525000Y-101500000D02*
X126525000Y-89200000D01*
X112555000Y-89200000D02*
X115275000Y-89200000D01*
X122135000Y-89200000D02*
X124855000Y-89200000D01*
X120275000Y-101500000D02*
X117135000Y-101500000D01*
X124855000Y-101500000D02*
X122135000Y-101500000D01*
X123324050Y-95250000D02*
G75*
G03X123324050Y-95250000I-4579050J0D01*
G01*
X115275000Y-101500000D02*
X112555000Y-101500000D01*
X124855000Y-89200000D02*
X124855000Y-101500000D01*
X117135000Y-89200000D02*
X120275000Y-89200000D01*
X112555000Y-101500000D02*
X112555000Y-89200000D01*
X98585000Y-89200000D02*
X101305000Y-89200000D01*
X108165000Y-89200000D02*
X110885000Y-89200000D01*
X106305000Y-101500000D02*
X103165000Y-101500000D01*
X110885000Y-101500000D02*
X108165000Y-101500000D01*
X109354050Y-95250000D02*
G75*
G03X109354050Y-95250000I-4579050J0D01*
G01*
X101305000Y-101500000D02*
X98585000Y-101500000D01*
X110885000Y-89200000D02*
X110885000Y-101500000D01*
X103165000Y-89200000D02*
X106305000Y-89200000D01*
X98585000Y-101500000D02*
X98585000Y-89200000D01*
X140495000Y-72690000D02*
X143215000Y-72690000D01*
X150075000Y-72690000D02*
X152795000Y-72690000D01*
X148215000Y-84990000D02*
X145075000Y-84990000D01*
X152795000Y-84990000D02*
X150075000Y-84990000D01*
X151264050Y-78740000D02*
G75*
G03X151264050Y-78740000I-4579050J0D01*
G01*
X143215000Y-84990000D02*
X140495000Y-84990000D01*
X152795000Y-72690000D02*
X152795000Y-84990000D01*
X145075000Y-72690000D02*
X148215000Y-72690000D01*
X140495000Y-84990000D02*
X140495000Y-72690000D01*
X126525000Y-72690000D02*
X129245000Y-72690000D01*
X136105000Y-72690000D02*
X138825000Y-72690000D01*
X134245000Y-84990000D02*
X131105000Y-84990000D01*
X138825000Y-84990000D02*
X136105000Y-84990000D01*
X137294050Y-78740000D02*
G75*
G03X137294050Y-78740000I-4579050J0D01*
G01*
X129245000Y-84990000D02*
X126525000Y-84990000D01*
X138825000Y-72690000D02*
X138825000Y-84990000D01*
X131105000Y-72690000D02*
X134245000Y-72690000D01*
X126525000Y-84990000D02*
X126525000Y-72690000D01*
X112555000Y-72690000D02*
X115275000Y-72690000D01*
X122135000Y-72690000D02*
X124855000Y-72690000D01*
X120275000Y-84990000D02*
X117135000Y-84990000D01*
X124855000Y-84990000D02*
X122135000Y-84990000D01*
X123324050Y-78740000D02*
G75*
G03X123324050Y-78740000I-4579050J0D01*
G01*
X115275000Y-84990000D02*
X112555000Y-84990000D01*
X124855000Y-72690000D02*
X124855000Y-84990000D01*
X117135000Y-72690000D02*
X120275000Y-72690000D01*
X112555000Y-84990000D02*
X112555000Y-72690000D01*
X98585000Y-72690000D02*
X101305000Y-72690000D01*
X108165000Y-72690000D02*
X110885000Y-72690000D01*
X106305000Y-84990000D02*
X103165000Y-84990000D01*
X110885000Y-84990000D02*
X108165000Y-84990000D01*
X109354050Y-78740000D02*
G75*
G03X109354050Y-78740000I-4579050J0D01*
G01*
X101305000Y-84990000D02*
X98585000Y-84990000D01*
X110885000Y-72690000D02*
X110885000Y-84990000D01*
X103165000Y-72690000D02*
X106305000Y-72690000D01*
X98585000Y-84990000D02*
X98585000Y-72690000D01*
X140495000Y-56180000D02*
X143215000Y-56180000D01*
X150075000Y-56180000D02*
X152795000Y-56180000D01*
X148215000Y-68480000D02*
X145075000Y-68480000D01*
X152795000Y-68480000D02*
X150075000Y-68480000D01*
X151264050Y-62230000D02*
G75*
G03X151264050Y-62230000I-4579050J0D01*
G01*
X143215000Y-68480000D02*
X140495000Y-68480000D01*
X152795000Y-56180000D02*
X152795000Y-68480000D01*
X145075000Y-56180000D02*
X148215000Y-56180000D01*
X140495000Y-68480000D02*
X140495000Y-56180000D01*
X126525000Y-56180000D02*
X129245000Y-56180000D01*
X136105000Y-56180000D02*
X138825000Y-56180000D01*
X134245000Y-68480000D02*
X131105000Y-68480000D01*
X138825000Y-68480000D02*
X136105000Y-68480000D01*
X137294050Y-62230000D02*
G75*
G03X137294050Y-62230000I-4579050J0D01*
G01*
X129245000Y-68480000D02*
X126525000Y-68480000D01*
X138825000Y-56180000D02*
X138825000Y-68480000D01*
X131105000Y-56180000D02*
X134245000Y-56180000D01*
X126525000Y-68480000D02*
X126525000Y-56180000D01*
X112555000Y-56180000D02*
X115275000Y-56180000D01*
X122135000Y-56180000D02*
X124855000Y-56180000D01*
X120275000Y-68480000D02*
X117135000Y-68480000D01*
X124855000Y-68480000D02*
X122135000Y-68480000D01*
X123324050Y-62230000D02*
G75*
G03X123324050Y-62230000I-4579050J0D01*
G01*
X115275000Y-68480000D02*
X112555000Y-68480000D01*
X124855000Y-56180000D02*
X124855000Y-68480000D01*
X117135000Y-56180000D02*
X120275000Y-56180000D01*
X112555000Y-68480000D02*
X112555000Y-56180000D01*
X98585000Y-56180000D02*
X101305000Y-56180000D01*
X108165000Y-56180000D02*
X110885000Y-56180000D01*
X106305000Y-68480000D02*
X103165000Y-68480000D01*
X110885000Y-68480000D02*
X108165000Y-68480000D01*
X109354050Y-62230000D02*
G75*
G03X109354050Y-62230000I-4579050J0D01*
G01*
X101305000Y-68480000D02*
X98585000Y-68480000D01*
X110885000Y-56180000D02*
X110885000Y-68480000D01*
X103165000Y-56180000D02*
X106305000Y-56180000D01*
X98585000Y-68480000D02*
X98585000Y-56180000D01*
X140495000Y-39670000D02*
X143215000Y-39670000D01*
X150075000Y-39670000D02*
X152795000Y-39670000D01*
X148215000Y-51970000D02*
X145075000Y-51970000D01*
X152795000Y-51970000D02*
X150075000Y-51970000D01*
X151264050Y-45720000D02*
G75*
G03X151264050Y-45720000I-4579050J0D01*
G01*
X143215000Y-51970000D02*
X140495000Y-51970000D01*
X152795000Y-39670000D02*
X152795000Y-51970000D01*
X145075000Y-39670000D02*
X148215000Y-39670000D01*
X140495000Y-51970000D02*
X140495000Y-39670000D01*
X126525000Y-39670000D02*
X129245000Y-39670000D01*
X136105000Y-39670000D02*
X138825000Y-39670000D01*
X134245000Y-51970000D02*
X131105000Y-51970000D01*
X138825000Y-51970000D02*
X136105000Y-51970000D01*
X137294050Y-45720000D02*
G75*
G03X137294050Y-45720000I-4579050J0D01*
G01*
X129245000Y-51970000D02*
X126525000Y-51970000D01*
X138825000Y-39670000D02*
X138825000Y-51970000D01*
X131105000Y-39670000D02*
X134245000Y-39670000D01*
X126525000Y-51970000D02*
X126525000Y-39670000D01*
X112555000Y-39670000D02*
X115275000Y-39670000D01*
X122135000Y-39670000D02*
X124855000Y-39670000D01*
X120275000Y-51970000D02*
X117135000Y-51970000D01*
X124855000Y-51970000D02*
X122135000Y-51970000D01*
X123324050Y-45720000D02*
G75*
G03X123324050Y-45720000I-4579050J0D01*
G01*
X115275000Y-51970000D02*
X112555000Y-51970000D01*
X124855000Y-39670000D02*
X124855000Y-51970000D01*
X117135000Y-39670000D02*
X120275000Y-39670000D01*
X112555000Y-51970000D02*
X112555000Y-39670000D01*
X98585000Y-39670000D02*
X101305000Y-39670000D01*
X108165000Y-39670000D02*
X110885000Y-39670000D01*
X106305000Y-51970000D02*
X103165000Y-51970000D01*
X110885000Y-51970000D02*
X108165000Y-51970000D01*
X109354050Y-45720000D02*
G75*
G03X109354050Y-45720000I-4579050J0D01*
G01*
X101305000Y-51970000D02*
X98585000Y-51970000D01*
X110885000Y-39670000D02*
X110885000Y-51970000D01*
X103165000Y-39670000D02*
X106305000Y-39670000D01*
X98585000Y-51970000D02*
X98585000Y-39670000D01*
X40580000Y-98950000D02*
X40580000Y-100600000D01*
X61020000Y-98950000D02*
X40580000Y-98950000D01*
X61020000Y-104250000D02*
X61020000Y-98950000D01*
X40580000Y-104250000D02*
X61020000Y-104250000D01*
X40580000Y-102600000D02*
X40580000Y-104250000D01*
X40580000Y-100600000D02*
G75*
G02X40580000Y-102600000I0J-1000000D01*
G01*
X46465000Y-60900000D02*
X44815000Y-60900000D01*
X46465000Y-81340000D02*
X46465000Y-60900000D01*
X41165000Y-81340000D02*
X46465000Y-81340000D01*
X41165000Y-60900000D02*
X41165000Y-81340000D01*
X42815000Y-60900000D02*
X41165000Y-60900000D01*
X44815000Y-60900000D02*
G75*
G02X42815000Y-60900000I-1000000J0D01*
G01*
X53230000Y-81340000D02*
X54880000Y-81340000D01*
X53230000Y-58360000D02*
X53230000Y-81340000D01*
X58530000Y-58360000D02*
X53230000Y-58360000D01*
X58530000Y-81340000D02*
X58530000Y-58360000D01*
X56880000Y-81340000D02*
X58530000Y-81340000D01*
X54880000Y-81340000D02*
G75*
G02X56880000Y-81340000I1000000J0D01*
G01*
X43120000Y-87520000D02*
X43120000Y-89170000D01*
X61020000Y-87520000D02*
X43120000Y-87520000D01*
X61020000Y-92820000D02*
X61020000Y-87520000D01*
X43120000Y-92820000D02*
X61020000Y-92820000D01*
X43120000Y-91170000D02*
X43120000Y-92820000D01*
X43120000Y-89170000D02*
G75*
G02X43120000Y-91170000I0J-1000000D01*
G01*
X58530000Y-38040000D02*
X56880000Y-38040000D01*
X58530000Y-55940000D02*
X58530000Y-38040000D01*
X53230000Y-55940000D02*
X58530000Y-55940000D01*
X53230000Y-38040000D02*
X53230000Y-55940000D01*
X54880000Y-38040000D02*
X53230000Y-38040000D01*
X56880000Y-38040000D02*
G75*
G02X54880000Y-38040000I-1000000J0D01*
G01*
X71865000Y-37615000D02*
X70215000Y-37615000D01*
X71865000Y-55515000D02*
X71865000Y-37615000D01*
X66565000Y-55515000D02*
X71865000Y-55515000D01*
X66565000Y-37615000D02*
X66565000Y-55515000D01*
X68215000Y-37615000D02*
X66565000Y-37615000D01*
X70215000Y-37615000D02*
G75*
G02X68215000Y-37615000I-1000000J0D01*
G01*
X92410000Y-99220000D02*
X92410000Y-101940000D01*
X92410000Y-108800000D02*
X92410000Y-111520000D01*
X80110000Y-106940000D02*
X80110000Y-103800000D01*
X80110000Y-111520000D02*
X80110000Y-108800000D01*
X90939050Y-105410000D02*
G75*
G03X90939050Y-105410000I-4579050J0D01*
G01*
X80110000Y-101940000D02*
X80110000Y-99220000D01*
X92410000Y-111520000D02*
X80110000Y-111520000D01*
X92410000Y-103800000D02*
X92410000Y-106940000D01*
X80110000Y-99220000D02*
X92410000Y-99220000D01*
X92410000Y-82710000D02*
X92410000Y-85430000D01*
X92410000Y-92290000D02*
X92410000Y-95010000D01*
X80110000Y-90430000D02*
X80110000Y-87290000D01*
X80110000Y-95010000D02*
X80110000Y-92290000D01*
X90939050Y-88900000D02*
G75*
G03X90939050Y-88900000I-4579050J0D01*
G01*
X80110000Y-85430000D02*
X80110000Y-82710000D01*
X92410000Y-95010000D02*
X80110000Y-95010000D01*
X92410000Y-87290000D02*
X92410000Y-90430000D01*
X80110000Y-82710000D02*
X92410000Y-82710000D01*
X83061000Y-49810000D02*
X89341000Y-49810000D01*
X89341000Y-49810000D02*
X89341000Y-50120000D01*
X89341000Y-54330000D02*
X83061000Y-54330000D01*
X83061000Y-50120000D02*
X83061000Y-49810000D01*
X83061000Y-54330000D02*
X83061000Y-54020000D01*
X89341000Y-54330000D02*
X89341000Y-54020000D01*
X83701000Y-49110000D02*
X84201000Y-49610000D01*
X84201000Y-49610000D02*
X84701000Y-49110000D01*
X84701000Y-49110000D02*
X83701000Y-49110000D01*
X83061000Y-43460000D02*
X89341000Y-43460000D01*
X89341000Y-43460000D02*
X89341000Y-43770000D01*
X89341000Y-47980000D02*
X83061000Y-47980000D01*
X83061000Y-43770000D02*
X83061000Y-43460000D01*
X83061000Y-47980000D02*
X83061000Y-47670000D01*
X89341000Y-47980000D02*
X89341000Y-47670000D01*
X83701000Y-42760000D02*
X84201000Y-43260000D01*
X84201000Y-43260000D02*
X84701000Y-42760000D01*
X84701000Y-42760000D02*
X83701000Y-42760000D01*
X92410000Y-28100000D02*
X92410000Y-30820000D01*
X92410000Y-37680000D02*
X92410000Y-40400000D01*
X80110000Y-35820000D02*
X80110000Y-32680000D01*
X80110000Y-40400000D02*
X80110000Y-37680000D01*
X90939050Y-34290000D02*
G75*
G03X90939050Y-34290000I-4579050J0D01*
G01*
X80110000Y-30820000D02*
X80110000Y-28100000D01*
X92410000Y-40400000D02*
X80110000Y-40400000D01*
X92410000Y-32680000D02*
X92410000Y-35820000D01*
X80110000Y-28100000D02*
X92410000Y-28100000D01*
X72485000Y-68680000D02*
X72485000Y-68350000D01*
X65945000Y-68680000D02*
X72485000Y-68680000D01*
X65945000Y-68350000D02*
X65945000Y-68680000D01*
X72485000Y-65940000D02*
X72485000Y-66270000D01*
X65945000Y-65940000D02*
X72485000Y-65940000D01*
X65945000Y-66270000D02*
X65945000Y-65940000D01*
X72485000Y-76300000D02*
X72485000Y-75970000D01*
X65945000Y-76300000D02*
X72485000Y-76300000D01*
X65945000Y-75970000D02*
X65945000Y-76300000D01*
X72485000Y-73560000D02*
X72485000Y-73890000D01*
X65945000Y-73560000D02*
X72485000Y-73560000D01*
X65945000Y-73890000D02*
X65945000Y-73560000D01*
X72485000Y-64870000D02*
X72485000Y-64540000D01*
X65945000Y-64870000D02*
X72485000Y-64870000D01*
X65945000Y-64540000D02*
X65945000Y-64870000D01*
X72485000Y-62130000D02*
X72485000Y-62460000D01*
X65945000Y-62130000D02*
X72485000Y-62130000D01*
X65945000Y-62460000D02*
X65945000Y-62130000D01*
X72485000Y-72490000D02*
X72485000Y-72160000D01*
X65945000Y-72490000D02*
X72485000Y-72490000D01*
X65945000Y-72160000D02*
X65945000Y-72490000D01*
X72485000Y-69750000D02*
X72485000Y-70080000D01*
X65945000Y-69750000D02*
X72485000Y-69750000D01*
X65945000Y-70080000D02*
X65945000Y-69750000D01*
X66615000Y-30540000D02*
X66615000Y-29210000D01*
X67945000Y-30540000D02*
X66615000Y-30540000D01*
X69215000Y-30540000D02*
X69215000Y-27880000D01*
X69215000Y-27880000D02*
X71815000Y-27880000D01*
X69215000Y-30540000D02*
X71815000Y-30540000D01*
X71815000Y-30540000D02*
X71815000Y-27880000D01*
X27245000Y-36770000D02*
X28575000Y-36770000D01*
X27245000Y-38100000D02*
X27245000Y-36770000D01*
X27245000Y-39370000D02*
X29905000Y-39370000D01*
X29905000Y-39370000D02*
X29905000Y-41970000D01*
X27245000Y-39370000D02*
X27245000Y-41970000D01*
X27245000Y-41970000D02*
X29905000Y-41970000D01*
X27245000Y-95825000D02*
X28575000Y-95825000D01*
X27245000Y-97155000D02*
X27245000Y-95825000D01*
X27245000Y-98425000D02*
X29905000Y-98425000D01*
X29905000Y-98425000D02*
X29905000Y-101025000D01*
X27245000Y-98425000D02*
X27245000Y-101025000D01*
X27245000Y-101025000D02*
X29905000Y-101025000D01*
X34230000Y-111820000D02*
X34230000Y-110490000D01*
X35560000Y-111820000D02*
X34230000Y-111820000D01*
X36830000Y-111820000D02*
X36830000Y-109160000D01*
X36830000Y-109160000D02*
X44510000Y-109160000D01*
X36830000Y-111820000D02*
X44510000Y-111820000D01*
X44510000Y-111820000D02*
X44510000Y-109160000D01*
X38134775Y-98880000D02*
X38134775Y-98380000D01*
X38384775Y-98630000D02*
X37884775Y-98630000D01*
X32979000Y-97439000D02*
X32979000Y-96871000D01*
X33019000Y-97673000D02*
X33019000Y-96637000D01*
X33059000Y-97832000D02*
X33059000Y-96478000D01*
X33099000Y-97960000D02*
X33099000Y-96350000D01*
X33139000Y-98070000D02*
X33139000Y-96240000D01*
X33179000Y-98166000D02*
X33179000Y-96144000D01*
X33219000Y-98253000D02*
X33219000Y-96057000D01*
X33259000Y-98333000D02*
X33259000Y-95977000D01*
X33299000Y-96115000D02*
X33299000Y-95904000D01*
X33299000Y-98406000D02*
X33299000Y-98195000D01*
X33339000Y-96115000D02*
X33339000Y-95836000D01*
X33339000Y-98474000D02*
X33339000Y-98195000D01*
X33379000Y-96115000D02*
X33379000Y-95772000D01*
X33379000Y-98538000D02*
X33379000Y-98195000D01*
X33419000Y-96115000D02*
X33419000Y-95712000D01*
X33419000Y-98598000D02*
X33419000Y-98195000D01*
X33459000Y-96115000D02*
X33459000Y-95655000D01*
X33459000Y-98655000D02*
X33459000Y-98195000D01*
X33499000Y-96115000D02*
X33499000Y-95601000D01*
X33499000Y-98709000D02*
X33499000Y-98195000D01*
X33539000Y-96115000D02*
X33539000Y-95550000D01*
X33539000Y-98760000D02*
X33539000Y-98195000D01*
X33579000Y-96115000D02*
X33579000Y-95502000D01*
X33579000Y-98808000D02*
X33579000Y-98195000D01*
X33619000Y-96115000D02*
X33619000Y-95456000D01*
X33619000Y-98854000D02*
X33619000Y-98195000D01*
X33659000Y-96115000D02*
X33659000Y-95412000D01*
X33659000Y-98898000D02*
X33659000Y-98195000D01*
X33699000Y-96115000D02*
X33699000Y-95370000D01*
X33699000Y-98940000D02*
X33699000Y-98195000D01*
X33739000Y-96115000D02*
X33739000Y-95329000D01*
X33739000Y-98981000D02*
X33739000Y-98195000D01*
X33779000Y-96115000D02*
X33779000Y-95291000D01*
X33779000Y-99019000D02*
X33779000Y-98195000D01*
X33819000Y-96115000D02*
X33819000Y-95254000D01*
X33819000Y-99056000D02*
X33819000Y-98195000D01*
X33859000Y-96115000D02*
X33859000Y-95218000D01*
X33859000Y-99092000D02*
X33859000Y-98195000D01*
X33899000Y-96115000D02*
X33899000Y-95184000D01*
X33899000Y-99126000D02*
X33899000Y-98195000D01*
X33939000Y-96115000D02*
X33939000Y-95151000D01*
X33939000Y-99159000D02*
X33939000Y-98195000D01*
X33979000Y-96115000D02*
X33979000Y-95120000D01*
X33979000Y-99190000D02*
X33979000Y-98195000D01*
X34019000Y-96115000D02*
X34019000Y-95090000D01*
X34019000Y-99220000D02*
X34019000Y-98195000D01*
X34059000Y-96115000D02*
X34059000Y-95060000D01*
X34059000Y-99250000D02*
X34059000Y-98195000D01*
X34099000Y-96115000D02*
X34099000Y-95033000D01*
X34099000Y-99277000D02*
X34099000Y-98195000D01*
X34139000Y-96115000D02*
X34139000Y-95006000D01*
X34139000Y-99304000D02*
X34139000Y-98195000D01*
X34179000Y-96115000D02*
X34179000Y-94980000D01*
X34179000Y-99330000D02*
X34179000Y-98195000D01*
X34219000Y-96115000D02*
X34219000Y-94955000D01*
X34219000Y-99355000D02*
X34219000Y-98195000D01*
X34259000Y-96115000D02*
X34259000Y-94931000D01*
X34259000Y-99379000D02*
X34259000Y-98195000D01*
X34299000Y-96115000D02*
X34299000Y-94908000D01*
X34299000Y-99402000D02*
X34299000Y-98195000D01*
X34339000Y-96115000D02*
X34339000Y-94887000D01*
X34339000Y-99423000D02*
X34339000Y-98195000D01*
X34379000Y-96115000D02*
X34379000Y-94865000D01*
X34379000Y-99445000D02*
X34379000Y-98195000D01*
X34419000Y-96115000D02*
X34419000Y-94845000D01*
X34419000Y-99465000D02*
X34419000Y-98195000D01*
X34459000Y-96115000D02*
X34459000Y-94826000D01*
X34459000Y-99484000D02*
X34459000Y-98195000D01*
X34499000Y-96115000D02*
X34499000Y-94807000D01*
X34499000Y-99503000D02*
X34499000Y-98195000D01*
X34539000Y-96115000D02*
X34539000Y-94790000D01*
X34539000Y-99520000D02*
X34539000Y-98195000D01*
X34579000Y-96115000D02*
X34579000Y-94773000D01*
X34579000Y-99537000D02*
X34579000Y-98195000D01*
X34619000Y-96115000D02*
X34619000Y-94757000D01*
X34619000Y-99553000D02*
X34619000Y-98195000D01*
X34659000Y-96115000D02*
X34659000Y-94741000D01*
X34659000Y-99569000D02*
X34659000Y-98195000D01*
X34699000Y-96115000D02*
X34699000Y-94727000D01*
X34699000Y-99583000D02*
X34699000Y-98195000D01*
X34739000Y-96115000D02*
X34739000Y-94713000D01*
X34739000Y-99597000D02*
X34739000Y-98195000D01*
X34779000Y-96115000D02*
X34779000Y-94700000D01*
X34779000Y-99610000D02*
X34779000Y-98195000D01*
X34819000Y-96115000D02*
X34819000Y-94687000D01*
X34819000Y-99623000D02*
X34819000Y-98195000D01*
X34859000Y-96115000D02*
X34859000Y-94675000D01*
X34859000Y-99635000D02*
X34859000Y-98195000D01*
X34900000Y-96115000D02*
X34900000Y-94664000D01*
X34900000Y-99646000D02*
X34900000Y-98195000D01*
X34940000Y-96115000D02*
X34940000Y-94654000D01*
X34940000Y-99656000D02*
X34940000Y-98195000D01*
X34980000Y-96115000D02*
X34980000Y-94644000D01*
X34980000Y-99666000D02*
X34980000Y-98195000D01*
X35020000Y-96115000D02*
X35020000Y-94635000D01*
X35020000Y-99675000D02*
X35020000Y-98195000D01*
X35060000Y-96115000D02*
X35060000Y-94627000D01*
X35060000Y-99683000D02*
X35060000Y-98195000D01*
X35100000Y-96115000D02*
X35100000Y-94619000D01*
X35100000Y-99691000D02*
X35100000Y-98195000D01*
X35140000Y-96115000D02*
X35140000Y-94612000D01*
X35140000Y-99698000D02*
X35140000Y-98195000D01*
X35180000Y-96115000D02*
X35180000Y-94605000D01*
X35180000Y-99705000D02*
X35180000Y-98195000D01*
X35220000Y-96115000D02*
X35220000Y-94599000D01*
X35220000Y-99711000D02*
X35220000Y-98195000D01*
X35260000Y-96115000D02*
X35260000Y-94594000D01*
X35260000Y-99716000D02*
X35260000Y-98195000D01*
X35300000Y-96115000D02*
X35300000Y-94590000D01*
X35300000Y-99720000D02*
X35300000Y-98195000D01*
X35340000Y-96115000D02*
X35340000Y-94586000D01*
X35340000Y-99724000D02*
X35340000Y-98195000D01*
X35380000Y-99728000D02*
X35380000Y-94582000D01*
X35420000Y-99731000D02*
X35420000Y-94579000D01*
X35460000Y-99733000D02*
X35460000Y-94577000D01*
X35500000Y-99734000D02*
X35500000Y-94576000D01*
X35540000Y-99735000D02*
X35540000Y-94575000D01*
X35580000Y-99735000D02*
X35580000Y-94575000D01*
X38200000Y-97155000D02*
G75*
G03X38200000Y-97155000I-2620000J0D01*
G01*
X36795225Y-52885000D02*
X36795225Y-53385000D01*
X36545225Y-53135000D02*
X37045225Y-53135000D01*
X41951000Y-54326000D02*
X41951000Y-54894000D01*
X41911000Y-54092000D02*
X41911000Y-55128000D01*
X41871000Y-53933000D02*
X41871000Y-55287000D01*
X41831000Y-53805000D02*
X41831000Y-55415000D01*
X41791000Y-53695000D02*
X41791000Y-55525000D01*
X41751000Y-53599000D02*
X41751000Y-55621000D01*
X41711000Y-53512000D02*
X41711000Y-55708000D01*
X41671000Y-53432000D02*
X41671000Y-55788000D01*
X41631000Y-55650000D02*
X41631000Y-55861000D01*
X41631000Y-53359000D02*
X41631000Y-53570000D01*
X41591000Y-55650000D02*
X41591000Y-55929000D01*
X41591000Y-53291000D02*
X41591000Y-53570000D01*
X41551000Y-55650000D02*
X41551000Y-55993000D01*
X41551000Y-53227000D02*
X41551000Y-53570000D01*
X41511000Y-55650000D02*
X41511000Y-56053000D01*
X41511000Y-53167000D02*
X41511000Y-53570000D01*
X41471000Y-55650000D02*
X41471000Y-56110000D01*
X41471000Y-53110000D02*
X41471000Y-53570000D01*
X41431000Y-55650000D02*
X41431000Y-56164000D01*
X41431000Y-53056000D02*
X41431000Y-53570000D01*
X41391000Y-55650000D02*
X41391000Y-56215000D01*
X41391000Y-53005000D02*
X41391000Y-53570000D01*
X41351000Y-55650000D02*
X41351000Y-56263000D01*
X41351000Y-52957000D02*
X41351000Y-53570000D01*
X41311000Y-55650000D02*
X41311000Y-56309000D01*
X41311000Y-52911000D02*
X41311000Y-53570000D01*
X41271000Y-55650000D02*
X41271000Y-56353000D01*
X41271000Y-52867000D02*
X41271000Y-53570000D01*
X41231000Y-55650000D02*
X41231000Y-56395000D01*
X41231000Y-52825000D02*
X41231000Y-53570000D01*
X41191000Y-55650000D02*
X41191000Y-56436000D01*
X41191000Y-52784000D02*
X41191000Y-53570000D01*
X41151000Y-55650000D02*
X41151000Y-56474000D01*
X41151000Y-52746000D02*
X41151000Y-53570000D01*
X41111000Y-55650000D02*
X41111000Y-56511000D01*
X41111000Y-52709000D02*
X41111000Y-53570000D01*
X41071000Y-55650000D02*
X41071000Y-56547000D01*
X41071000Y-52673000D02*
X41071000Y-53570000D01*
X41031000Y-55650000D02*
X41031000Y-56581000D01*
X41031000Y-52639000D02*
X41031000Y-53570000D01*
X40991000Y-55650000D02*
X40991000Y-56614000D01*
X40991000Y-52606000D02*
X40991000Y-53570000D01*
X40951000Y-55650000D02*
X40951000Y-56645000D01*
X40951000Y-52575000D02*
X40951000Y-53570000D01*
X40911000Y-55650000D02*
X40911000Y-56675000D01*
X40911000Y-52545000D02*
X40911000Y-53570000D01*
X40871000Y-55650000D02*
X40871000Y-56705000D01*
X40871000Y-52515000D02*
X40871000Y-53570000D01*
X40831000Y-55650000D02*
X40831000Y-56732000D01*
X40831000Y-52488000D02*
X40831000Y-53570000D01*
X40791000Y-55650000D02*
X40791000Y-56759000D01*
X40791000Y-52461000D02*
X40791000Y-53570000D01*
X40751000Y-55650000D02*
X40751000Y-56785000D01*
X40751000Y-52435000D02*
X40751000Y-53570000D01*
X40711000Y-55650000D02*
X40711000Y-56810000D01*
X40711000Y-52410000D02*
X40711000Y-53570000D01*
X40671000Y-55650000D02*
X40671000Y-56834000D01*
X40671000Y-52386000D02*
X40671000Y-53570000D01*
X40631000Y-55650000D02*
X40631000Y-56857000D01*
X40631000Y-52363000D02*
X40631000Y-53570000D01*
X40591000Y-55650000D02*
X40591000Y-56878000D01*
X40591000Y-52342000D02*
X40591000Y-53570000D01*
X40551000Y-55650000D02*
X40551000Y-56900000D01*
X40551000Y-52320000D02*
X40551000Y-53570000D01*
X40511000Y-55650000D02*
X40511000Y-56920000D01*
X40511000Y-52300000D02*
X40511000Y-53570000D01*
X40471000Y-55650000D02*
X40471000Y-56939000D01*
X40471000Y-52281000D02*
X40471000Y-53570000D01*
X40431000Y-55650000D02*
X40431000Y-56958000D01*
X40431000Y-52262000D02*
X40431000Y-53570000D01*
X40391000Y-55650000D02*
X40391000Y-56975000D01*
X40391000Y-52245000D02*
X40391000Y-53570000D01*
X40351000Y-55650000D02*
X40351000Y-56992000D01*
X40351000Y-52228000D02*
X40351000Y-53570000D01*
X40311000Y-55650000D02*
X40311000Y-57008000D01*
X40311000Y-52212000D02*
X40311000Y-53570000D01*
X40271000Y-55650000D02*
X40271000Y-57024000D01*
X40271000Y-52196000D02*
X40271000Y-53570000D01*
X40231000Y-55650000D02*
X40231000Y-57038000D01*
X40231000Y-52182000D02*
X40231000Y-53570000D01*
X40191000Y-55650000D02*
X40191000Y-57052000D01*
X40191000Y-52168000D02*
X40191000Y-53570000D01*
X40151000Y-55650000D02*
X40151000Y-57065000D01*
X40151000Y-52155000D02*
X40151000Y-53570000D01*
X40111000Y-55650000D02*
X40111000Y-57078000D01*
X40111000Y-52142000D02*
X40111000Y-53570000D01*
X40071000Y-55650000D02*
X40071000Y-57090000D01*
X40071000Y-52130000D02*
X40071000Y-53570000D01*
X40030000Y-55650000D02*
X40030000Y-57101000D01*
X40030000Y-52119000D02*
X40030000Y-53570000D01*
X39990000Y-55650000D02*
X39990000Y-57111000D01*
X39990000Y-52109000D02*
X39990000Y-53570000D01*
X39950000Y-55650000D02*
X39950000Y-57121000D01*
X39950000Y-52099000D02*
X39950000Y-53570000D01*
X39910000Y-55650000D02*
X39910000Y-57130000D01*
X39910000Y-52090000D02*
X39910000Y-53570000D01*
X39870000Y-55650000D02*
X39870000Y-57138000D01*
X39870000Y-52082000D02*
X39870000Y-53570000D01*
X39830000Y-55650000D02*
X39830000Y-57146000D01*
X39830000Y-52074000D02*
X39830000Y-53570000D01*
X39790000Y-55650000D02*
X39790000Y-57153000D01*
X39790000Y-52067000D02*
X39790000Y-53570000D01*
X39750000Y-55650000D02*
X39750000Y-57160000D01*
X39750000Y-52060000D02*
X39750000Y-53570000D01*
X39710000Y-55650000D02*
X39710000Y-57166000D01*
X39710000Y-52054000D02*
X39710000Y-53570000D01*
X39670000Y-55650000D02*
X39670000Y-57171000D01*
X39670000Y-52049000D02*
X39670000Y-53570000D01*
X39630000Y-55650000D02*
X39630000Y-57175000D01*
X39630000Y-52045000D02*
X39630000Y-53570000D01*
X39590000Y-55650000D02*
X39590000Y-57179000D01*
X39590000Y-52041000D02*
X39590000Y-53570000D01*
X39550000Y-52037000D02*
X39550000Y-57183000D01*
X39510000Y-52034000D02*
X39510000Y-57186000D01*
X39470000Y-52032000D02*
X39470000Y-57188000D01*
X39430000Y-52031000D02*
X39430000Y-57189000D01*
X39390000Y-52030000D02*
X39390000Y-57190000D01*
X39350000Y-52030000D02*
X39350000Y-57190000D01*
X41970000Y-54610000D02*
G75*
G03X41970000Y-54610000I-2620000J0D01*
G01*
D11*
X80599761Y-61478333D02*
X80647380Y-61335476D01*
X80647380Y-61097380D01*
X80599761Y-61002142D01*
X80552142Y-60954523D01*
X80456904Y-60906904D01*
X80361666Y-60906904D01*
X80266428Y-60954523D01*
X80218809Y-61002142D01*
X80171190Y-61097380D01*
X80123571Y-61287857D01*
X80075952Y-61383095D01*
X80028333Y-61430714D01*
X79933095Y-61478333D01*
X79837857Y-61478333D01*
X79742619Y-61430714D01*
X79695000Y-61383095D01*
X79647380Y-61287857D01*
X79647380Y-61049761D01*
X79695000Y-60906904D01*
X79647380Y-60573571D02*
X80647380Y-60335476D01*
X79933095Y-60145000D01*
X80647380Y-59954523D01*
X79647380Y-59716428D01*
X80647380Y-58811666D02*
X80647380Y-59383095D01*
X80647380Y-59097380D02*
X79647380Y-59097380D01*
X79790238Y-59192619D01*
X79885476Y-59287857D01*
X79933095Y-59383095D01*
X94432380Y-64992142D02*
X93956190Y-65325476D01*
X94432380Y-65563571D02*
X93432380Y-65563571D01*
X93432380Y-65182619D01*
X93480000Y-65087380D01*
X93527619Y-65039761D01*
X93622857Y-64992142D01*
X93765714Y-64992142D01*
X93860952Y-65039761D01*
X93908571Y-65087380D01*
X93956190Y-65182619D01*
X93956190Y-65563571D01*
X93432380Y-64563571D02*
X94241904Y-64563571D01*
X94337142Y-64515952D01*
X94384761Y-64468333D01*
X94432380Y-64373095D01*
X94432380Y-64182619D01*
X94384761Y-64087380D01*
X94337142Y-64039761D01*
X94241904Y-63992142D01*
X93432380Y-63992142D01*
X94432380Y-63515952D02*
X93432380Y-63515952D01*
X94432380Y-62944523D01*
X93432380Y-62944523D01*
X94527619Y-62706428D02*
X94527619Y-61944523D01*
X94432380Y-61706428D02*
X93432380Y-61706428D01*
X93908571Y-61706428D02*
X93908571Y-61135000D01*
X94432380Y-61135000D02*
X93432380Y-61135000D01*
X94146666Y-60706428D02*
X94146666Y-60230238D01*
X94432380Y-60801666D02*
X93432380Y-60468333D01*
X94432380Y-60135000D01*
X94432380Y-59325476D02*
X94432380Y-59801666D01*
X93432380Y-59801666D01*
X93432380Y-59135000D02*
X93432380Y-58563571D01*
X94432380Y-58849285D02*
X93432380Y-58849285D01*
X80599761Y-74305333D02*
X80647380Y-74162476D01*
X80647380Y-73924380D01*
X80599761Y-73829142D01*
X80552142Y-73781523D01*
X80456904Y-73733904D01*
X80361666Y-73733904D01*
X80266428Y-73781523D01*
X80218809Y-73829142D01*
X80171190Y-73924380D01*
X80123571Y-74114857D01*
X80075952Y-74210095D01*
X80028333Y-74257714D01*
X79933095Y-74305333D01*
X79837857Y-74305333D01*
X79742619Y-74257714D01*
X79695000Y-74210095D01*
X79647380Y-74114857D01*
X79647380Y-73876761D01*
X79695000Y-73733904D01*
X79647380Y-73400571D02*
X80647380Y-73162476D01*
X79933095Y-72972000D01*
X80647380Y-72781523D01*
X79647380Y-72543428D01*
X79647380Y-72257714D02*
X79647380Y-71638666D01*
X80028333Y-71972000D01*
X80028333Y-71829142D01*
X80075952Y-71733904D01*
X80123571Y-71686285D01*
X80218809Y-71638666D01*
X80456904Y-71638666D01*
X80552142Y-71686285D01*
X80599761Y-71733904D01*
X80647380Y-71829142D01*
X80647380Y-72114857D01*
X80599761Y-72210095D01*
X80552142Y-72257714D01*
X94384761Y-79604857D02*
X94432380Y-79462000D01*
X94432380Y-79223904D01*
X94384761Y-79128666D01*
X94337142Y-79081047D01*
X94241904Y-79033428D01*
X94146666Y-79033428D01*
X94051428Y-79081047D01*
X94003809Y-79128666D01*
X93956190Y-79223904D01*
X93908571Y-79414380D01*
X93860952Y-79509619D01*
X93813333Y-79557238D01*
X93718095Y-79604857D01*
X93622857Y-79604857D01*
X93527619Y-79557238D01*
X93480000Y-79509619D01*
X93432380Y-79414380D01*
X93432380Y-79176285D01*
X93480000Y-79033428D01*
X94432380Y-78604857D02*
X93432380Y-78604857D01*
X94432380Y-78128666D02*
X93432380Y-78128666D01*
X94432380Y-77557238D01*
X93432380Y-77557238D01*
X93480000Y-76557238D02*
X93432380Y-76652476D01*
X93432380Y-76795333D01*
X93480000Y-76938190D01*
X93575238Y-77033428D01*
X93670476Y-77081047D01*
X93860952Y-77128666D01*
X94003809Y-77128666D01*
X94194285Y-77081047D01*
X94289523Y-77033428D01*
X94384761Y-76938190D01*
X94432380Y-76795333D01*
X94432380Y-76700095D01*
X94384761Y-76557238D01*
X94337142Y-76509619D01*
X94003809Y-76509619D01*
X94003809Y-76700095D01*
X94432380Y-75604857D02*
X94432380Y-76081047D01*
X93432380Y-76081047D01*
X93908571Y-75271523D02*
X93908571Y-74938190D01*
X94432380Y-74795333D02*
X94432380Y-75271523D01*
X93432380Y-75271523D01*
X93432380Y-74795333D01*
X94527619Y-74604857D02*
X94527619Y-73842952D01*
X94146666Y-73652476D02*
X94146666Y-73176285D01*
X94432380Y-73747714D02*
X93432380Y-73414380D01*
X94432380Y-73081047D01*
X93432380Y-72747714D02*
X94241904Y-72747714D01*
X94337142Y-72700095D01*
X94384761Y-72652476D01*
X94432380Y-72557238D01*
X94432380Y-72366761D01*
X94384761Y-72271523D01*
X94337142Y-72223904D01*
X94241904Y-72176285D01*
X93432380Y-72176285D01*
X93432380Y-71842952D02*
X93432380Y-71271523D01*
X94432380Y-71557238D02*
X93432380Y-71557238D01*
X93432380Y-70747714D02*
X93432380Y-70557238D01*
X93480000Y-70462000D01*
X93575238Y-70366761D01*
X93765714Y-70319142D01*
X94099047Y-70319142D01*
X94289523Y-70366761D01*
X94384761Y-70462000D01*
X94432380Y-70557238D01*
X94432380Y-70747714D01*
X94384761Y-70842952D01*
X94289523Y-70938190D01*
X94099047Y-70985809D01*
X93765714Y-70985809D01*
X93575238Y-70938190D01*
X93480000Y-70842952D01*
X93432380Y-70747714D01*
X32377142Y-88887380D02*
X32043809Y-88411190D01*
X31805714Y-88887380D02*
X31805714Y-87887380D01*
X32186666Y-87887380D01*
X32281904Y-87935000D01*
X32329523Y-87982619D01*
X32377142Y-88077857D01*
X32377142Y-88220714D01*
X32329523Y-88315952D01*
X32281904Y-88363571D01*
X32186666Y-88411190D01*
X31805714Y-88411190D01*
X33329523Y-88887380D02*
X32758095Y-88887380D01*
X33043809Y-88887380D02*
X33043809Y-87887380D01*
X32948571Y-88030238D01*
X32853333Y-88125476D01*
X32758095Y-88173095D01*
X33710476Y-87982619D02*
X33758095Y-87935000D01*
X33853333Y-87887380D01*
X34091428Y-87887380D01*
X34186666Y-87935000D01*
X34234285Y-87982619D01*
X34281904Y-88077857D01*
X34281904Y-88173095D01*
X34234285Y-88315952D01*
X33662857Y-88887380D01*
X34281904Y-88887380D01*
X30472142Y-49812380D02*
X30138809Y-49336190D01*
X29900714Y-49812380D02*
X29900714Y-48812380D01*
X30281666Y-48812380D01*
X30376904Y-48860000D01*
X30424523Y-48907619D01*
X30472142Y-49002857D01*
X30472142Y-49145714D01*
X30424523Y-49240952D01*
X30376904Y-49288571D01*
X30281666Y-49336190D01*
X29900714Y-49336190D01*
X31424523Y-49812380D02*
X30853095Y-49812380D01*
X31138809Y-49812380D02*
X31138809Y-48812380D01*
X31043571Y-48955238D01*
X30948333Y-49050476D01*
X30853095Y-49098095D01*
X32376904Y-49812380D02*
X31805476Y-49812380D01*
X32091190Y-49812380D02*
X32091190Y-48812380D01*
X31995952Y-48955238D01*
X31900714Y-49050476D01*
X31805476Y-49098095D01*
X32281904Y-84977380D02*
X32281904Y-83977380D01*
X32520000Y-83977380D01*
X32662857Y-84025000D01*
X32758095Y-84120238D01*
X32805714Y-84215476D01*
X32853333Y-84405952D01*
X32853333Y-84548809D01*
X32805714Y-84739285D01*
X32758095Y-84834523D01*
X32662857Y-84929761D01*
X32520000Y-84977380D01*
X32281904Y-84977380D01*
X33758095Y-83977380D02*
X33281904Y-83977380D01*
X33234285Y-84453571D01*
X33281904Y-84405952D01*
X33377142Y-84358333D01*
X33615238Y-84358333D01*
X33710476Y-84405952D01*
X33758095Y-84453571D01*
X33805714Y-84548809D01*
X33805714Y-84786904D01*
X33758095Y-84882142D01*
X33710476Y-84929761D01*
X33615238Y-84977380D01*
X33377142Y-84977380D01*
X33281904Y-84929761D01*
X33234285Y-84882142D01*
X28948095Y-85547380D02*
X28948095Y-84547380D01*
X29519523Y-85547380D02*
X29090952Y-84975952D01*
X29519523Y-84547380D02*
X28948095Y-85118809D01*
X30376904Y-53722380D02*
X30376904Y-52722380D01*
X30615000Y-52722380D01*
X30757857Y-52770000D01*
X30853095Y-52865238D01*
X30900714Y-52960476D01*
X30948333Y-53150952D01*
X30948333Y-53293809D01*
X30900714Y-53484285D01*
X30853095Y-53579523D01*
X30757857Y-53674761D01*
X30615000Y-53722380D01*
X30376904Y-53722380D01*
X31805476Y-53055714D02*
X31805476Y-53722380D01*
X31567380Y-52674761D02*
X31329285Y-53389047D01*
X31948333Y-53389047D01*
X34663095Y-53152380D02*
X34663095Y-52152380D01*
X35234523Y-53152380D02*
X34805952Y-52580952D01*
X35234523Y-52152380D02*
X34663095Y-52723809D01*
X32782142Y-40826666D02*
X32829761Y-40874285D01*
X32877380Y-41017142D01*
X32877380Y-41112380D01*
X32829761Y-41255238D01*
X32734523Y-41350476D01*
X32639285Y-41398095D01*
X32448809Y-41445714D01*
X32305952Y-41445714D01*
X32115476Y-41398095D01*
X32020238Y-41350476D01*
X31925000Y-41255238D01*
X31877380Y-41112380D01*
X31877380Y-41017142D01*
X31925000Y-40874285D01*
X31972619Y-40826666D01*
X31877380Y-39921904D02*
X31877380Y-40398095D01*
X32353571Y-40445714D01*
X32305952Y-40398095D01*
X32258333Y-40302857D01*
X32258333Y-40064761D01*
X32305952Y-39969523D01*
X32353571Y-39921904D01*
X32448809Y-39874285D01*
X32686904Y-39874285D01*
X32782142Y-39921904D01*
X32829761Y-39969523D01*
X32877380Y-40064761D01*
X32877380Y-40302857D01*
X32829761Y-40398095D01*
X32782142Y-40445714D01*
X38497142Y-89086666D02*
X38544761Y-89134285D01*
X38592380Y-89277142D01*
X38592380Y-89372380D01*
X38544761Y-89515238D01*
X38449523Y-89610476D01*
X38354285Y-89658095D01*
X38163809Y-89705714D01*
X38020952Y-89705714D01*
X37830476Y-89658095D01*
X37735238Y-89610476D01*
X37640000Y-89515238D01*
X37592380Y-89372380D01*
X37592380Y-89277142D01*
X37640000Y-89134285D01*
X37687619Y-89086666D01*
X37925714Y-88229523D02*
X38592380Y-88229523D01*
X37544761Y-88467619D02*
X38259047Y-88705714D01*
X38259047Y-88086666D01*
X29511666Y-57447380D02*
X29511666Y-58161666D01*
X29464047Y-58304523D01*
X29368809Y-58399761D01*
X29225952Y-58447380D01*
X29130714Y-58447380D01*
X29940238Y-57542619D02*
X29987857Y-57495000D01*
X30083095Y-57447380D01*
X30321190Y-57447380D01*
X30416428Y-57495000D01*
X30464047Y-57542619D01*
X30511666Y-57637857D01*
X30511666Y-57733095D01*
X30464047Y-57875952D01*
X29892619Y-58447380D01*
X30511666Y-58447380D01*
X34107380Y-74080000D02*
X33107380Y-74080000D01*
X33821666Y-73746666D01*
X33107380Y-73413333D01*
X34107380Y-73413333D01*
X34107380Y-72508571D02*
X33583571Y-72508571D01*
X33488333Y-72556190D01*
X33440714Y-72651428D01*
X33440714Y-72841904D01*
X33488333Y-72937142D01*
X34059761Y-72508571D02*
X34107380Y-72603809D01*
X34107380Y-72841904D01*
X34059761Y-72937142D01*
X33964523Y-72984761D01*
X33869285Y-72984761D01*
X33774047Y-72937142D01*
X33726428Y-72841904D01*
X33726428Y-72603809D01*
X33678809Y-72508571D01*
X33440714Y-72032380D02*
X34107380Y-72032380D01*
X33535952Y-72032380D02*
X33488333Y-71984761D01*
X33440714Y-71889523D01*
X33440714Y-71746666D01*
X33488333Y-71651428D01*
X33583571Y-71603809D01*
X34107380Y-71603809D01*
X33440714Y-70699047D02*
X34107380Y-70699047D01*
X33440714Y-71127619D02*
X33964523Y-71127619D01*
X34059761Y-71080000D01*
X34107380Y-70984761D01*
X34107380Y-70841904D01*
X34059761Y-70746666D01*
X34012142Y-70699047D01*
X34107380Y-69794285D02*
X33583571Y-69794285D01*
X33488333Y-69841904D01*
X33440714Y-69937142D01*
X33440714Y-70127619D01*
X33488333Y-70222857D01*
X34059761Y-69794285D02*
X34107380Y-69889523D01*
X34107380Y-70127619D01*
X34059761Y-70222857D01*
X33964523Y-70270476D01*
X33869285Y-70270476D01*
X33774047Y-70222857D01*
X33726428Y-70127619D01*
X33726428Y-69889523D01*
X33678809Y-69794285D01*
X34107380Y-69175238D02*
X34059761Y-69270476D01*
X33964523Y-69318095D01*
X33107380Y-69318095D01*
X34012142Y-67460952D02*
X34059761Y-67508571D01*
X34107380Y-67651428D01*
X34107380Y-67746666D01*
X34059761Y-67889523D01*
X33964523Y-67984761D01*
X33869285Y-68032380D01*
X33678809Y-68080000D01*
X33535952Y-68080000D01*
X33345476Y-68032380D01*
X33250238Y-67984761D01*
X33155000Y-67889523D01*
X33107380Y-67746666D01*
X33107380Y-67651428D01*
X33155000Y-67508571D01*
X33202619Y-67460952D01*
X34107380Y-66889523D02*
X34059761Y-66984761D01*
X34012142Y-67032380D01*
X33916904Y-67080000D01*
X33631190Y-67080000D01*
X33535952Y-67032380D01*
X33488333Y-66984761D01*
X33440714Y-66889523D01*
X33440714Y-66746666D01*
X33488333Y-66651428D01*
X33535952Y-66603809D01*
X33631190Y-66556190D01*
X33916904Y-66556190D01*
X34012142Y-66603809D01*
X34059761Y-66651428D01*
X34107380Y-66746666D01*
X34107380Y-66889523D01*
X33440714Y-66127619D02*
X34107380Y-66127619D01*
X33535952Y-66127619D02*
X33488333Y-66080000D01*
X33440714Y-65984761D01*
X33440714Y-65841904D01*
X33488333Y-65746666D01*
X33583571Y-65699047D01*
X34107380Y-65699047D01*
X33440714Y-65365714D02*
X33440714Y-64984761D01*
X33107380Y-65222857D02*
X33964523Y-65222857D01*
X34059761Y-65175238D01*
X34107380Y-65080000D01*
X34107380Y-64984761D01*
X34107380Y-64651428D02*
X33440714Y-64651428D01*
X33631190Y-64651428D02*
X33535952Y-64603809D01*
X33488333Y-64556190D01*
X33440714Y-64460952D01*
X33440714Y-64365714D01*
X34107380Y-63889523D02*
X34059761Y-63984761D01*
X34012142Y-64032380D01*
X33916904Y-64080000D01*
X33631190Y-64080000D01*
X33535952Y-64032380D01*
X33488333Y-63984761D01*
X33440714Y-63889523D01*
X33440714Y-63746666D01*
X33488333Y-63651428D01*
X33535952Y-63603809D01*
X33631190Y-63556190D01*
X33916904Y-63556190D01*
X34012142Y-63603809D01*
X34059761Y-63651428D01*
X34107380Y-63746666D01*
X34107380Y-63889523D01*
X34107380Y-62984761D02*
X34059761Y-63080000D01*
X33964523Y-63127619D01*
X33107380Y-63127619D01*
X112692380Y-107489523D02*
X113406666Y-107489523D01*
X113549523Y-107537142D01*
X113644761Y-107632380D01*
X113692380Y-107775238D01*
X113692380Y-107870476D01*
X113692380Y-106489523D02*
X113692380Y-107060952D01*
X113692380Y-106775238D02*
X112692380Y-106775238D01*
X112835238Y-106870476D01*
X112930476Y-106965714D01*
X112978095Y-107060952D01*
X113692380Y-105537142D02*
X113692380Y-106108571D01*
X113692380Y-105822857D02*
X112692380Y-105822857D01*
X112835238Y-105918095D01*
X112930476Y-106013333D01*
X112978095Y-106108571D01*
X122364761Y-109672380D02*
X122364761Y-108672380D01*
X122936190Y-109672380D02*
X122507619Y-109100952D01*
X122936190Y-108672380D02*
X122364761Y-109243809D01*
X123364761Y-109148571D02*
X123698095Y-109148571D01*
X123840952Y-109672380D02*
X123364761Y-109672380D01*
X123364761Y-108672380D01*
X123840952Y-108672380D01*
X124460000Y-109196190D02*
X124460000Y-109672380D01*
X124126666Y-108672380D02*
X124460000Y-109196190D01*
X124793333Y-108672380D01*
X125079047Y-109624761D02*
X125221904Y-109672380D01*
X125460000Y-109672380D01*
X125555238Y-109624761D01*
X125602857Y-109577142D01*
X125650476Y-109481904D01*
X125650476Y-109386666D01*
X125602857Y-109291428D01*
X125555238Y-109243809D01*
X125460000Y-109196190D01*
X125269523Y-109148571D01*
X125174285Y-109100952D01*
X125126666Y-109053333D01*
X125079047Y-108958095D01*
X125079047Y-108862857D01*
X125126666Y-108767619D01*
X125174285Y-108720000D01*
X125269523Y-108672380D01*
X125507619Y-108672380D01*
X125650476Y-108720000D01*
X126031428Y-108767619D02*
X126079047Y-108720000D01*
X126174285Y-108672380D01*
X126412380Y-108672380D01*
X126507619Y-108720000D01*
X126555238Y-108767619D01*
X126602857Y-108862857D01*
X126602857Y-108958095D01*
X126555238Y-109100952D01*
X125983809Y-109672380D01*
X126602857Y-109672380D01*
X112692380Y-35099523D02*
X113406666Y-35099523D01*
X113549523Y-35147142D01*
X113644761Y-35242380D01*
X113692380Y-35385238D01*
X113692380Y-35480476D01*
X113692380Y-34099523D02*
X113692380Y-34670952D01*
X113692380Y-34385238D02*
X112692380Y-34385238D01*
X112835238Y-34480476D01*
X112930476Y-34575714D01*
X112978095Y-34670952D01*
X112692380Y-33480476D02*
X112692380Y-33385238D01*
X112740000Y-33290000D01*
X112787619Y-33242380D01*
X112882857Y-33194761D01*
X113073333Y-33147142D01*
X113311428Y-33147142D01*
X113501904Y-33194761D01*
X113597142Y-33242380D01*
X113644761Y-33290000D01*
X113692380Y-33385238D01*
X113692380Y-33480476D01*
X113644761Y-33575714D01*
X113597142Y-33623333D01*
X113501904Y-33670952D01*
X113311428Y-33718571D01*
X113073333Y-33718571D01*
X112882857Y-33670952D01*
X112787619Y-33623333D01*
X112740000Y-33575714D01*
X112692380Y-33480476D01*
X122364761Y-32202380D02*
X122364761Y-31202380D01*
X122936190Y-32202380D02*
X122507619Y-31630952D01*
X122936190Y-31202380D02*
X122364761Y-31773809D01*
X123364761Y-31678571D02*
X123698095Y-31678571D01*
X123840952Y-32202380D02*
X123364761Y-32202380D01*
X123364761Y-31202380D01*
X123840952Y-31202380D01*
X124460000Y-31726190D02*
X124460000Y-32202380D01*
X124126666Y-31202380D02*
X124460000Y-31726190D01*
X124793333Y-31202380D01*
X125079047Y-32154761D02*
X125221904Y-32202380D01*
X125460000Y-32202380D01*
X125555238Y-32154761D01*
X125602857Y-32107142D01*
X125650476Y-32011904D01*
X125650476Y-31916666D01*
X125602857Y-31821428D01*
X125555238Y-31773809D01*
X125460000Y-31726190D01*
X125269523Y-31678571D01*
X125174285Y-31630952D01*
X125126666Y-31583333D01*
X125079047Y-31488095D01*
X125079047Y-31392857D01*
X125126666Y-31297619D01*
X125174285Y-31250000D01*
X125269523Y-31202380D01*
X125507619Y-31202380D01*
X125650476Y-31250000D01*
X126602857Y-32202380D02*
X126031428Y-32202380D01*
X126317142Y-32202380D02*
X126317142Y-31202380D01*
X126221904Y-31345238D01*
X126126666Y-31440476D01*
X126031428Y-31488095D01*
X43172142Y-35377380D02*
X42838809Y-34901190D01*
X42600714Y-35377380D02*
X42600714Y-34377380D01*
X42981666Y-34377380D01*
X43076904Y-34425000D01*
X43124523Y-34472619D01*
X43172142Y-34567857D01*
X43172142Y-34710714D01*
X43124523Y-34805952D01*
X43076904Y-34853571D01*
X42981666Y-34901190D01*
X42600714Y-34901190D01*
X44124523Y-35377380D02*
X43553095Y-35377380D01*
X43838809Y-35377380D02*
X43838809Y-34377380D01*
X43743571Y-34520238D01*
X43648333Y-34615476D01*
X43553095Y-34663095D01*
X44743571Y-34377380D02*
X44838809Y-34377380D01*
X44934047Y-34425000D01*
X44981666Y-34472619D01*
X45029285Y-34567857D01*
X45076904Y-34758333D01*
X45076904Y-34996428D01*
X45029285Y-35186904D01*
X44981666Y-35282142D01*
X44934047Y-35329761D01*
X44838809Y-35377380D01*
X44743571Y-35377380D01*
X44648333Y-35329761D01*
X44600714Y-35282142D01*
X44553095Y-35186904D01*
X44505476Y-34996428D01*
X44505476Y-34758333D01*
X44553095Y-34567857D01*
X44600714Y-34472619D01*
X44648333Y-34425000D01*
X44743571Y-34377380D01*
X69048333Y-95702380D02*
X68715000Y-95226190D01*
X68476904Y-95702380D02*
X68476904Y-94702380D01*
X68857857Y-94702380D01*
X68953095Y-94750000D01*
X69000714Y-94797619D01*
X69048333Y-94892857D01*
X69048333Y-95035714D01*
X69000714Y-95130952D01*
X68953095Y-95178571D01*
X68857857Y-95226190D01*
X68476904Y-95226190D01*
X69524523Y-95702380D02*
X69715000Y-95702380D01*
X69810238Y-95654761D01*
X69857857Y-95607142D01*
X69953095Y-95464285D01*
X70000714Y-95273809D01*
X70000714Y-94892857D01*
X69953095Y-94797619D01*
X69905476Y-94750000D01*
X69810238Y-94702380D01*
X69619761Y-94702380D01*
X69524523Y-94750000D01*
X69476904Y-94797619D01*
X69429285Y-94892857D01*
X69429285Y-95130952D01*
X69476904Y-95226190D01*
X69524523Y-95273809D01*
X69619761Y-95321428D01*
X69810238Y-95321428D01*
X69905476Y-95273809D01*
X69953095Y-95226190D01*
X70000714Y-95130952D01*
X69048333Y-99512380D02*
X68715000Y-99036190D01*
X68476904Y-99512380D02*
X68476904Y-98512380D01*
X68857857Y-98512380D01*
X68953095Y-98560000D01*
X69000714Y-98607619D01*
X69048333Y-98702857D01*
X69048333Y-98845714D01*
X69000714Y-98940952D01*
X68953095Y-98988571D01*
X68857857Y-99036190D01*
X68476904Y-99036190D01*
X69619761Y-98940952D02*
X69524523Y-98893333D01*
X69476904Y-98845714D01*
X69429285Y-98750476D01*
X69429285Y-98702857D01*
X69476904Y-98607619D01*
X69524523Y-98560000D01*
X69619761Y-98512380D01*
X69810238Y-98512380D01*
X69905476Y-98560000D01*
X69953095Y-98607619D01*
X70000714Y-98702857D01*
X70000714Y-98750476D01*
X69953095Y-98845714D01*
X69905476Y-98893333D01*
X69810238Y-98940952D01*
X69619761Y-98940952D01*
X69524523Y-98988571D01*
X69476904Y-99036190D01*
X69429285Y-99131428D01*
X69429285Y-99321904D01*
X69476904Y-99417142D01*
X69524523Y-99464761D01*
X69619761Y-99512380D01*
X69810238Y-99512380D01*
X69905476Y-99464761D01*
X69953095Y-99417142D01*
X70000714Y-99321904D01*
X70000714Y-99131428D01*
X69953095Y-99036190D01*
X69905476Y-98988571D01*
X69810238Y-98940952D01*
X47502380Y-29543333D02*
X48216666Y-29543333D01*
X48359523Y-29590952D01*
X48454761Y-29686190D01*
X48502380Y-29829047D01*
X48502380Y-29924285D01*
X48502380Y-29019523D02*
X48502380Y-28829047D01*
X48454761Y-28733809D01*
X48407142Y-28686190D01*
X48264285Y-28590952D01*
X48073809Y-28543333D01*
X47692857Y-28543333D01*
X47597619Y-28590952D01*
X47550000Y-28638571D01*
X47502380Y-28733809D01*
X47502380Y-28924285D01*
X47550000Y-29019523D01*
X47597619Y-29067142D01*
X47692857Y-29114761D01*
X47930952Y-29114761D01*
X48026190Y-29067142D01*
X48073809Y-29019523D01*
X48121428Y-28924285D01*
X48121428Y-28733809D01*
X48073809Y-28638571D01*
X48026190Y-28590952D01*
X47930952Y-28543333D01*
X40290952Y-32107142D02*
X40243333Y-32154761D01*
X40100476Y-32202380D01*
X40005238Y-32202380D01*
X39862380Y-32154761D01*
X39767142Y-32059523D01*
X39719523Y-31964285D01*
X39671904Y-31773809D01*
X39671904Y-31630952D01*
X39719523Y-31440476D01*
X39767142Y-31345238D01*
X39862380Y-31250000D01*
X40005238Y-31202380D01*
X40100476Y-31202380D01*
X40243333Y-31250000D01*
X40290952Y-31297619D01*
X41195714Y-32202380D02*
X40719523Y-32202380D01*
X40719523Y-31202380D01*
X41719523Y-31202380D02*
X41910000Y-31202380D01*
X42005238Y-31250000D01*
X42100476Y-31345238D01*
X42148095Y-31535714D01*
X42148095Y-31869047D01*
X42100476Y-32059523D01*
X42005238Y-32154761D01*
X41910000Y-32202380D01*
X41719523Y-32202380D01*
X41624285Y-32154761D01*
X41529047Y-32059523D01*
X41481428Y-31869047D01*
X41481428Y-31535714D01*
X41529047Y-31345238D01*
X41624285Y-31250000D01*
X41719523Y-31202380D01*
X43148095Y-32107142D02*
X43100476Y-32154761D01*
X42957619Y-32202380D01*
X42862380Y-32202380D01*
X42719523Y-32154761D01*
X42624285Y-32059523D01*
X42576666Y-31964285D01*
X42529047Y-31773809D01*
X42529047Y-31630952D01*
X42576666Y-31440476D01*
X42624285Y-31345238D01*
X42719523Y-31250000D01*
X42862380Y-31202380D01*
X42957619Y-31202380D01*
X43100476Y-31250000D01*
X43148095Y-31297619D01*
X43576666Y-32202380D02*
X43576666Y-31202380D01*
X44148095Y-32202380D02*
X43719523Y-31630952D01*
X44148095Y-31202380D02*
X43576666Y-31773809D01*
X52601904Y-34742380D02*
X52601904Y-33742380D01*
X52840000Y-33742380D01*
X52982857Y-33790000D01*
X53078095Y-33885238D01*
X53125714Y-33980476D01*
X53173333Y-34170952D01*
X53173333Y-34313809D01*
X53125714Y-34504285D01*
X53078095Y-34599523D01*
X52982857Y-34694761D01*
X52840000Y-34742380D01*
X52601904Y-34742380D01*
X53506666Y-33742380D02*
X54125714Y-33742380D01*
X53792380Y-34123333D01*
X53935238Y-34123333D01*
X54030476Y-34170952D01*
X54078095Y-34218571D01*
X54125714Y-34313809D01*
X54125714Y-34551904D01*
X54078095Y-34647142D01*
X54030476Y-34694761D01*
X53935238Y-34742380D01*
X53649523Y-34742380D01*
X53554285Y-34694761D01*
X53506666Y-34647142D01*
X56285000Y-34742380D02*
X56285000Y-33742380D01*
X56285000Y-34218571D02*
X56856428Y-34218571D01*
X56856428Y-34742380D02*
X56856428Y-33742380D01*
X57285000Y-34456666D02*
X57761190Y-34456666D01*
X57189761Y-34742380D02*
X57523095Y-33742380D01*
X57856428Y-34742380D01*
X58665952Y-34742380D02*
X58189761Y-34742380D01*
X58189761Y-33742380D01*
X58856428Y-33742380D02*
X59427857Y-33742380D01*
X59142142Y-34742380D02*
X59142142Y-33742380D01*
X65595952Y-93162380D02*
X65262619Y-92686190D01*
X65024523Y-93162380D02*
X65024523Y-92162380D01*
X65405476Y-92162380D01*
X65500714Y-92210000D01*
X65548333Y-92257619D01*
X65595952Y-92352857D01*
X65595952Y-92495714D01*
X65548333Y-92590952D01*
X65500714Y-92638571D01*
X65405476Y-92686190D01*
X65024523Y-92686190D01*
X66024523Y-92638571D02*
X66357857Y-92638571D01*
X66500714Y-93162380D02*
X66024523Y-93162380D01*
X66024523Y-92162380D01*
X66500714Y-92162380D01*
X66881666Y-93114761D02*
X67024523Y-93162380D01*
X67262619Y-93162380D01*
X67357857Y-93114761D01*
X67405476Y-93067142D01*
X67453095Y-92971904D01*
X67453095Y-92876666D01*
X67405476Y-92781428D01*
X67357857Y-92733809D01*
X67262619Y-92686190D01*
X67072142Y-92638571D01*
X66976904Y-92590952D01*
X66929285Y-92543333D01*
X66881666Y-92448095D01*
X66881666Y-92352857D01*
X66929285Y-92257619D01*
X66976904Y-92210000D01*
X67072142Y-92162380D01*
X67310238Y-92162380D01*
X67453095Y-92210000D01*
X67881666Y-92638571D02*
X68215000Y-92638571D01*
X68357857Y-93162380D02*
X67881666Y-93162380D01*
X67881666Y-92162380D01*
X68357857Y-92162380D01*
X68643571Y-92162380D02*
X69215000Y-92162380D01*
X68929285Y-93162380D02*
X68929285Y-92162380D01*
X70881666Y-93067142D02*
X70834047Y-93114761D01*
X70691190Y-93162380D01*
X70595952Y-93162380D01*
X70453095Y-93114761D01*
X70357857Y-93019523D01*
X70310238Y-92924285D01*
X70262619Y-92733809D01*
X70262619Y-92590952D01*
X70310238Y-92400476D01*
X70357857Y-92305238D01*
X70453095Y-92210000D01*
X70595952Y-92162380D01*
X70691190Y-92162380D01*
X70834047Y-92210000D01*
X70881666Y-92257619D01*
X71167380Y-92162380D02*
X71738809Y-92162380D01*
X71453095Y-93162380D02*
X71453095Y-92162380D01*
X72643571Y-93162380D02*
X72310238Y-92686190D01*
X72072142Y-93162380D02*
X72072142Y-92162380D01*
X72453095Y-92162380D01*
X72548333Y-92210000D01*
X72595952Y-92257619D01*
X72643571Y-92352857D01*
X72643571Y-92495714D01*
X72595952Y-92590952D01*
X72548333Y-92638571D01*
X72453095Y-92686190D01*
X72072142Y-92686190D01*
X73548333Y-93162380D02*
X73072142Y-93162380D01*
X73072142Y-92162380D01*
X66143571Y-109672380D02*
X65810238Y-109196190D01*
X65572142Y-109672380D02*
X65572142Y-108672380D01*
X65953095Y-108672380D01*
X66048333Y-108720000D01*
X66095952Y-108767619D01*
X66143571Y-108862857D01*
X66143571Y-109005714D01*
X66095952Y-109100952D01*
X66048333Y-109148571D01*
X65953095Y-109196190D01*
X65572142Y-109196190D01*
X66572142Y-109148571D02*
X66905476Y-109148571D01*
X67048333Y-109672380D02*
X66572142Y-109672380D01*
X66572142Y-108672380D01*
X67048333Y-108672380D01*
X67429285Y-109624761D02*
X67572142Y-109672380D01*
X67810238Y-109672380D01*
X67905476Y-109624761D01*
X67953095Y-109577142D01*
X68000714Y-109481904D01*
X68000714Y-109386666D01*
X67953095Y-109291428D01*
X67905476Y-109243809D01*
X67810238Y-109196190D01*
X67619761Y-109148571D01*
X67524523Y-109100952D01*
X67476904Y-109053333D01*
X67429285Y-108958095D01*
X67429285Y-108862857D01*
X67476904Y-108767619D01*
X67524523Y-108720000D01*
X67619761Y-108672380D01*
X67857857Y-108672380D01*
X68000714Y-108720000D01*
X68429285Y-109148571D02*
X68762619Y-109148571D01*
X68905476Y-109672380D02*
X68429285Y-109672380D01*
X68429285Y-108672380D01*
X68905476Y-108672380D01*
X69191190Y-108672380D02*
X69762619Y-108672380D01*
X69476904Y-109672380D02*
X69476904Y-108672380D01*
X70810238Y-109386666D02*
X71286428Y-109386666D01*
X70715000Y-109672380D02*
X71048333Y-108672380D01*
X71381666Y-109672380D01*
X72191190Y-109672380D02*
X71715000Y-109672380D01*
X71715000Y-108672380D01*
X73000714Y-109672380D02*
X72524523Y-109672380D01*
X72524523Y-108672380D01*
X69048333Y-86812380D02*
X68715000Y-86336190D01*
X68476904Y-86812380D02*
X68476904Y-85812380D01*
X68857857Y-85812380D01*
X68953095Y-85860000D01*
X69000714Y-85907619D01*
X69048333Y-86002857D01*
X69048333Y-86145714D01*
X69000714Y-86240952D01*
X68953095Y-86288571D01*
X68857857Y-86336190D01*
X68476904Y-86336190D01*
X69381666Y-85812380D02*
X70048333Y-85812380D01*
X69619761Y-86812380D01*
X69048333Y-63952380D02*
X68715000Y-63476190D01*
X68476904Y-63952380D02*
X68476904Y-62952380D01*
X68857857Y-62952380D01*
X68953095Y-63000000D01*
X69000714Y-63047619D01*
X69048333Y-63142857D01*
X69048333Y-63285714D01*
X69000714Y-63380952D01*
X68953095Y-63428571D01*
X68857857Y-63476190D01*
X68476904Y-63476190D01*
X69905476Y-62952380D02*
X69715000Y-62952380D01*
X69619761Y-63000000D01*
X69572142Y-63047619D01*
X69476904Y-63190476D01*
X69429285Y-63380952D01*
X69429285Y-63761904D01*
X69476904Y-63857142D01*
X69524523Y-63904761D01*
X69619761Y-63952380D01*
X69810238Y-63952380D01*
X69905476Y-63904761D01*
X69953095Y-63857142D01*
X70000714Y-63761904D01*
X70000714Y-63523809D01*
X69953095Y-63428571D01*
X69905476Y-63380952D01*
X69810238Y-63333333D01*
X69619761Y-63333333D01*
X69524523Y-63380952D01*
X69476904Y-63428571D01*
X69429285Y-63523809D01*
X69048333Y-75382380D02*
X68715000Y-74906190D01*
X68476904Y-75382380D02*
X68476904Y-74382380D01*
X68857857Y-74382380D01*
X68953095Y-74430000D01*
X69000714Y-74477619D01*
X69048333Y-74572857D01*
X69048333Y-74715714D01*
X69000714Y-74810952D01*
X68953095Y-74858571D01*
X68857857Y-74906190D01*
X68476904Y-74906190D01*
X69953095Y-74382380D02*
X69476904Y-74382380D01*
X69429285Y-74858571D01*
X69476904Y-74810952D01*
X69572142Y-74763333D01*
X69810238Y-74763333D01*
X69905476Y-74810952D01*
X69953095Y-74858571D01*
X70000714Y-74953809D01*
X70000714Y-75191904D01*
X69953095Y-75287142D01*
X69905476Y-75334761D01*
X69810238Y-75382380D01*
X69572142Y-75382380D01*
X69476904Y-75334761D01*
X69429285Y-75287142D01*
X63377380Y-110823333D02*
X64091666Y-110823333D01*
X64234523Y-110870952D01*
X64329761Y-110966190D01*
X64377380Y-111109047D01*
X64377380Y-111204285D01*
X63377380Y-110442380D02*
X63377380Y-109823333D01*
X63758333Y-110156666D01*
X63758333Y-110013809D01*
X63805952Y-109918571D01*
X63853571Y-109870952D01*
X63948809Y-109823333D01*
X64186904Y-109823333D01*
X64282142Y-109870952D01*
X64329761Y-109918571D01*
X64377380Y-110013809D01*
X64377380Y-110299523D01*
X64329761Y-110394761D01*
X64282142Y-110442380D01*
X51125952Y-113482380D02*
X51125952Y-112482380D01*
X51602142Y-113482380D02*
X51602142Y-112482380D01*
X52173571Y-113482380D01*
X52173571Y-112482380D01*
X52411666Y-113577619D02*
X53173571Y-113577619D01*
X53364047Y-112577619D02*
X53411666Y-112530000D01*
X53506904Y-112482380D01*
X53745000Y-112482380D01*
X53840238Y-112530000D01*
X53887857Y-112577619D01*
X53935476Y-112672857D01*
X53935476Y-112768095D01*
X53887857Y-112910952D01*
X53316428Y-113482380D01*
X53935476Y-113482380D01*
X54364047Y-112815714D02*
X54364047Y-113482380D01*
X54364047Y-112910952D02*
X54411666Y-112863333D01*
X54506904Y-112815714D01*
X54649761Y-112815714D01*
X54745000Y-112863333D01*
X54792619Y-112958571D01*
X54792619Y-113482380D01*
X55697380Y-113482380D02*
X55697380Y-112482380D01*
X55697380Y-113434761D02*
X55602142Y-113482380D01*
X55411666Y-113482380D01*
X55316428Y-113434761D01*
X55268809Y-113387142D01*
X55221190Y-113291904D01*
X55221190Y-113006190D01*
X55268809Y-112910952D01*
X55316428Y-112863333D01*
X55411666Y-112815714D01*
X55602142Y-112815714D01*
X55697380Y-112863333D01*
X55935476Y-113577619D02*
X56697380Y-113577619D01*
X57506904Y-113482380D02*
X57173571Y-113006190D01*
X56935476Y-113482380D02*
X56935476Y-112482380D01*
X57316428Y-112482380D01*
X57411666Y-112530000D01*
X57459285Y-112577619D01*
X57506904Y-112672857D01*
X57506904Y-112815714D01*
X57459285Y-112910952D01*
X57411666Y-112958571D01*
X57316428Y-113006190D01*
X56935476Y-113006190D01*
X57935476Y-112958571D02*
X58268809Y-112958571D01*
X58411666Y-113482380D02*
X57935476Y-113482380D01*
X57935476Y-112482380D01*
X58411666Y-112482380D01*
X59364047Y-112530000D02*
X59268809Y-112482380D01*
X59125952Y-112482380D01*
X58983095Y-112530000D01*
X58887857Y-112625238D01*
X58840238Y-112720476D01*
X58792619Y-112910952D01*
X58792619Y-113053809D01*
X58840238Y-113244285D01*
X58887857Y-113339523D01*
X58983095Y-113434761D01*
X59125952Y-113482380D01*
X59221190Y-113482380D01*
X59364047Y-113434761D01*
X59411666Y-113387142D01*
X59411666Y-113053809D01*
X59221190Y-113053809D01*
X46168333Y-50567142D02*
X46120714Y-50614761D01*
X45977857Y-50662380D01*
X45882619Y-50662380D01*
X45739761Y-50614761D01*
X45644523Y-50519523D01*
X45596904Y-50424285D01*
X45549285Y-50233809D01*
X45549285Y-50090952D01*
X45596904Y-49900476D01*
X45644523Y-49805238D01*
X45739761Y-49710000D01*
X45882619Y-49662380D01*
X45977857Y-49662380D01*
X46120714Y-49710000D01*
X46168333Y-49757619D01*
X46501666Y-49662380D02*
X47120714Y-49662380D01*
X46787380Y-50043333D01*
X46930238Y-50043333D01*
X47025476Y-50090952D01*
X47073095Y-50138571D01*
X47120714Y-50233809D01*
X47120714Y-50471904D01*
X47073095Y-50567142D01*
X47025476Y-50614761D01*
X46930238Y-50662380D01*
X46644523Y-50662380D01*
X46549285Y-50614761D01*
X46501666Y-50567142D01*
X37552380Y-44418095D02*
X38361904Y-44418095D01*
X38457142Y-44370476D01*
X38504761Y-44322857D01*
X38552380Y-44227619D01*
X38552380Y-44037142D01*
X38504761Y-43941904D01*
X38457142Y-43894285D01*
X38361904Y-43846666D01*
X37552380Y-43846666D01*
X37647619Y-43418095D02*
X37600000Y-43370476D01*
X37552380Y-43275238D01*
X37552380Y-43037142D01*
X37600000Y-42941904D01*
X37647619Y-42894285D01*
X37742857Y-42846666D01*
X37838095Y-42846666D01*
X37980952Y-42894285D01*
X38552380Y-43465714D01*
X38552380Y-42846666D01*
X38552380Y-41894285D02*
X38552380Y-42465714D01*
X38552380Y-42180000D02*
X37552380Y-42180000D01*
X37695238Y-42275238D01*
X37790476Y-42370476D01*
X37838095Y-42465714D01*
X44537380Y-47251428D02*
X44537380Y-46584761D01*
X45537380Y-47013333D01*
X44870714Y-45775238D02*
X45537380Y-45775238D01*
X44489761Y-46013333D02*
X45204047Y-46251428D01*
X45204047Y-45632380D01*
X45537380Y-44775238D02*
X45537380Y-45251428D01*
X44537380Y-45251428D01*
X44537380Y-44584761D02*
X45537380Y-44251428D01*
X44537380Y-43918095D01*
X45442142Y-43013333D02*
X45489761Y-43060952D01*
X45537380Y-43203809D01*
X45537380Y-43299047D01*
X45489761Y-43441904D01*
X45394523Y-43537142D01*
X45299285Y-43584761D01*
X45108809Y-43632380D01*
X44965952Y-43632380D01*
X44775476Y-43584761D01*
X44680238Y-43537142D01*
X44585000Y-43441904D01*
X44537380Y-43299047D01*
X44537380Y-43203809D01*
X44585000Y-43060952D01*
X44632619Y-43013333D01*
X44632619Y-42632380D02*
X44585000Y-42584761D01*
X44537380Y-42489523D01*
X44537380Y-42251428D01*
X44585000Y-42156190D01*
X44632619Y-42108571D01*
X44727857Y-42060952D01*
X44823095Y-42060952D01*
X44965952Y-42108571D01*
X45537380Y-42680000D01*
X45537380Y-42060952D01*
X44585000Y-41108571D02*
X44537380Y-41203809D01*
X44537380Y-41346666D01*
X44585000Y-41489523D01*
X44680238Y-41584761D01*
X44775476Y-41632380D01*
X44965952Y-41680000D01*
X45108809Y-41680000D01*
X45299285Y-41632380D01*
X45394523Y-41584761D01*
X45489761Y-41489523D01*
X45537380Y-41346666D01*
X45537380Y-41251428D01*
X45489761Y-41108571D01*
X45442142Y-41060952D01*
X45108809Y-41060952D01*
X45108809Y-41251428D01*
X44965952Y-40489523D02*
X44918333Y-40584761D01*
X44870714Y-40632380D01*
X44775476Y-40680000D01*
X44727857Y-40680000D01*
X44632619Y-40632380D01*
X44585000Y-40584761D01*
X44537380Y-40489523D01*
X44537380Y-40299047D01*
X44585000Y-40203809D01*
X44632619Y-40156190D01*
X44727857Y-40108571D01*
X44775476Y-40108571D01*
X44870714Y-40156190D01*
X44918333Y-40203809D01*
X44965952Y-40299047D01*
X44965952Y-40489523D01*
X45013571Y-40584761D01*
X45061190Y-40632380D01*
X45156428Y-40680000D01*
X45346904Y-40680000D01*
X45442142Y-40632380D01*
X45489761Y-40584761D01*
X45537380Y-40489523D01*
X45537380Y-40299047D01*
X45489761Y-40203809D01*
X45442142Y-40156190D01*
X45346904Y-40108571D01*
X45156428Y-40108571D01*
X45061190Y-40156190D01*
X45013571Y-40203809D01*
X44965952Y-40299047D01*
X44537380Y-39251428D02*
X44537380Y-39441904D01*
X44585000Y-39537142D01*
X44632619Y-39584761D01*
X44775476Y-39680000D01*
X44965952Y-39727619D01*
X45346904Y-39727619D01*
X45442142Y-39680000D01*
X45489761Y-39632380D01*
X45537380Y-39537142D01*
X45537380Y-39346666D01*
X45489761Y-39251428D01*
X45442142Y-39203809D01*
X45346904Y-39156190D01*
X45108809Y-39156190D01*
X45013571Y-39203809D01*
X44965952Y-39251428D01*
X44918333Y-39346666D01*
X44918333Y-39537142D01*
X44965952Y-39632380D01*
X45013571Y-39680000D01*
X45108809Y-39727619D01*
X139889761Y-97329523D02*
X139937380Y-97186666D01*
X139937380Y-96948571D01*
X139889761Y-96853333D01*
X139842142Y-96805714D01*
X139746904Y-96758095D01*
X139651666Y-96758095D01*
X139556428Y-96805714D01*
X139508809Y-96853333D01*
X139461190Y-96948571D01*
X139413571Y-97139047D01*
X139365952Y-97234285D01*
X139318333Y-97281904D01*
X139223095Y-97329523D01*
X139127857Y-97329523D01*
X139032619Y-97281904D01*
X138985000Y-97234285D01*
X138937380Y-97139047D01*
X138937380Y-96900952D01*
X138985000Y-96758095D01*
X138937380Y-96424761D02*
X139937380Y-96186666D01*
X139223095Y-95996190D01*
X139937380Y-95805714D01*
X138937380Y-95567619D01*
X139032619Y-95234285D02*
X138985000Y-95186666D01*
X138937380Y-95091428D01*
X138937380Y-94853333D01*
X138985000Y-94758095D01*
X139032619Y-94710476D01*
X139127857Y-94662857D01*
X139223095Y-94662857D01*
X139365952Y-94710476D01*
X139937380Y-95281904D01*
X139937380Y-94662857D01*
X138937380Y-93758095D02*
X138937380Y-94234285D01*
X139413571Y-94281904D01*
X139365952Y-94234285D01*
X139318333Y-94139047D01*
X139318333Y-93900952D01*
X139365952Y-93805714D01*
X139413571Y-93758095D01*
X139508809Y-93710476D01*
X139746904Y-93710476D01*
X139842142Y-93758095D01*
X139889761Y-93805714D01*
X139937380Y-93900952D01*
X139937380Y-94139047D01*
X139889761Y-94234285D01*
X139842142Y-94281904D01*
X125919761Y-97329523D02*
X125967380Y-97186666D01*
X125967380Y-96948571D01*
X125919761Y-96853333D01*
X125872142Y-96805714D01*
X125776904Y-96758095D01*
X125681666Y-96758095D01*
X125586428Y-96805714D01*
X125538809Y-96853333D01*
X125491190Y-96948571D01*
X125443571Y-97139047D01*
X125395952Y-97234285D01*
X125348333Y-97281904D01*
X125253095Y-97329523D01*
X125157857Y-97329523D01*
X125062619Y-97281904D01*
X125015000Y-97234285D01*
X124967380Y-97139047D01*
X124967380Y-96900952D01*
X125015000Y-96758095D01*
X124967380Y-96424761D02*
X125967380Y-96186666D01*
X125253095Y-95996190D01*
X125967380Y-95805714D01*
X124967380Y-95567619D01*
X125062619Y-95234285D02*
X125015000Y-95186666D01*
X124967380Y-95091428D01*
X124967380Y-94853333D01*
X125015000Y-94758095D01*
X125062619Y-94710476D01*
X125157857Y-94662857D01*
X125253095Y-94662857D01*
X125395952Y-94710476D01*
X125967380Y-95281904D01*
X125967380Y-94662857D01*
X125300714Y-93805714D02*
X125967380Y-93805714D01*
X124919761Y-94043809D02*
X125634047Y-94281904D01*
X125634047Y-93662857D01*
X111949761Y-97329523D02*
X111997380Y-97186666D01*
X111997380Y-96948571D01*
X111949761Y-96853333D01*
X111902142Y-96805714D01*
X111806904Y-96758095D01*
X111711666Y-96758095D01*
X111616428Y-96805714D01*
X111568809Y-96853333D01*
X111521190Y-96948571D01*
X111473571Y-97139047D01*
X111425952Y-97234285D01*
X111378333Y-97281904D01*
X111283095Y-97329523D01*
X111187857Y-97329523D01*
X111092619Y-97281904D01*
X111045000Y-97234285D01*
X110997380Y-97139047D01*
X110997380Y-96900952D01*
X111045000Y-96758095D01*
X110997380Y-96424761D02*
X111997380Y-96186666D01*
X111283095Y-95996190D01*
X111997380Y-95805714D01*
X110997380Y-95567619D01*
X111092619Y-95234285D02*
X111045000Y-95186666D01*
X110997380Y-95091428D01*
X110997380Y-94853333D01*
X111045000Y-94758095D01*
X111092619Y-94710476D01*
X111187857Y-94662857D01*
X111283095Y-94662857D01*
X111425952Y-94710476D01*
X111997380Y-95281904D01*
X111997380Y-94662857D01*
X110997380Y-94329523D02*
X110997380Y-93710476D01*
X111378333Y-94043809D01*
X111378333Y-93900952D01*
X111425952Y-93805714D01*
X111473571Y-93758095D01*
X111568809Y-93710476D01*
X111806904Y-93710476D01*
X111902142Y-93758095D01*
X111949761Y-93805714D01*
X111997380Y-93900952D01*
X111997380Y-94186666D01*
X111949761Y-94281904D01*
X111902142Y-94329523D01*
X97979761Y-97329523D02*
X98027380Y-97186666D01*
X98027380Y-96948571D01*
X97979761Y-96853333D01*
X97932142Y-96805714D01*
X97836904Y-96758095D01*
X97741666Y-96758095D01*
X97646428Y-96805714D01*
X97598809Y-96853333D01*
X97551190Y-96948571D01*
X97503571Y-97139047D01*
X97455952Y-97234285D01*
X97408333Y-97281904D01*
X97313095Y-97329523D01*
X97217857Y-97329523D01*
X97122619Y-97281904D01*
X97075000Y-97234285D01*
X97027380Y-97139047D01*
X97027380Y-96900952D01*
X97075000Y-96758095D01*
X97027380Y-96424761D02*
X98027380Y-96186666D01*
X97313095Y-95996190D01*
X98027380Y-95805714D01*
X97027380Y-95567619D01*
X97122619Y-95234285D02*
X97075000Y-95186666D01*
X97027380Y-95091428D01*
X97027380Y-94853333D01*
X97075000Y-94758095D01*
X97122619Y-94710476D01*
X97217857Y-94662857D01*
X97313095Y-94662857D01*
X97455952Y-94710476D01*
X98027380Y-95281904D01*
X98027380Y-94662857D01*
X97122619Y-94281904D02*
X97075000Y-94234285D01*
X97027380Y-94139047D01*
X97027380Y-93900952D01*
X97075000Y-93805714D01*
X97122619Y-93758095D01*
X97217857Y-93710476D01*
X97313095Y-93710476D01*
X97455952Y-93758095D01*
X98027380Y-94329523D01*
X98027380Y-93710476D01*
X139889761Y-80819523D02*
X139937380Y-80676666D01*
X139937380Y-80438571D01*
X139889761Y-80343333D01*
X139842142Y-80295714D01*
X139746904Y-80248095D01*
X139651666Y-80248095D01*
X139556428Y-80295714D01*
X139508809Y-80343333D01*
X139461190Y-80438571D01*
X139413571Y-80629047D01*
X139365952Y-80724285D01*
X139318333Y-80771904D01*
X139223095Y-80819523D01*
X139127857Y-80819523D01*
X139032619Y-80771904D01*
X138985000Y-80724285D01*
X138937380Y-80629047D01*
X138937380Y-80390952D01*
X138985000Y-80248095D01*
X138937380Y-79914761D02*
X139937380Y-79676666D01*
X139223095Y-79486190D01*
X139937380Y-79295714D01*
X138937380Y-79057619D01*
X139032619Y-78724285D02*
X138985000Y-78676666D01*
X138937380Y-78581428D01*
X138937380Y-78343333D01*
X138985000Y-78248095D01*
X139032619Y-78200476D01*
X139127857Y-78152857D01*
X139223095Y-78152857D01*
X139365952Y-78200476D01*
X139937380Y-78771904D01*
X139937380Y-78152857D01*
X139937380Y-77200476D02*
X139937380Y-77771904D01*
X139937380Y-77486190D02*
X138937380Y-77486190D01*
X139080238Y-77581428D01*
X139175476Y-77676666D01*
X139223095Y-77771904D01*
X125919761Y-80819523D02*
X125967380Y-80676666D01*
X125967380Y-80438571D01*
X125919761Y-80343333D01*
X125872142Y-80295714D01*
X125776904Y-80248095D01*
X125681666Y-80248095D01*
X125586428Y-80295714D01*
X125538809Y-80343333D01*
X125491190Y-80438571D01*
X125443571Y-80629047D01*
X125395952Y-80724285D01*
X125348333Y-80771904D01*
X125253095Y-80819523D01*
X125157857Y-80819523D01*
X125062619Y-80771904D01*
X125015000Y-80724285D01*
X124967380Y-80629047D01*
X124967380Y-80390952D01*
X125015000Y-80248095D01*
X124967380Y-79914761D02*
X125967380Y-79676666D01*
X125253095Y-79486190D01*
X125967380Y-79295714D01*
X124967380Y-79057619D01*
X125062619Y-78724285D02*
X125015000Y-78676666D01*
X124967380Y-78581428D01*
X124967380Y-78343333D01*
X125015000Y-78248095D01*
X125062619Y-78200476D01*
X125157857Y-78152857D01*
X125253095Y-78152857D01*
X125395952Y-78200476D01*
X125967380Y-78771904D01*
X125967380Y-78152857D01*
X124967380Y-77533809D02*
X124967380Y-77438571D01*
X125015000Y-77343333D01*
X125062619Y-77295714D01*
X125157857Y-77248095D01*
X125348333Y-77200476D01*
X125586428Y-77200476D01*
X125776904Y-77248095D01*
X125872142Y-77295714D01*
X125919761Y-77343333D01*
X125967380Y-77438571D01*
X125967380Y-77533809D01*
X125919761Y-77629047D01*
X125872142Y-77676666D01*
X125776904Y-77724285D01*
X125586428Y-77771904D01*
X125348333Y-77771904D01*
X125157857Y-77724285D01*
X125062619Y-77676666D01*
X125015000Y-77629047D01*
X124967380Y-77533809D01*
X111949761Y-80819523D02*
X111997380Y-80676666D01*
X111997380Y-80438571D01*
X111949761Y-80343333D01*
X111902142Y-80295714D01*
X111806904Y-80248095D01*
X111711666Y-80248095D01*
X111616428Y-80295714D01*
X111568809Y-80343333D01*
X111521190Y-80438571D01*
X111473571Y-80629047D01*
X111425952Y-80724285D01*
X111378333Y-80771904D01*
X111283095Y-80819523D01*
X111187857Y-80819523D01*
X111092619Y-80771904D01*
X111045000Y-80724285D01*
X110997380Y-80629047D01*
X110997380Y-80390952D01*
X111045000Y-80248095D01*
X110997380Y-79914761D02*
X111997380Y-79676666D01*
X111283095Y-79486190D01*
X111997380Y-79295714D01*
X110997380Y-79057619D01*
X111997380Y-78152857D02*
X111997380Y-78724285D01*
X111997380Y-78438571D02*
X110997380Y-78438571D01*
X111140238Y-78533809D01*
X111235476Y-78629047D01*
X111283095Y-78724285D01*
X111997380Y-77676666D02*
X111997380Y-77486190D01*
X111949761Y-77390952D01*
X111902142Y-77343333D01*
X111759285Y-77248095D01*
X111568809Y-77200476D01*
X111187857Y-77200476D01*
X111092619Y-77248095D01*
X111045000Y-77295714D01*
X110997380Y-77390952D01*
X110997380Y-77581428D01*
X111045000Y-77676666D01*
X111092619Y-77724285D01*
X111187857Y-77771904D01*
X111425952Y-77771904D01*
X111521190Y-77724285D01*
X111568809Y-77676666D01*
X111616428Y-77581428D01*
X111616428Y-77390952D01*
X111568809Y-77295714D01*
X111521190Y-77248095D01*
X111425952Y-77200476D01*
X97979761Y-80819523D02*
X98027380Y-80676666D01*
X98027380Y-80438571D01*
X97979761Y-80343333D01*
X97932142Y-80295714D01*
X97836904Y-80248095D01*
X97741666Y-80248095D01*
X97646428Y-80295714D01*
X97598809Y-80343333D01*
X97551190Y-80438571D01*
X97503571Y-80629047D01*
X97455952Y-80724285D01*
X97408333Y-80771904D01*
X97313095Y-80819523D01*
X97217857Y-80819523D01*
X97122619Y-80771904D01*
X97075000Y-80724285D01*
X97027380Y-80629047D01*
X97027380Y-80390952D01*
X97075000Y-80248095D01*
X97027380Y-79914761D02*
X98027380Y-79676666D01*
X97313095Y-79486190D01*
X98027380Y-79295714D01*
X97027380Y-79057619D01*
X98027380Y-78152857D02*
X98027380Y-78724285D01*
X98027380Y-78438571D02*
X97027380Y-78438571D01*
X97170238Y-78533809D01*
X97265476Y-78629047D01*
X97313095Y-78724285D01*
X97455952Y-77581428D02*
X97408333Y-77676666D01*
X97360714Y-77724285D01*
X97265476Y-77771904D01*
X97217857Y-77771904D01*
X97122619Y-77724285D01*
X97075000Y-77676666D01*
X97027380Y-77581428D01*
X97027380Y-77390952D01*
X97075000Y-77295714D01*
X97122619Y-77248095D01*
X97217857Y-77200476D01*
X97265476Y-77200476D01*
X97360714Y-77248095D01*
X97408333Y-77295714D01*
X97455952Y-77390952D01*
X97455952Y-77581428D01*
X97503571Y-77676666D01*
X97551190Y-77724285D01*
X97646428Y-77771904D01*
X97836904Y-77771904D01*
X97932142Y-77724285D01*
X97979761Y-77676666D01*
X98027380Y-77581428D01*
X98027380Y-77390952D01*
X97979761Y-77295714D01*
X97932142Y-77248095D01*
X97836904Y-77200476D01*
X97646428Y-77200476D01*
X97551190Y-77248095D01*
X97503571Y-77295714D01*
X97455952Y-77390952D01*
X139889761Y-64309523D02*
X139937380Y-64166666D01*
X139937380Y-63928571D01*
X139889761Y-63833333D01*
X139842142Y-63785714D01*
X139746904Y-63738095D01*
X139651666Y-63738095D01*
X139556428Y-63785714D01*
X139508809Y-63833333D01*
X139461190Y-63928571D01*
X139413571Y-64119047D01*
X139365952Y-64214285D01*
X139318333Y-64261904D01*
X139223095Y-64309523D01*
X139127857Y-64309523D01*
X139032619Y-64261904D01*
X138985000Y-64214285D01*
X138937380Y-64119047D01*
X138937380Y-63880952D01*
X138985000Y-63738095D01*
X138937380Y-63404761D02*
X139937380Y-63166666D01*
X139223095Y-62976190D01*
X139937380Y-62785714D01*
X138937380Y-62547619D01*
X139937380Y-61642857D02*
X139937380Y-62214285D01*
X139937380Y-61928571D02*
X138937380Y-61928571D01*
X139080238Y-62023809D01*
X139175476Y-62119047D01*
X139223095Y-62214285D01*
X138937380Y-61309523D02*
X138937380Y-60642857D01*
X139937380Y-61071428D01*
X125919761Y-64309523D02*
X125967380Y-64166666D01*
X125967380Y-63928571D01*
X125919761Y-63833333D01*
X125872142Y-63785714D01*
X125776904Y-63738095D01*
X125681666Y-63738095D01*
X125586428Y-63785714D01*
X125538809Y-63833333D01*
X125491190Y-63928571D01*
X125443571Y-64119047D01*
X125395952Y-64214285D01*
X125348333Y-64261904D01*
X125253095Y-64309523D01*
X125157857Y-64309523D01*
X125062619Y-64261904D01*
X125015000Y-64214285D01*
X124967380Y-64119047D01*
X124967380Y-63880952D01*
X125015000Y-63738095D01*
X124967380Y-63404761D02*
X125967380Y-63166666D01*
X125253095Y-62976190D01*
X125967380Y-62785714D01*
X124967380Y-62547619D01*
X125967380Y-61642857D02*
X125967380Y-62214285D01*
X125967380Y-61928571D02*
X124967380Y-61928571D01*
X125110238Y-62023809D01*
X125205476Y-62119047D01*
X125253095Y-62214285D01*
X124967380Y-60785714D02*
X124967380Y-60976190D01*
X125015000Y-61071428D01*
X125062619Y-61119047D01*
X125205476Y-61214285D01*
X125395952Y-61261904D01*
X125776904Y-61261904D01*
X125872142Y-61214285D01*
X125919761Y-61166666D01*
X125967380Y-61071428D01*
X125967380Y-60880952D01*
X125919761Y-60785714D01*
X125872142Y-60738095D01*
X125776904Y-60690476D01*
X125538809Y-60690476D01*
X125443571Y-60738095D01*
X125395952Y-60785714D01*
X125348333Y-60880952D01*
X125348333Y-61071428D01*
X125395952Y-61166666D01*
X125443571Y-61214285D01*
X125538809Y-61261904D01*
X111949761Y-64309523D02*
X111997380Y-64166666D01*
X111997380Y-63928571D01*
X111949761Y-63833333D01*
X111902142Y-63785714D01*
X111806904Y-63738095D01*
X111711666Y-63738095D01*
X111616428Y-63785714D01*
X111568809Y-63833333D01*
X111521190Y-63928571D01*
X111473571Y-64119047D01*
X111425952Y-64214285D01*
X111378333Y-64261904D01*
X111283095Y-64309523D01*
X111187857Y-64309523D01*
X111092619Y-64261904D01*
X111045000Y-64214285D01*
X110997380Y-64119047D01*
X110997380Y-63880952D01*
X111045000Y-63738095D01*
X110997380Y-63404761D02*
X111997380Y-63166666D01*
X111283095Y-62976190D01*
X111997380Y-62785714D01*
X110997380Y-62547619D01*
X111997380Y-61642857D02*
X111997380Y-62214285D01*
X111997380Y-61928571D02*
X110997380Y-61928571D01*
X111140238Y-62023809D01*
X111235476Y-62119047D01*
X111283095Y-62214285D01*
X110997380Y-60738095D02*
X110997380Y-61214285D01*
X111473571Y-61261904D01*
X111425952Y-61214285D01*
X111378333Y-61119047D01*
X111378333Y-60880952D01*
X111425952Y-60785714D01*
X111473571Y-60738095D01*
X111568809Y-60690476D01*
X111806904Y-60690476D01*
X111902142Y-60738095D01*
X111949761Y-60785714D01*
X111997380Y-60880952D01*
X111997380Y-61119047D01*
X111949761Y-61214285D01*
X111902142Y-61261904D01*
X97979761Y-64309523D02*
X98027380Y-64166666D01*
X98027380Y-63928571D01*
X97979761Y-63833333D01*
X97932142Y-63785714D01*
X97836904Y-63738095D01*
X97741666Y-63738095D01*
X97646428Y-63785714D01*
X97598809Y-63833333D01*
X97551190Y-63928571D01*
X97503571Y-64119047D01*
X97455952Y-64214285D01*
X97408333Y-64261904D01*
X97313095Y-64309523D01*
X97217857Y-64309523D01*
X97122619Y-64261904D01*
X97075000Y-64214285D01*
X97027380Y-64119047D01*
X97027380Y-63880952D01*
X97075000Y-63738095D01*
X97027380Y-63404761D02*
X98027380Y-63166666D01*
X97313095Y-62976190D01*
X98027380Y-62785714D01*
X97027380Y-62547619D01*
X98027380Y-61642857D02*
X98027380Y-62214285D01*
X98027380Y-61928571D02*
X97027380Y-61928571D01*
X97170238Y-62023809D01*
X97265476Y-62119047D01*
X97313095Y-62214285D01*
X97360714Y-60785714D02*
X98027380Y-60785714D01*
X96979761Y-61023809D02*
X97694047Y-61261904D01*
X97694047Y-60642857D01*
X139889761Y-47799523D02*
X139937380Y-47656666D01*
X139937380Y-47418571D01*
X139889761Y-47323333D01*
X139842142Y-47275714D01*
X139746904Y-47228095D01*
X139651666Y-47228095D01*
X139556428Y-47275714D01*
X139508809Y-47323333D01*
X139461190Y-47418571D01*
X139413571Y-47609047D01*
X139365952Y-47704285D01*
X139318333Y-47751904D01*
X139223095Y-47799523D01*
X139127857Y-47799523D01*
X139032619Y-47751904D01*
X138985000Y-47704285D01*
X138937380Y-47609047D01*
X138937380Y-47370952D01*
X138985000Y-47228095D01*
X138937380Y-46894761D02*
X139937380Y-46656666D01*
X139223095Y-46466190D01*
X139937380Y-46275714D01*
X138937380Y-46037619D01*
X139937380Y-45132857D02*
X139937380Y-45704285D01*
X139937380Y-45418571D02*
X138937380Y-45418571D01*
X139080238Y-45513809D01*
X139175476Y-45609047D01*
X139223095Y-45704285D01*
X138937380Y-44799523D02*
X138937380Y-44180476D01*
X139318333Y-44513809D01*
X139318333Y-44370952D01*
X139365952Y-44275714D01*
X139413571Y-44228095D01*
X139508809Y-44180476D01*
X139746904Y-44180476D01*
X139842142Y-44228095D01*
X139889761Y-44275714D01*
X139937380Y-44370952D01*
X139937380Y-44656666D01*
X139889761Y-44751904D01*
X139842142Y-44799523D01*
X125919761Y-47799523D02*
X125967380Y-47656666D01*
X125967380Y-47418571D01*
X125919761Y-47323333D01*
X125872142Y-47275714D01*
X125776904Y-47228095D01*
X125681666Y-47228095D01*
X125586428Y-47275714D01*
X125538809Y-47323333D01*
X125491190Y-47418571D01*
X125443571Y-47609047D01*
X125395952Y-47704285D01*
X125348333Y-47751904D01*
X125253095Y-47799523D01*
X125157857Y-47799523D01*
X125062619Y-47751904D01*
X125015000Y-47704285D01*
X124967380Y-47609047D01*
X124967380Y-47370952D01*
X125015000Y-47228095D01*
X124967380Y-46894761D02*
X125967380Y-46656666D01*
X125253095Y-46466190D01*
X125967380Y-46275714D01*
X124967380Y-46037619D01*
X125967380Y-45132857D02*
X125967380Y-45704285D01*
X125967380Y-45418571D02*
X124967380Y-45418571D01*
X125110238Y-45513809D01*
X125205476Y-45609047D01*
X125253095Y-45704285D01*
X125062619Y-44751904D02*
X125015000Y-44704285D01*
X124967380Y-44609047D01*
X124967380Y-44370952D01*
X125015000Y-44275714D01*
X125062619Y-44228095D01*
X125157857Y-44180476D01*
X125253095Y-44180476D01*
X125395952Y-44228095D01*
X125967380Y-44799523D01*
X125967380Y-44180476D01*
X111949761Y-47799523D02*
X111997380Y-47656666D01*
X111997380Y-47418571D01*
X111949761Y-47323333D01*
X111902142Y-47275714D01*
X111806904Y-47228095D01*
X111711666Y-47228095D01*
X111616428Y-47275714D01*
X111568809Y-47323333D01*
X111521190Y-47418571D01*
X111473571Y-47609047D01*
X111425952Y-47704285D01*
X111378333Y-47751904D01*
X111283095Y-47799523D01*
X111187857Y-47799523D01*
X111092619Y-47751904D01*
X111045000Y-47704285D01*
X110997380Y-47609047D01*
X110997380Y-47370952D01*
X111045000Y-47228095D01*
X110997380Y-46894761D02*
X111997380Y-46656666D01*
X111283095Y-46466190D01*
X111997380Y-46275714D01*
X110997380Y-46037619D01*
X111997380Y-45132857D02*
X111997380Y-45704285D01*
X111997380Y-45418571D02*
X110997380Y-45418571D01*
X111140238Y-45513809D01*
X111235476Y-45609047D01*
X111283095Y-45704285D01*
X111997380Y-44180476D02*
X111997380Y-44751904D01*
X111997380Y-44466190D02*
X110997380Y-44466190D01*
X111140238Y-44561428D01*
X111235476Y-44656666D01*
X111283095Y-44751904D01*
X97979761Y-47799523D02*
X98027380Y-47656666D01*
X98027380Y-47418571D01*
X97979761Y-47323333D01*
X97932142Y-47275714D01*
X97836904Y-47228095D01*
X97741666Y-47228095D01*
X97646428Y-47275714D01*
X97598809Y-47323333D01*
X97551190Y-47418571D01*
X97503571Y-47609047D01*
X97455952Y-47704285D01*
X97408333Y-47751904D01*
X97313095Y-47799523D01*
X97217857Y-47799523D01*
X97122619Y-47751904D01*
X97075000Y-47704285D01*
X97027380Y-47609047D01*
X97027380Y-47370952D01*
X97075000Y-47228095D01*
X97027380Y-46894761D02*
X98027380Y-46656666D01*
X97313095Y-46466190D01*
X98027380Y-46275714D01*
X97027380Y-46037619D01*
X98027380Y-45132857D02*
X98027380Y-45704285D01*
X98027380Y-45418571D02*
X97027380Y-45418571D01*
X97170238Y-45513809D01*
X97265476Y-45609047D01*
X97313095Y-45704285D01*
X97027380Y-44513809D02*
X97027380Y-44418571D01*
X97075000Y-44323333D01*
X97122619Y-44275714D01*
X97217857Y-44228095D01*
X97408333Y-44180476D01*
X97646428Y-44180476D01*
X97836904Y-44228095D01*
X97932142Y-44275714D01*
X97979761Y-44323333D01*
X98027380Y-44418571D01*
X98027380Y-44513809D01*
X97979761Y-44609047D01*
X97932142Y-44656666D01*
X97836904Y-44704285D01*
X97646428Y-44751904D01*
X97408333Y-44751904D01*
X97217857Y-44704285D01*
X97122619Y-44656666D01*
X97075000Y-44609047D01*
X97027380Y-44513809D01*
X61682380Y-102838095D02*
X62491904Y-102838095D01*
X62587142Y-102790476D01*
X62634761Y-102742857D01*
X62682380Y-102647619D01*
X62682380Y-102457142D01*
X62634761Y-102361904D01*
X62587142Y-102314285D01*
X62491904Y-102266666D01*
X61682380Y-102266666D01*
X61682380Y-101885714D02*
X61682380Y-101266666D01*
X62063333Y-101600000D01*
X62063333Y-101457142D01*
X62110952Y-101361904D01*
X62158571Y-101314285D01*
X62253809Y-101266666D01*
X62491904Y-101266666D01*
X62587142Y-101314285D01*
X62634761Y-101361904D01*
X62682380Y-101457142D01*
X62682380Y-101742857D01*
X62634761Y-101838095D01*
X62587142Y-101885714D01*
X61682380Y-100933333D02*
X61682380Y-100314285D01*
X62063333Y-100647619D01*
X62063333Y-100504761D01*
X62110952Y-100409523D01*
X62158571Y-100361904D01*
X62253809Y-100314285D01*
X62491904Y-100314285D01*
X62587142Y-100361904D01*
X62634761Y-100409523D01*
X62682380Y-100504761D01*
X62682380Y-100790476D01*
X62634761Y-100885714D01*
X62587142Y-100933333D01*
X47680952Y-101052380D02*
X48347619Y-101052380D01*
X47919047Y-102052380D01*
X49157142Y-101385714D02*
X49157142Y-102052380D01*
X48919047Y-101004761D02*
X48680952Y-101719047D01*
X49300000Y-101719047D01*
X50157142Y-102052380D02*
X49680952Y-102052380D01*
X49680952Y-101052380D01*
X50442857Y-102004761D02*
X50585714Y-102052380D01*
X50823809Y-102052380D01*
X50919047Y-102004761D01*
X50966666Y-101957142D01*
X51014285Y-101861904D01*
X51014285Y-101766666D01*
X50966666Y-101671428D01*
X50919047Y-101623809D01*
X50823809Y-101576190D01*
X50633333Y-101528571D01*
X50538095Y-101480952D01*
X50490476Y-101433333D01*
X50442857Y-101338095D01*
X50442857Y-101242857D01*
X50490476Y-101147619D01*
X50538095Y-101100000D01*
X50633333Y-101052380D01*
X50871428Y-101052380D01*
X51014285Y-101100000D01*
X51966666Y-102052380D02*
X51395238Y-102052380D01*
X51680952Y-102052380D02*
X51680952Y-101052380D01*
X51585714Y-101195238D01*
X51490476Y-101290476D01*
X51395238Y-101338095D01*
X52300000Y-101052380D02*
X52966666Y-101052380D01*
X52538095Y-102052380D01*
X53252380Y-101052380D02*
X53871428Y-101052380D01*
X53538095Y-101433333D01*
X53680952Y-101433333D01*
X53776190Y-101480952D01*
X53823809Y-101528571D01*
X53871428Y-101623809D01*
X53871428Y-101861904D01*
X53823809Y-101957142D01*
X53776190Y-102004761D01*
X53680952Y-102052380D01*
X53395238Y-102052380D01*
X53300000Y-102004761D01*
X53252380Y-101957142D01*
X42576904Y-59352380D02*
X42576904Y-60161904D01*
X42624523Y-60257142D01*
X42672142Y-60304761D01*
X42767380Y-60352380D01*
X42957857Y-60352380D01*
X43053095Y-60304761D01*
X43100714Y-60257142D01*
X43148333Y-60161904D01*
X43148333Y-59352380D01*
X43529285Y-59352380D02*
X44148333Y-59352380D01*
X43815000Y-59733333D01*
X43957857Y-59733333D01*
X44053095Y-59780952D01*
X44100714Y-59828571D01*
X44148333Y-59923809D01*
X44148333Y-60161904D01*
X44100714Y-60257142D01*
X44053095Y-60304761D01*
X43957857Y-60352380D01*
X43672142Y-60352380D01*
X43576904Y-60304761D01*
X43529285Y-60257142D01*
X44529285Y-59447619D02*
X44576904Y-59400000D01*
X44672142Y-59352380D01*
X44910238Y-59352380D01*
X45005476Y-59400000D01*
X45053095Y-59447619D01*
X45100714Y-59542857D01*
X45100714Y-59638095D01*
X45053095Y-59780952D01*
X44481666Y-60352380D01*
X45100714Y-60352380D01*
X43267380Y-74239047D02*
X43267380Y-73572380D01*
X44267380Y-74000952D01*
X43600714Y-72762857D02*
X44267380Y-72762857D01*
X43219761Y-73000952D02*
X43934047Y-73239047D01*
X43934047Y-72620000D01*
X44267380Y-71762857D02*
X44267380Y-72239047D01*
X43267380Y-72239047D01*
X44219761Y-71477142D02*
X44267380Y-71334285D01*
X44267380Y-71096190D01*
X44219761Y-71000952D01*
X44172142Y-70953333D01*
X44076904Y-70905714D01*
X43981666Y-70905714D01*
X43886428Y-70953333D01*
X43838809Y-71000952D01*
X43791190Y-71096190D01*
X43743571Y-71286666D01*
X43695952Y-71381904D01*
X43648333Y-71429523D01*
X43553095Y-71477142D01*
X43457857Y-71477142D01*
X43362619Y-71429523D01*
X43315000Y-71381904D01*
X43267380Y-71286666D01*
X43267380Y-71048571D01*
X43315000Y-70905714D01*
X44267380Y-69953333D02*
X44267380Y-70524761D01*
X44267380Y-70239047D02*
X43267380Y-70239047D01*
X43410238Y-70334285D01*
X43505476Y-70429523D01*
X43553095Y-70524761D01*
X43267380Y-69620000D02*
X43267380Y-68953333D01*
X44267380Y-69381904D01*
X43267380Y-68667619D02*
X43267380Y-68048571D01*
X43648333Y-68381904D01*
X43648333Y-68239047D01*
X43695952Y-68143809D01*
X43743571Y-68096190D01*
X43838809Y-68048571D01*
X44076904Y-68048571D01*
X44172142Y-68096190D01*
X44219761Y-68143809D01*
X44267380Y-68239047D01*
X44267380Y-68524761D01*
X44219761Y-68620000D01*
X44172142Y-68667619D01*
X54641904Y-56602380D02*
X54641904Y-57411904D01*
X54689523Y-57507142D01*
X54737142Y-57554761D01*
X54832380Y-57602380D01*
X55022857Y-57602380D01*
X55118095Y-57554761D01*
X55165714Y-57507142D01*
X55213333Y-57411904D01*
X55213333Y-56602380D01*
X55594285Y-56602380D02*
X56213333Y-56602380D01*
X55880000Y-56983333D01*
X56022857Y-56983333D01*
X56118095Y-57030952D01*
X56165714Y-57078571D01*
X56213333Y-57173809D01*
X56213333Y-57411904D01*
X56165714Y-57507142D01*
X56118095Y-57554761D01*
X56022857Y-57602380D01*
X55737142Y-57602380D01*
X55641904Y-57554761D01*
X55594285Y-57507142D01*
X57165714Y-57602380D02*
X56594285Y-57602380D01*
X56880000Y-57602380D02*
X56880000Y-56602380D01*
X56784761Y-56745238D01*
X56689523Y-56840476D01*
X56594285Y-56888095D01*
X56332380Y-74270714D02*
X55332380Y-74270714D01*
X56046666Y-73937380D01*
X55332380Y-73604047D01*
X56332380Y-73604047D01*
X56332380Y-73127857D02*
X55332380Y-73127857D01*
X56046666Y-72794523D01*
X55332380Y-72461190D01*
X56332380Y-72461190D01*
X55332380Y-72080238D02*
X55332380Y-71413571D01*
X56332380Y-71842142D01*
X55665714Y-70604047D02*
X56332380Y-70604047D01*
X55284761Y-70842142D02*
X55999047Y-71080238D01*
X55999047Y-70461190D01*
X56237142Y-69508809D02*
X56284761Y-69556428D01*
X56332380Y-69699285D01*
X56332380Y-69794523D01*
X56284761Y-69937380D01*
X56189523Y-70032619D01*
X56094285Y-70080238D01*
X55903809Y-70127857D01*
X55760952Y-70127857D01*
X55570476Y-70080238D01*
X55475238Y-70032619D01*
X55380000Y-69937380D01*
X55332380Y-69794523D01*
X55332380Y-69699285D01*
X55380000Y-69556428D01*
X55427619Y-69508809D01*
X56332380Y-69032619D02*
X56332380Y-68842142D01*
X56284761Y-68746904D01*
X56237142Y-68699285D01*
X56094285Y-68604047D01*
X55903809Y-68556428D01*
X55522857Y-68556428D01*
X55427619Y-68604047D01*
X55380000Y-68651666D01*
X55332380Y-68746904D01*
X55332380Y-68937380D01*
X55380000Y-69032619D01*
X55427619Y-69080238D01*
X55522857Y-69127857D01*
X55760952Y-69127857D01*
X55856190Y-69080238D01*
X55903809Y-69032619D01*
X55951428Y-68937380D01*
X55951428Y-68746904D01*
X55903809Y-68651666D01*
X55856190Y-68604047D01*
X55760952Y-68556428D01*
X55427619Y-68175476D02*
X55380000Y-68127857D01*
X55332380Y-68032619D01*
X55332380Y-67794523D01*
X55380000Y-67699285D01*
X55427619Y-67651666D01*
X55522857Y-67604047D01*
X55618095Y-67604047D01*
X55760952Y-67651666D01*
X56332380Y-68223095D01*
X56332380Y-67604047D01*
X55427619Y-67223095D02*
X55380000Y-67175476D01*
X55332380Y-67080238D01*
X55332380Y-66842142D01*
X55380000Y-66746904D01*
X55427619Y-66699285D01*
X55522857Y-66651666D01*
X55618095Y-66651666D01*
X55760952Y-66699285D01*
X56332380Y-67270714D01*
X56332380Y-66651666D01*
X61682380Y-91408095D02*
X62491904Y-91408095D01*
X62587142Y-91360476D01*
X62634761Y-91312857D01*
X62682380Y-91217619D01*
X62682380Y-91027142D01*
X62634761Y-90931904D01*
X62587142Y-90884285D01*
X62491904Y-90836666D01*
X61682380Y-90836666D01*
X62682380Y-89836666D02*
X62682380Y-90408095D01*
X62682380Y-90122380D02*
X61682380Y-90122380D01*
X61825238Y-90217619D01*
X61920476Y-90312857D01*
X61968095Y-90408095D01*
X62682380Y-88884285D02*
X62682380Y-89455714D01*
X62682380Y-89170000D02*
X61682380Y-89170000D01*
X61825238Y-89265238D01*
X61920476Y-89360476D01*
X61968095Y-89455714D01*
X49427142Y-89622380D02*
X50093809Y-89622380D01*
X49665238Y-90622380D01*
X50903333Y-89955714D02*
X50903333Y-90622380D01*
X50665238Y-89574761D02*
X50427142Y-90289047D01*
X51046190Y-90289047D01*
X51903333Y-90622380D02*
X51427142Y-90622380D01*
X51427142Y-89622380D01*
X52189047Y-90574761D02*
X52331904Y-90622380D01*
X52570000Y-90622380D01*
X52665238Y-90574761D01*
X52712857Y-90527142D01*
X52760476Y-90431904D01*
X52760476Y-90336666D01*
X52712857Y-90241428D01*
X52665238Y-90193809D01*
X52570000Y-90146190D01*
X52379523Y-90098571D01*
X52284285Y-90050952D01*
X52236666Y-90003333D01*
X52189047Y-89908095D01*
X52189047Y-89812857D01*
X52236666Y-89717619D01*
X52284285Y-89670000D01*
X52379523Y-89622380D01*
X52617619Y-89622380D01*
X52760476Y-89670000D01*
X53093809Y-89622380D02*
X53712857Y-89622380D01*
X53379523Y-90003333D01*
X53522380Y-90003333D01*
X53617619Y-90050952D01*
X53665238Y-90098571D01*
X53712857Y-90193809D01*
X53712857Y-90431904D01*
X53665238Y-90527142D01*
X53617619Y-90574761D01*
X53522380Y-90622380D01*
X53236666Y-90622380D01*
X53141428Y-90574761D01*
X53093809Y-90527142D01*
X54093809Y-89717619D02*
X54141428Y-89670000D01*
X54236666Y-89622380D01*
X54474761Y-89622380D01*
X54570000Y-89670000D01*
X54617619Y-89717619D01*
X54665238Y-89812857D01*
X54665238Y-89908095D01*
X54617619Y-90050952D01*
X54046190Y-90622380D01*
X54665238Y-90622380D01*
X55118095Y-36282380D02*
X55118095Y-37091904D01*
X55165714Y-37187142D01*
X55213333Y-37234761D01*
X55308571Y-37282380D01*
X55499047Y-37282380D01*
X55594285Y-37234761D01*
X55641904Y-37187142D01*
X55689523Y-37091904D01*
X55689523Y-36282380D01*
X56118095Y-36377619D02*
X56165714Y-36330000D01*
X56260952Y-36282380D01*
X56499047Y-36282380D01*
X56594285Y-36330000D01*
X56641904Y-36377619D01*
X56689523Y-36472857D01*
X56689523Y-36568095D01*
X56641904Y-36710952D01*
X56070476Y-37282380D01*
X56689523Y-37282380D01*
X55332380Y-48751904D02*
X55332380Y-48085238D01*
X56332380Y-48513809D01*
X55665714Y-47275714D02*
X56332380Y-47275714D01*
X55284761Y-47513809D02*
X55999047Y-47751904D01*
X55999047Y-47132857D01*
X55332380Y-46561428D02*
X55332380Y-46466190D01*
X55380000Y-46370952D01*
X55427619Y-46323333D01*
X55522857Y-46275714D01*
X55713333Y-46228095D01*
X55951428Y-46228095D01*
X56141904Y-46275714D01*
X56237142Y-46323333D01*
X56284761Y-46370952D01*
X56332380Y-46466190D01*
X56332380Y-46561428D01*
X56284761Y-46656666D01*
X56237142Y-46704285D01*
X56141904Y-46751904D01*
X55951428Y-46799523D01*
X55713333Y-46799523D01*
X55522857Y-46751904D01*
X55427619Y-46704285D01*
X55380000Y-46656666D01*
X55332380Y-46561428D01*
X55427619Y-45847142D02*
X55380000Y-45799523D01*
X55332380Y-45704285D01*
X55332380Y-45466190D01*
X55380000Y-45370952D01*
X55427619Y-45323333D01*
X55522857Y-45275714D01*
X55618095Y-45275714D01*
X55760952Y-45323333D01*
X56332380Y-45894761D01*
X56332380Y-45275714D01*
X68453095Y-36282380D02*
X68453095Y-37091904D01*
X68500714Y-37187142D01*
X68548333Y-37234761D01*
X68643571Y-37282380D01*
X68834047Y-37282380D01*
X68929285Y-37234761D01*
X68976904Y-37187142D01*
X69024523Y-37091904D01*
X69024523Y-36282380D01*
X70024523Y-37282380D02*
X69453095Y-37282380D01*
X69738809Y-37282380D02*
X69738809Y-36282380D01*
X69643571Y-36425238D01*
X69548333Y-36520476D01*
X69453095Y-36568095D01*
X68667380Y-48116904D02*
X68667380Y-47450238D01*
X69667380Y-47878809D01*
X69000714Y-46640714D02*
X69667380Y-46640714D01*
X68619761Y-46878809D02*
X69334047Y-47116904D01*
X69334047Y-46497857D01*
X68667380Y-45926428D02*
X68667380Y-45831190D01*
X68715000Y-45735952D01*
X68762619Y-45688333D01*
X68857857Y-45640714D01*
X69048333Y-45593095D01*
X69286428Y-45593095D01*
X69476904Y-45640714D01*
X69572142Y-45688333D01*
X69619761Y-45735952D01*
X69667380Y-45831190D01*
X69667380Y-45926428D01*
X69619761Y-46021666D01*
X69572142Y-46069285D01*
X69476904Y-46116904D01*
X69286428Y-46164523D01*
X69048333Y-46164523D01*
X68857857Y-46116904D01*
X68762619Y-46069285D01*
X68715000Y-46021666D01*
X68667380Y-45926428D01*
X68762619Y-45212142D02*
X68715000Y-45164523D01*
X68667380Y-45069285D01*
X68667380Y-44831190D01*
X68715000Y-44735952D01*
X68762619Y-44688333D01*
X68857857Y-44640714D01*
X68953095Y-44640714D01*
X69095952Y-44688333D01*
X69667380Y-45259761D01*
X69667380Y-44640714D01*
X80581666Y-100734761D02*
X80724523Y-100782380D01*
X80962619Y-100782380D01*
X81057857Y-100734761D01*
X81105476Y-100687142D01*
X81153095Y-100591904D01*
X81153095Y-100496666D01*
X81105476Y-100401428D01*
X81057857Y-100353809D01*
X80962619Y-100306190D01*
X80772142Y-100258571D01*
X80676904Y-100210952D01*
X80629285Y-100163333D01*
X80581666Y-100068095D01*
X80581666Y-99972857D01*
X80629285Y-99877619D01*
X80676904Y-99830000D01*
X80772142Y-99782380D01*
X81010238Y-99782380D01*
X81153095Y-99830000D01*
X81486428Y-99782380D02*
X81724523Y-100782380D01*
X81915000Y-100068095D01*
X82105476Y-100782380D01*
X82343571Y-99782380D01*
X82629285Y-99782380D02*
X83295952Y-99782380D01*
X82867380Y-100782380D01*
X85391904Y-113252380D02*
X85058571Y-112776190D01*
X84820476Y-113252380D02*
X84820476Y-112252380D01*
X85201428Y-112252380D01*
X85296666Y-112300000D01*
X85344285Y-112347619D01*
X85391904Y-112442857D01*
X85391904Y-112585714D01*
X85344285Y-112680952D01*
X85296666Y-112728571D01*
X85201428Y-112776190D01*
X84820476Y-112776190D01*
X86201428Y-113204761D02*
X86106190Y-113252380D01*
X85915714Y-113252380D01*
X85820476Y-113204761D01*
X85772857Y-113109523D01*
X85772857Y-112728571D01*
X85820476Y-112633333D01*
X85915714Y-112585714D01*
X86106190Y-112585714D01*
X86201428Y-112633333D01*
X86249047Y-112728571D01*
X86249047Y-112823809D01*
X85772857Y-112919047D01*
X86630000Y-113204761D02*
X86725238Y-113252380D01*
X86915714Y-113252380D01*
X87010952Y-113204761D01*
X87058571Y-113109523D01*
X87058571Y-113061904D01*
X87010952Y-112966666D01*
X86915714Y-112919047D01*
X86772857Y-112919047D01*
X86677619Y-112871428D01*
X86630000Y-112776190D01*
X86630000Y-112728571D01*
X86677619Y-112633333D01*
X86772857Y-112585714D01*
X86915714Y-112585714D01*
X87010952Y-112633333D01*
X87868095Y-113204761D02*
X87772857Y-113252380D01*
X87582380Y-113252380D01*
X87487142Y-113204761D01*
X87439523Y-113109523D01*
X87439523Y-112728571D01*
X87487142Y-112633333D01*
X87582380Y-112585714D01*
X87772857Y-112585714D01*
X87868095Y-112633333D01*
X87915714Y-112728571D01*
X87915714Y-112823809D01*
X87439523Y-112919047D01*
X88201428Y-112585714D02*
X88582380Y-112585714D01*
X88344285Y-112252380D02*
X88344285Y-113109523D01*
X88391904Y-113204761D01*
X88487142Y-113252380D01*
X88582380Y-113252380D01*
X80581666Y-84224761D02*
X80724523Y-84272380D01*
X80962619Y-84272380D01*
X81057857Y-84224761D01*
X81105476Y-84177142D01*
X81153095Y-84081904D01*
X81153095Y-83986666D01*
X81105476Y-83891428D01*
X81057857Y-83843809D01*
X80962619Y-83796190D01*
X80772142Y-83748571D01*
X80676904Y-83700952D01*
X80629285Y-83653333D01*
X80581666Y-83558095D01*
X80581666Y-83462857D01*
X80629285Y-83367619D01*
X80676904Y-83320000D01*
X80772142Y-83272380D01*
X81010238Y-83272380D01*
X81153095Y-83320000D01*
X81486428Y-83272380D02*
X81724523Y-84272380D01*
X81915000Y-83558095D01*
X82105476Y-84272380D01*
X82343571Y-83272380D01*
X83153095Y-83272380D02*
X82962619Y-83272380D01*
X82867380Y-83320000D01*
X82819761Y-83367619D01*
X82724523Y-83510476D01*
X82676904Y-83700952D01*
X82676904Y-84081904D01*
X82724523Y-84177142D01*
X82772142Y-84224761D01*
X82867380Y-84272380D01*
X83057857Y-84272380D01*
X83153095Y-84224761D01*
X83200714Y-84177142D01*
X83248333Y-84081904D01*
X83248333Y-83843809D01*
X83200714Y-83748571D01*
X83153095Y-83700952D01*
X83057857Y-83653333D01*
X82867380Y-83653333D01*
X82772142Y-83700952D01*
X82724523Y-83748571D01*
X82676904Y-83843809D01*
X82296666Y-96742380D02*
X81963333Y-96266190D01*
X81725238Y-96742380D02*
X81725238Y-95742380D01*
X82106190Y-95742380D01*
X82201428Y-95790000D01*
X82249047Y-95837619D01*
X82296666Y-95932857D01*
X82296666Y-96075714D01*
X82249047Y-96170952D01*
X82201428Y-96218571D01*
X82106190Y-96266190D01*
X81725238Y-96266190D01*
X83106190Y-96694761D02*
X83010952Y-96742380D01*
X82820476Y-96742380D01*
X82725238Y-96694761D01*
X82677619Y-96599523D01*
X82677619Y-96218571D01*
X82725238Y-96123333D01*
X82820476Y-96075714D01*
X83010952Y-96075714D01*
X83106190Y-96123333D01*
X83153809Y-96218571D01*
X83153809Y-96313809D01*
X82677619Y-96409047D01*
X83534761Y-96694761D02*
X83630000Y-96742380D01*
X83820476Y-96742380D01*
X83915714Y-96694761D01*
X83963333Y-96599523D01*
X83963333Y-96551904D01*
X83915714Y-96456666D01*
X83820476Y-96409047D01*
X83677619Y-96409047D01*
X83582380Y-96361428D01*
X83534761Y-96266190D01*
X83534761Y-96218571D01*
X83582380Y-96123333D01*
X83677619Y-96075714D01*
X83820476Y-96075714D01*
X83915714Y-96123333D01*
X84772857Y-96694761D02*
X84677619Y-96742380D01*
X84487142Y-96742380D01*
X84391904Y-96694761D01*
X84344285Y-96599523D01*
X84344285Y-96218571D01*
X84391904Y-96123333D01*
X84487142Y-96075714D01*
X84677619Y-96075714D01*
X84772857Y-96123333D01*
X84820476Y-96218571D01*
X84820476Y-96313809D01*
X84344285Y-96409047D01*
X85106190Y-96075714D02*
X85487142Y-96075714D01*
X85249047Y-95742380D02*
X85249047Y-96599523D01*
X85296666Y-96694761D01*
X85391904Y-96742380D01*
X85487142Y-96742380D01*
X85582380Y-96837619D02*
X86344285Y-96837619D01*
X87153809Y-96647142D02*
X87106190Y-96694761D01*
X86963333Y-96742380D01*
X86868095Y-96742380D01*
X86725238Y-96694761D01*
X86630000Y-96599523D01*
X86582380Y-96504285D01*
X86534761Y-96313809D01*
X86534761Y-96170952D01*
X86582380Y-95980476D01*
X86630000Y-95885238D01*
X86725238Y-95790000D01*
X86868095Y-95742380D01*
X86963333Y-95742380D01*
X87106190Y-95790000D01*
X87153809Y-95837619D01*
X87725238Y-96742380D02*
X87630000Y-96694761D01*
X87582380Y-96647142D01*
X87534761Y-96551904D01*
X87534761Y-96266190D01*
X87582380Y-96170952D01*
X87630000Y-96123333D01*
X87725238Y-96075714D01*
X87868095Y-96075714D01*
X87963333Y-96123333D01*
X88010952Y-96170952D01*
X88058571Y-96266190D01*
X88058571Y-96551904D01*
X88010952Y-96647142D01*
X87963333Y-96694761D01*
X87868095Y-96742380D01*
X87725238Y-96742380D01*
X88487142Y-96075714D02*
X88487142Y-96742380D01*
X88487142Y-96170952D02*
X88534761Y-96123333D01*
X88630000Y-96075714D01*
X88772857Y-96075714D01*
X88868095Y-96123333D01*
X88915714Y-96218571D01*
X88915714Y-96742380D01*
X89249047Y-96075714D02*
X89630000Y-96075714D01*
X89391904Y-95742380D02*
X89391904Y-96599523D01*
X89439523Y-96694761D01*
X89534761Y-96742380D01*
X89630000Y-96742380D01*
X89963333Y-96742380D02*
X89963333Y-96075714D01*
X89963333Y-96266190D02*
X90010952Y-96170952D01*
X90058571Y-96123333D01*
X90153809Y-96075714D01*
X90249047Y-96075714D01*
X90725238Y-96742380D02*
X90630000Y-96694761D01*
X90582380Y-96647142D01*
X90534761Y-96551904D01*
X90534761Y-96266190D01*
X90582380Y-96170952D01*
X90630000Y-96123333D01*
X90725238Y-96075714D01*
X90868095Y-96075714D01*
X90963333Y-96123333D01*
X91010952Y-96170952D01*
X91058571Y-96266190D01*
X91058571Y-96551904D01*
X91010952Y-96647142D01*
X90963333Y-96694761D01*
X90868095Y-96742380D01*
X90725238Y-96742380D01*
X91630000Y-96742380D02*
X91534761Y-96694761D01*
X91487142Y-96599523D01*
X91487142Y-95742380D01*
X82319761Y-53403333D02*
X82367380Y-53260476D01*
X82367380Y-53022380D01*
X82319761Y-52927142D01*
X82272142Y-52879523D01*
X82176904Y-52831904D01*
X82081666Y-52831904D01*
X81986428Y-52879523D01*
X81938809Y-52927142D01*
X81891190Y-53022380D01*
X81843571Y-53212857D01*
X81795952Y-53308095D01*
X81748333Y-53355714D01*
X81653095Y-53403333D01*
X81557857Y-53403333D01*
X81462619Y-53355714D01*
X81415000Y-53308095D01*
X81367380Y-53212857D01*
X81367380Y-52974761D01*
X81415000Y-52831904D01*
X81367380Y-52498571D02*
X82367380Y-52260476D01*
X81653095Y-52070000D01*
X82367380Y-51879523D01*
X81367380Y-51641428D01*
X81367380Y-50784285D02*
X81367380Y-51260476D01*
X81843571Y-51308095D01*
X81795952Y-51260476D01*
X81748333Y-51165238D01*
X81748333Y-50927142D01*
X81795952Y-50831904D01*
X81843571Y-50784285D01*
X81938809Y-50736666D01*
X82176904Y-50736666D01*
X82272142Y-50784285D01*
X82319761Y-50831904D01*
X82367380Y-50927142D01*
X82367380Y-51165238D01*
X82319761Y-51260476D01*
X82272142Y-51308095D01*
X85915952Y-48347380D02*
X86106428Y-48347380D01*
X86201666Y-48395000D01*
X86296904Y-48490238D01*
X86344523Y-48680714D01*
X86344523Y-49014047D01*
X86296904Y-49204523D01*
X86201666Y-49299761D01*
X86106428Y-49347380D01*
X85915952Y-49347380D01*
X85820714Y-49299761D01*
X85725476Y-49204523D01*
X85677857Y-49014047D01*
X85677857Y-48680714D01*
X85725476Y-48490238D01*
X85820714Y-48395000D01*
X85915952Y-48347380D01*
X86773095Y-48347380D02*
X86773095Y-49156904D01*
X86820714Y-49252142D01*
X86868333Y-49299761D01*
X86963571Y-49347380D01*
X87154047Y-49347380D01*
X87249285Y-49299761D01*
X87296904Y-49252142D01*
X87344523Y-49156904D01*
X87344523Y-48347380D01*
X87677857Y-48347380D02*
X88249285Y-48347380D01*
X87963571Y-49347380D02*
X87963571Y-48347380D01*
X88344523Y-49442619D02*
X89106428Y-49442619D01*
X89201666Y-48347380D02*
X89773095Y-48347380D01*
X89487380Y-49347380D02*
X89487380Y-48347380D01*
X90296904Y-48871190D02*
X90296904Y-49347380D01*
X89963571Y-48347380D02*
X90296904Y-48871190D01*
X90630238Y-48347380D01*
X90963571Y-49347380D02*
X90963571Y-48347380D01*
X91344523Y-48347380D01*
X91439761Y-48395000D01*
X91487380Y-48442619D01*
X91535000Y-48537857D01*
X91535000Y-48680714D01*
X91487380Y-48775952D01*
X91439761Y-48823571D01*
X91344523Y-48871190D01*
X90963571Y-48871190D01*
X91963571Y-48823571D02*
X92296904Y-48823571D01*
X92439761Y-49347380D02*
X91963571Y-49347380D01*
X91963571Y-48347380D01*
X92439761Y-48347380D01*
X92820714Y-48442619D02*
X92868333Y-48395000D01*
X92963571Y-48347380D01*
X93201666Y-48347380D01*
X93296904Y-48395000D01*
X93344523Y-48442619D01*
X93392142Y-48537857D01*
X93392142Y-48633095D01*
X93344523Y-48775952D01*
X92773095Y-49347380D01*
X93392142Y-49347380D01*
X82319761Y-47053333D02*
X82367380Y-46910476D01*
X82367380Y-46672380D01*
X82319761Y-46577142D01*
X82272142Y-46529523D01*
X82176904Y-46481904D01*
X82081666Y-46481904D01*
X81986428Y-46529523D01*
X81938809Y-46577142D01*
X81891190Y-46672380D01*
X81843571Y-46862857D01*
X81795952Y-46958095D01*
X81748333Y-47005714D01*
X81653095Y-47053333D01*
X81557857Y-47053333D01*
X81462619Y-47005714D01*
X81415000Y-46958095D01*
X81367380Y-46862857D01*
X81367380Y-46624761D01*
X81415000Y-46481904D01*
X81367380Y-46148571D02*
X82367380Y-45910476D01*
X81653095Y-45720000D01*
X82367380Y-45529523D01*
X81367380Y-45291428D01*
X81700714Y-44481904D02*
X82367380Y-44481904D01*
X81319761Y-44720000D02*
X82034047Y-44958095D01*
X82034047Y-44339047D01*
X85915952Y-41997380D02*
X86106428Y-41997380D01*
X86201666Y-42045000D01*
X86296904Y-42140238D01*
X86344523Y-42330714D01*
X86344523Y-42664047D01*
X86296904Y-42854523D01*
X86201666Y-42949761D01*
X86106428Y-42997380D01*
X85915952Y-42997380D01*
X85820714Y-42949761D01*
X85725476Y-42854523D01*
X85677857Y-42664047D01*
X85677857Y-42330714D01*
X85725476Y-42140238D01*
X85820714Y-42045000D01*
X85915952Y-41997380D01*
X86773095Y-41997380D02*
X86773095Y-42806904D01*
X86820714Y-42902142D01*
X86868333Y-42949761D01*
X86963571Y-42997380D01*
X87154047Y-42997380D01*
X87249285Y-42949761D01*
X87296904Y-42902142D01*
X87344523Y-42806904D01*
X87344523Y-41997380D01*
X87677857Y-41997380D02*
X88249285Y-41997380D01*
X87963571Y-42997380D02*
X87963571Y-41997380D01*
X88344523Y-43092619D02*
X89106428Y-43092619D01*
X89201666Y-41997380D02*
X89773095Y-41997380D01*
X89487380Y-42997380D02*
X89487380Y-41997380D01*
X90296904Y-42521190D02*
X90296904Y-42997380D01*
X89963571Y-41997380D02*
X90296904Y-42521190D01*
X90630238Y-41997380D01*
X90963571Y-42997380D02*
X90963571Y-41997380D01*
X91344523Y-41997380D01*
X91439761Y-42045000D01*
X91487380Y-42092619D01*
X91535000Y-42187857D01*
X91535000Y-42330714D01*
X91487380Y-42425952D01*
X91439761Y-42473571D01*
X91344523Y-42521190D01*
X90963571Y-42521190D01*
X91963571Y-42473571D02*
X92296904Y-42473571D01*
X92439761Y-42997380D02*
X91963571Y-42997380D01*
X91963571Y-41997380D01*
X92439761Y-41997380D01*
X93392142Y-42997380D02*
X92820714Y-42997380D01*
X93106428Y-42997380D02*
X93106428Y-41997380D01*
X93011190Y-42140238D01*
X92915952Y-42235476D01*
X92820714Y-42283095D01*
X80581666Y-29614761D02*
X80724523Y-29662380D01*
X80962619Y-29662380D01*
X81057857Y-29614761D01*
X81105476Y-29567142D01*
X81153095Y-29471904D01*
X81153095Y-29376666D01*
X81105476Y-29281428D01*
X81057857Y-29233809D01*
X80962619Y-29186190D01*
X80772142Y-29138571D01*
X80676904Y-29090952D01*
X80629285Y-29043333D01*
X80581666Y-28948095D01*
X80581666Y-28852857D01*
X80629285Y-28757619D01*
X80676904Y-28710000D01*
X80772142Y-28662380D01*
X81010238Y-28662380D01*
X81153095Y-28710000D01*
X81486428Y-28662380D02*
X81724523Y-29662380D01*
X81915000Y-28948095D01*
X82105476Y-29662380D01*
X82343571Y-28662380D01*
X82676904Y-28757619D02*
X82724523Y-28710000D01*
X82819761Y-28662380D01*
X83057857Y-28662380D01*
X83153095Y-28710000D01*
X83200714Y-28757619D01*
X83248333Y-28852857D01*
X83248333Y-28948095D01*
X83200714Y-29090952D01*
X82629285Y-29662380D01*
X83248333Y-29662380D01*
X81764761Y-27074761D02*
X81907619Y-27122380D01*
X82145714Y-27122380D01*
X82240952Y-27074761D01*
X82288571Y-27027142D01*
X82336190Y-26931904D01*
X82336190Y-26836666D01*
X82288571Y-26741428D01*
X82240952Y-26693809D01*
X82145714Y-26646190D01*
X81955238Y-26598571D01*
X81860000Y-26550952D01*
X81812380Y-26503333D01*
X81764761Y-26408095D01*
X81764761Y-26312857D01*
X81812380Y-26217619D01*
X81860000Y-26170000D01*
X81955238Y-26122380D01*
X82193333Y-26122380D01*
X82336190Y-26170000D01*
X82764761Y-27122380D02*
X82764761Y-26122380D01*
X83240952Y-27122380D02*
X83240952Y-26122380D01*
X83812380Y-27122380D01*
X83812380Y-26122380D01*
X84812380Y-26170000D02*
X84717142Y-26122380D01*
X84574285Y-26122380D01*
X84431428Y-26170000D01*
X84336190Y-26265238D01*
X84288571Y-26360476D01*
X84240952Y-26550952D01*
X84240952Y-26693809D01*
X84288571Y-26884285D01*
X84336190Y-26979523D01*
X84431428Y-27074761D01*
X84574285Y-27122380D01*
X84669523Y-27122380D01*
X84812380Y-27074761D01*
X84860000Y-27027142D01*
X84860000Y-26693809D01*
X84669523Y-26693809D01*
X85764761Y-27122380D02*
X85288571Y-27122380D01*
X85288571Y-26122380D01*
X86098095Y-26598571D02*
X86431428Y-26598571D01*
X86574285Y-27122380D02*
X86098095Y-27122380D01*
X86098095Y-26122380D01*
X86574285Y-26122380D01*
X86764761Y-27217619D02*
X87526666Y-27217619D01*
X87717142Y-27074761D02*
X87860000Y-27122380D01*
X88098095Y-27122380D01*
X88193333Y-27074761D01*
X88240952Y-27027142D01*
X88288571Y-26931904D01*
X88288571Y-26836666D01*
X88240952Y-26741428D01*
X88193333Y-26693809D01*
X88098095Y-26646190D01*
X87907619Y-26598571D01*
X87812380Y-26550952D01*
X87764761Y-26503333D01*
X87717142Y-26408095D01*
X87717142Y-26312857D01*
X87764761Y-26217619D01*
X87812380Y-26170000D01*
X87907619Y-26122380D01*
X88145714Y-26122380D01*
X88288571Y-26170000D01*
X88574285Y-26122380D02*
X89145714Y-26122380D01*
X88860000Y-27122380D02*
X88860000Y-26122380D01*
X89479047Y-26598571D02*
X89812380Y-26598571D01*
X89955238Y-27122380D02*
X89479047Y-27122380D01*
X89479047Y-26122380D01*
X89955238Y-26122380D01*
X90383809Y-27122380D02*
X90383809Y-26122380D01*
X90764761Y-26122380D01*
X90860000Y-26170000D01*
X90907619Y-26217619D01*
X90955238Y-26312857D01*
X90955238Y-26455714D01*
X90907619Y-26550952D01*
X90860000Y-26598571D01*
X90764761Y-26646190D01*
X90383809Y-26646190D01*
X69048333Y-67762380D02*
X68715000Y-67286190D01*
X68476904Y-67762380D02*
X68476904Y-66762380D01*
X68857857Y-66762380D01*
X68953095Y-66810000D01*
X69000714Y-66857619D01*
X69048333Y-66952857D01*
X69048333Y-67095714D01*
X69000714Y-67190952D01*
X68953095Y-67238571D01*
X68857857Y-67286190D01*
X68476904Y-67286190D01*
X69905476Y-67095714D02*
X69905476Y-67762380D01*
X69667380Y-66714761D02*
X69429285Y-67429047D01*
X70048333Y-67429047D01*
X69048333Y-75382380D02*
X68715000Y-74906190D01*
X68476904Y-75382380D02*
X68476904Y-74382380D01*
X68857857Y-74382380D01*
X68953095Y-74430000D01*
X69000714Y-74477619D01*
X69048333Y-74572857D01*
X69048333Y-74715714D01*
X69000714Y-74810952D01*
X68953095Y-74858571D01*
X68857857Y-74906190D01*
X68476904Y-74906190D01*
X69381666Y-74382380D02*
X70000714Y-74382380D01*
X69667380Y-74763333D01*
X69810238Y-74763333D01*
X69905476Y-74810952D01*
X69953095Y-74858571D01*
X70000714Y-74953809D01*
X70000714Y-75191904D01*
X69953095Y-75287142D01*
X69905476Y-75334761D01*
X69810238Y-75382380D01*
X69524523Y-75382380D01*
X69429285Y-75334761D01*
X69381666Y-75287142D01*
X69048333Y-60142380D02*
X68715000Y-59666190D01*
X68476904Y-60142380D02*
X68476904Y-59142380D01*
X68857857Y-59142380D01*
X68953095Y-59190000D01*
X69000714Y-59237619D01*
X69048333Y-59332857D01*
X69048333Y-59475714D01*
X69000714Y-59570952D01*
X68953095Y-59618571D01*
X68857857Y-59666190D01*
X68476904Y-59666190D01*
X69429285Y-59237619D02*
X69476904Y-59190000D01*
X69572142Y-59142380D01*
X69810238Y-59142380D01*
X69905476Y-59190000D01*
X69953095Y-59237619D01*
X70000714Y-59332857D01*
X70000714Y-59428095D01*
X69953095Y-59570952D01*
X69381666Y-60142380D01*
X70000714Y-60142380D01*
X69048333Y-71572380D02*
X68715000Y-71096190D01*
X68476904Y-71572380D02*
X68476904Y-70572380D01*
X68857857Y-70572380D01*
X68953095Y-70620000D01*
X69000714Y-70667619D01*
X69048333Y-70762857D01*
X69048333Y-70905714D01*
X69000714Y-71000952D01*
X68953095Y-71048571D01*
X68857857Y-71096190D01*
X68476904Y-71096190D01*
X70000714Y-71572380D02*
X69429285Y-71572380D01*
X69715000Y-71572380D02*
X69715000Y-70572380D01*
X69619761Y-70715238D01*
X69524523Y-70810476D01*
X69429285Y-70858095D01*
X65067380Y-29543333D02*
X65781666Y-29543333D01*
X65924523Y-29590952D01*
X66019761Y-29686190D01*
X66067380Y-29829047D01*
X66067380Y-29924285D01*
X65495952Y-28924285D02*
X65448333Y-29019523D01*
X65400714Y-29067142D01*
X65305476Y-29114761D01*
X65257857Y-29114761D01*
X65162619Y-29067142D01*
X65115000Y-29019523D01*
X65067380Y-28924285D01*
X65067380Y-28733809D01*
X65115000Y-28638571D01*
X65162619Y-28590952D01*
X65257857Y-28543333D01*
X65305476Y-28543333D01*
X65400714Y-28590952D01*
X65448333Y-28638571D01*
X65495952Y-28733809D01*
X65495952Y-28924285D01*
X65543571Y-29019523D01*
X65591190Y-29067142D01*
X65686428Y-29114761D01*
X65876904Y-29114761D01*
X65972142Y-29067142D01*
X66019761Y-29019523D01*
X66067380Y-28924285D01*
X66067380Y-28733809D01*
X66019761Y-28638571D01*
X65972142Y-28590952D01*
X65876904Y-28543333D01*
X65686428Y-28543333D01*
X65591190Y-28590952D01*
X65543571Y-28638571D01*
X65495952Y-28733809D01*
X66072142Y-31202380D02*
X66262619Y-31202380D01*
X66357857Y-31250000D01*
X66453095Y-31345238D01*
X66500714Y-31535714D01*
X66500714Y-31869047D01*
X66453095Y-32059523D01*
X66357857Y-32154761D01*
X66262619Y-32202380D01*
X66072142Y-32202380D01*
X65976904Y-32154761D01*
X65881666Y-32059523D01*
X65834047Y-31869047D01*
X65834047Y-31535714D01*
X65881666Y-31345238D01*
X65976904Y-31250000D01*
X66072142Y-31202380D01*
X66929285Y-31202380D02*
X66929285Y-32011904D01*
X66976904Y-32107142D01*
X67024523Y-32154761D01*
X67119761Y-32202380D01*
X67310238Y-32202380D01*
X67405476Y-32154761D01*
X67453095Y-32107142D01*
X67500714Y-32011904D01*
X67500714Y-31202380D01*
X67834047Y-31202380D02*
X68405476Y-31202380D01*
X68119761Y-32202380D02*
X68119761Y-31202380D01*
X68500714Y-32297619D02*
X69262619Y-32297619D01*
X69357857Y-31202380D02*
X69929285Y-31202380D01*
X69643571Y-32202380D02*
X69643571Y-31202380D01*
X70453095Y-31726190D02*
X70453095Y-32202380D01*
X70119761Y-31202380D02*
X70453095Y-31726190D01*
X70786428Y-31202380D01*
X71119761Y-32202380D02*
X71119761Y-31202380D01*
X71500714Y-31202380D01*
X71595952Y-31250000D01*
X71643571Y-31297619D01*
X71691190Y-31392857D01*
X71691190Y-31535714D01*
X71643571Y-31630952D01*
X71595952Y-31678571D01*
X71500714Y-31726190D01*
X71119761Y-31726190D01*
X72119761Y-31678571D02*
X72453095Y-31678571D01*
X72595952Y-32202380D02*
X72119761Y-32202380D01*
X72119761Y-31202380D01*
X72595952Y-31202380D01*
X28241666Y-35222380D02*
X28241666Y-35936666D01*
X28194047Y-36079523D01*
X28098809Y-36174761D01*
X27955952Y-36222380D01*
X27860714Y-36222380D01*
X28622619Y-35222380D02*
X29289285Y-35222380D01*
X28860714Y-36222380D01*
X31567380Y-40822380D02*
X31091190Y-41155714D01*
X31567380Y-41393809D02*
X30567380Y-41393809D01*
X30567380Y-41012857D01*
X30615000Y-40917619D01*
X30662619Y-40870000D01*
X30757857Y-40822380D01*
X30900714Y-40822380D01*
X30995952Y-40870000D01*
X31043571Y-40917619D01*
X31091190Y-41012857D01*
X31091190Y-41393809D01*
X31043571Y-40393809D02*
X31043571Y-40060476D01*
X31567380Y-39917619D02*
X31567380Y-40393809D01*
X30567380Y-40393809D01*
X30567380Y-39917619D01*
X31519761Y-39536666D02*
X31567380Y-39393809D01*
X31567380Y-39155714D01*
X31519761Y-39060476D01*
X31472142Y-39012857D01*
X31376904Y-38965238D01*
X31281666Y-38965238D01*
X31186428Y-39012857D01*
X31138809Y-39060476D01*
X31091190Y-39155714D01*
X31043571Y-39346190D01*
X30995952Y-39441428D01*
X30948333Y-39489047D01*
X30853095Y-39536666D01*
X30757857Y-39536666D01*
X30662619Y-39489047D01*
X30615000Y-39441428D01*
X30567380Y-39346190D01*
X30567380Y-39108095D01*
X30615000Y-38965238D01*
X31043571Y-38536666D02*
X31043571Y-38203333D01*
X31567380Y-38060476D02*
X31567380Y-38536666D01*
X30567380Y-38536666D01*
X30567380Y-38060476D01*
X30567380Y-37774761D02*
X30567380Y-37203333D01*
X31567380Y-37489047D02*
X30567380Y-37489047D01*
X28241666Y-94277380D02*
X28241666Y-94991666D01*
X28194047Y-95134523D01*
X28098809Y-95229761D01*
X27955952Y-95277380D01*
X27860714Y-95277380D01*
X29146428Y-94277380D02*
X28955952Y-94277380D01*
X28860714Y-94325000D01*
X28813095Y-94372619D01*
X28717857Y-94515476D01*
X28670238Y-94705952D01*
X28670238Y-95086904D01*
X28717857Y-95182142D01*
X28765476Y-95229761D01*
X28860714Y-95277380D01*
X29051190Y-95277380D01*
X29146428Y-95229761D01*
X29194047Y-95182142D01*
X29241666Y-95086904D01*
X29241666Y-94848809D01*
X29194047Y-94753571D01*
X29146428Y-94705952D01*
X29051190Y-94658333D01*
X28860714Y-94658333D01*
X28765476Y-94705952D01*
X28717857Y-94753571D01*
X28670238Y-94848809D01*
X31472142Y-99401190D02*
X31519761Y-99448809D01*
X31567380Y-99591666D01*
X31567380Y-99686904D01*
X31519761Y-99829761D01*
X31424523Y-99925000D01*
X31329285Y-99972619D01*
X31138809Y-100020238D01*
X30995952Y-100020238D01*
X30805476Y-99972619D01*
X30710238Y-99925000D01*
X30615000Y-99829761D01*
X30567380Y-99686904D01*
X30567380Y-99591666D01*
X30615000Y-99448809D01*
X30662619Y-99401190D01*
X30567380Y-99115476D02*
X30567380Y-98544047D01*
X31567380Y-98829761D02*
X30567380Y-98829761D01*
X31567380Y-97639285D02*
X31091190Y-97972619D01*
X31567380Y-98210714D02*
X30567380Y-98210714D01*
X30567380Y-97829761D01*
X30615000Y-97734523D01*
X30662619Y-97686904D01*
X30757857Y-97639285D01*
X30900714Y-97639285D01*
X30995952Y-97686904D01*
X31043571Y-97734523D01*
X31091190Y-97829761D01*
X31091190Y-98210714D01*
X31567380Y-96734523D02*
X31567380Y-97210714D01*
X30567380Y-97210714D01*
X32682380Y-110823333D02*
X33396666Y-110823333D01*
X33539523Y-110870952D01*
X33634761Y-110966190D01*
X33682380Y-111109047D01*
X33682380Y-111204285D01*
X33015714Y-109918571D02*
X33682380Y-109918571D01*
X32634761Y-110156666D02*
X33349047Y-110394761D01*
X33349047Y-109775714D01*
X37219285Y-112530000D02*
X37124047Y-112482380D01*
X36981190Y-112482380D01*
X36838333Y-112530000D01*
X36743095Y-112625238D01*
X36695476Y-112720476D01*
X36647857Y-112910952D01*
X36647857Y-113053809D01*
X36695476Y-113244285D01*
X36743095Y-113339523D01*
X36838333Y-113434761D01*
X36981190Y-113482380D01*
X37076428Y-113482380D01*
X37219285Y-113434761D01*
X37266904Y-113387142D01*
X37266904Y-113053809D01*
X37076428Y-113053809D01*
X38266904Y-113482380D02*
X37933571Y-113006190D01*
X37695476Y-113482380D02*
X37695476Y-112482380D01*
X38076428Y-112482380D01*
X38171666Y-112530000D01*
X38219285Y-112577619D01*
X38266904Y-112672857D01*
X38266904Y-112815714D01*
X38219285Y-112910952D01*
X38171666Y-112958571D01*
X38076428Y-113006190D01*
X37695476Y-113006190D01*
X38885952Y-112482380D02*
X39076428Y-112482380D01*
X39171666Y-112530000D01*
X39266904Y-112625238D01*
X39314523Y-112815714D01*
X39314523Y-113149047D01*
X39266904Y-113339523D01*
X39171666Y-113434761D01*
X39076428Y-113482380D01*
X38885952Y-113482380D01*
X38790714Y-113434761D01*
X38695476Y-113339523D01*
X38647857Y-113149047D01*
X38647857Y-112815714D01*
X38695476Y-112625238D01*
X38790714Y-112530000D01*
X38885952Y-112482380D01*
X39743095Y-112482380D02*
X39743095Y-113291904D01*
X39790714Y-113387142D01*
X39838333Y-113434761D01*
X39933571Y-113482380D01*
X40124047Y-113482380D01*
X40219285Y-113434761D01*
X40266904Y-113387142D01*
X40314523Y-113291904D01*
X40314523Y-112482380D01*
X40790714Y-113482380D02*
X40790714Y-112482380D01*
X41362142Y-113482380D01*
X41362142Y-112482380D01*
X41838333Y-113482380D02*
X41838333Y-112482380D01*
X42076428Y-112482380D01*
X42219285Y-112530000D01*
X42314523Y-112625238D01*
X42362142Y-112720476D01*
X42409761Y-112910952D01*
X42409761Y-113053809D01*
X42362142Y-113244285D01*
X42314523Y-113339523D01*
X42219285Y-113434761D01*
X42076428Y-113482380D01*
X41838333Y-113482380D01*
X43362142Y-113482380D02*
X42790714Y-113482380D01*
X43076428Y-113482380D02*
X43076428Y-112482380D01*
X42981190Y-112625238D01*
X42885952Y-112720476D01*
X42790714Y-112768095D01*
X27728095Y-105172380D02*
X27728095Y-104172380D01*
X27728095Y-104648571D02*
X28299523Y-104648571D01*
X28299523Y-105172380D02*
X28299523Y-104172380D01*
X29204285Y-104172380D02*
X29013809Y-104172380D01*
X28918571Y-104220000D01*
X28870952Y-104267619D01*
X28775714Y-104410476D01*
X28728095Y-104600952D01*
X28728095Y-104981904D01*
X28775714Y-105077142D01*
X28823333Y-105124761D01*
X28918571Y-105172380D01*
X29109047Y-105172380D01*
X29204285Y-105124761D01*
X29251904Y-105077142D01*
X29299523Y-104981904D01*
X29299523Y-104743809D01*
X29251904Y-104648571D01*
X29204285Y-104600952D01*
X29109047Y-104553333D01*
X28918571Y-104553333D01*
X28823333Y-104600952D01*
X28775714Y-104648571D01*
X28728095Y-104743809D01*
X24638095Y-26487380D02*
X24638095Y-25487380D01*
X24638095Y-25963571D02*
X25209523Y-25963571D01*
X25209523Y-26487380D02*
X25209523Y-25487380D01*
X26161904Y-25487380D02*
X25685714Y-25487380D01*
X25638095Y-25963571D01*
X25685714Y-25915952D01*
X25780952Y-25868333D01*
X26019047Y-25868333D01*
X26114285Y-25915952D01*
X26161904Y-25963571D01*
X26209523Y-26058809D01*
X26209523Y-26296904D01*
X26161904Y-26392142D01*
X26114285Y-26439761D01*
X26019047Y-26487380D01*
X25780952Y-26487380D01*
X25685714Y-26439761D01*
X25638095Y-26392142D01*
X100838095Y-105172380D02*
X100838095Y-104172380D01*
X100838095Y-104648571D02*
X101409523Y-104648571D01*
X101409523Y-105172380D02*
X101409523Y-104172380D01*
X102314285Y-104505714D02*
X102314285Y-105172380D01*
X102076190Y-104124761D02*
X101838095Y-104839047D01*
X102457142Y-104839047D01*
X100838095Y-25797380D02*
X100838095Y-24797380D01*
X100838095Y-25273571D02*
X101409523Y-25273571D01*
X101409523Y-25797380D02*
X101409523Y-24797380D01*
X101790476Y-24797380D02*
X102409523Y-24797380D01*
X102076190Y-25178333D01*
X102219047Y-25178333D01*
X102314285Y-25225952D01*
X102361904Y-25273571D01*
X102409523Y-25368809D01*
X102409523Y-25606904D01*
X102361904Y-25702142D01*
X102314285Y-25749761D01*
X102219047Y-25797380D01*
X101933333Y-25797380D01*
X101838095Y-25749761D01*
X101790476Y-25702142D01*
X149098095Y-105172380D02*
X149098095Y-104172380D01*
X149098095Y-104648571D02*
X149669523Y-104648571D01*
X149669523Y-105172380D02*
X149669523Y-104172380D01*
X150098095Y-104267619D02*
X150145714Y-104220000D01*
X150240952Y-104172380D01*
X150479047Y-104172380D01*
X150574285Y-104220000D01*
X150621904Y-104267619D01*
X150669523Y-104362857D01*
X150669523Y-104458095D01*
X150621904Y-104600952D01*
X150050476Y-105172380D01*
X150669523Y-105172380D01*
X149098095Y-25846180D02*
X149098095Y-24846180D01*
X149098095Y-25322371D02*
X149669523Y-25322371D01*
X149669523Y-25846180D02*
X149669523Y-24846180D01*
X150669523Y-25846180D02*
X150098095Y-25846180D01*
X150383809Y-25846180D02*
X150383809Y-24846180D01*
X150288571Y-24989038D01*
X150193333Y-25084276D01*
X150098095Y-25131895D01*
X35413333Y-101262142D02*
X35365714Y-101309761D01*
X35222857Y-101357380D01*
X35127619Y-101357380D01*
X34984761Y-101309761D01*
X34889523Y-101214523D01*
X34841904Y-101119285D01*
X34794285Y-100928809D01*
X34794285Y-100785952D01*
X34841904Y-100595476D01*
X34889523Y-100500238D01*
X34984761Y-100405000D01*
X35127619Y-100357380D01*
X35222857Y-100357380D01*
X35365714Y-100405000D01*
X35413333Y-100452619D01*
X35794285Y-100452619D02*
X35841904Y-100405000D01*
X35937142Y-100357380D01*
X36175238Y-100357380D01*
X36270476Y-100405000D01*
X36318095Y-100452619D01*
X36365714Y-100547857D01*
X36365714Y-100643095D01*
X36318095Y-100785952D01*
X35746666Y-101357380D01*
X36365714Y-101357380D01*
X39183333Y-51217142D02*
X39135714Y-51264761D01*
X38992857Y-51312380D01*
X38897619Y-51312380D01*
X38754761Y-51264761D01*
X38659523Y-51169523D01*
X38611904Y-51074285D01*
X38564285Y-50883809D01*
X38564285Y-50740952D01*
X38611904Y-50550476D01*
X38659523Y-50455238D01*
X38754761Y-50360000D01*
X38897619Y-50312380D01*
X38992857Y-50312380D01*
X39135714Y-50360000D01*
X39183333Y-50407619D01*
X40135714Y-51312380D02*
X39564285Y-51312380D01*
X39850000Y-51312380D02*
X39850000Y-50312380D01*
X39754761Y-50455238D01*
X39659523Y-50550476D01*
X39564285Y-50598095D01*
M02*
