M48
INCH,TZ
T1C0.0157
T2C0.0197
T3C0.0295
T4C0.0315
T5C0.0354
T6C0.0394
T7C0.1260
%
G90
G05
T1
X17892Y-55770
X22729Y-14583
X22992Y-18548
X30289Y-14414
X30505Y-19326
X30716Y-26084
X31339Y-19326
X31341Y-27459
X34015Y-27579
X34381Y-19326
X34425Y-33161
X39778Y-21727
X42454Y-14307
X42922Y-14025
X44331Y-22118
X48871Y-37716
X48935Y-24917
X49145Y-34147
X49411Y-34523
X53350Y-19608
X55001Y-19318
X55071Y-22600
X55373Y-19076
X56186Y-22534
X58911Y-14845
X59198Y-15213
X66549Y-32611
X71319Y-30753
X71465Y-34587
X72664Y-31894
T2
X80055Y-62600
X80332Y-61932
X80332Y-63268
X81000Y-61655
X81000Y-63545
X81668Y-61932
X81668Y-63268
X81945Y-62600
X10055Y-62600
X10332Y-61932
X10332Y-63268
X11000Y-61655
X11000Y-63545
X11668Y-61932
X11668Y-63268
X11945Y-62600
X10055Y-11400
X10332Y-10732
X10332Y-12068
X11000Y-10455
X11000Y-12345
X11668Y-10732
X11668Y-12068
X11945Y-11400
X80055Y-11400
X80332Y-10732
X80332Y-12068
X81000Y-10455
X81000Y-12345
X81668Y-10732
X81668Y-12068
X81945Y-11400
T3
X37000Y-56600
X37500Y-56600
X38000Y-56600
T4
X27000Y-41600
X30000Y-41600
X19000Y-50600
X22000Y-50600
X50000Y-17600
X50000Y-20600
X51000Y-17600
X51000Y-20600
X52000Y-17600
X52000Y-20600
X53000Y-17600
X53000Y-20600
X54000Y-17600
X54000Y-20600
X55000Y-17600
X55000Y-20600
X56000Y-17600
X56000Y-20600
X48515Y-38600
X51515Y-38600
X59000Y-13000
X59000Y-16000
X60000Y-13000
X60000Y-16000
X61000Y-13000
X61000Y-16000
X62000Y-13000
X62000Y-16000
X63000Y-13000
X63000Y-16000
X64000Y-13000
X64000Y-16000
X65000Y-13000
X65000Y-16000
X66000Y-13000
X66000Y-16000
X67000Y-13000
X67000Y-16000
X68000Y-13000
X68000Y-16000
X11000Y-50600
X11000Y-51600
X11000Y-52600
X11000Y-53600
X11000Y-54600
X11000Y-55600
X11000Y-56600
X11000Y-57600
X11000Y-58600
X11000Y-59600
X14000Y-50600
X14000Y-51600
X14000Y-52600
X14000Y-53600
X14000Y-54600
X14000Y-55600
X14000Y-56600
X14000Y-57600
X14000Y-58600
X14000Y-59600
X11000Y-17600
X11000Y-20600
X12000Y-17600
X12000Y-20600
X13000Y-17600
X13000Y-20600
X14000Y-17600
X14000Y-20600
X15000Y-17600
X15000Y-20600
X16000Y-17600
X16000Y-20600
X17000Y-17600
X17000Y-20600
X73500Y-56600
X76500Y-56600
X64500Y-47600
X67500Y-47600
X53000Y-41600
X56000Y-41600
X19000Y-56600
X22000Y-56600
X64500Y-59600
X67500Y-59600
X73500Y-35600
X76500Y-35600
X32000Y-44600
X35000Y-44600
X32000Y-38600
X35000Y-38600
X44000Y-11200
X47000Y-11200
X29000Y-13000
X29000Y-16000
X30000Y-13000
X30000Y-16000
X31000Y-13000
X31000Y-16000
X32000Y-13000
X32000Y-16000
X33000Y-13000
X33000Y-16000
X34000Y-13000
X34000Y-16000
X35000Y-13000
X35000Y-16000
X64500Y-50600
X67500Y-50600
X73500Y-29600
X76500Y-29600
X32000Y-50600
X35000Y-50600
X30000Y-22600
X30000Y-23600
X30000Y-24600
X30000Y-25600
X30000Y-26600
X30000Y-27600
X30000Y-28600
X30000Y-29600
X30000Y-30600
X30000Y-31600
X30000Y-32600
X30000Y-33600
X30000Y-34600
X30000Y-35600
X36000Y-22600
X36000Y-23600
X36000Y-24600
X36000Y-25600
X36000Y-26600
X36000Y-27600
X36000Y-28600
X36000Y-29600
X36000Y-30600
X36000Y-31600
X36000Y-32600
X36000Y-33600
X36000Y-34600
X36000Y-35600
X52970Y-56600
X55970Y-56600
X27000Y-38691
X30000Y-38691
X32000Y-59600
X35000Y-59600
X20000Y-17600
X20000Y-20600
X21000Y-17600
X21000Y-20600
X22000Y-17600
X22000Y-20600
X23000Y-17600
X23000Y-20600
X24000Y-17600
X24000Y-20600
X25000Y-17600
X25000Y-20600
X26000Y-17600
X26000Y-20600
X19000Y-44600
X22000Y-44600
X20000Y-22600
X20000Y-23600
X20000Y-24600
X20000Y-25600
X20000Y-26600
X20000Y-27600
X20000Y-28600
X20000Y-29600
X20000Y-30600
X20000Y-31600
X20000Y-32600
X20000Y-33600
X20000Y-34600
X20000Y-35600
X26000Y-22600
X26000Y-23600
X26000Y-24600
X26000Y-25600
X26000Y-26600
X26000Y-27600
X26000Y-28600
X26000Y-29600
X26000Y-30600
X26000Y-31600
X26000Y-32600
X26000Y-33600
X26000Y-34600
X26000Y-35600
X32000Y-56600
X35000Y-56600
X57000Y-22600
X57000Y-23600
X57000Y-24600
X57000Y-25600
X57000Y-26600
X57000Y-27600
X57000Y-28600
X57000Y-29600
X57000Y-30600
X57000Y-31600
X57000Y-32600
X57000Y-33600
X57000Y-34600
X57000Y-35600
X63000Y-22600
X63000Y-23600
X63000Y-24600
X63000Y-25600
X63000Y-26600
X63000Y-27600
X63000Y-28600
X63000Y-29600
X63000Y-30600
X63000Y-31600
X63000Y-32600
X63000Y-33600
X63000Y-34600
X63000Y-35600
X48515Y-44600
X51515Y-44600
X53000Y-50600
X56000Y-50600
X48000Y-22600
X48000Y-23600
X48000Y-24600
X48000Y-25600
X48000Y-26600
X48000Y-27600
X48000Y-28600
X48000Y-29600
X48000Y-30600
X48000Y-31600
X48000Y-32600
X48000Y-33600
X48000Y-34600
X48000Y-35600
X54000Y-22600
X54000Y-23600
X54000Y-24600
X54000Y-25600
X54000Y-26600
X54000Y-27600
X54000Y-28600
X54000Y-29600
X54000Y-30600
X54000Y-31600
X54000Y-32600
X54000Y-33600
X54000Y-34600
X54000Y-35600
X73500Y-32600
X76500Y-32600
X60000Y-11200
X63000Y-11200
X53000Y-38600
X56000Y-38600
X73500Y-38600
X76500Y-38600
X39000Y-22600
X39000Y-23600
X39000Y-24600
X39000Y-25600
X39000Y-26600
X39000Y-27600
X39000Y-28600
X39000Y-29600
X39000Y-30600
X39000Y-31600
X39000Y-32600
X39000Y-33600
X39000Y-34600
X39000Y-35600
X45000Y-22600
X45000Y-23600
X45000Y-24600
X45000Y-25600
X45000Y-26600
X45000Y-27600
X45000Y-28600
X45000Y-29600
X45000Y-30600
X45000Y-31600
X45000Y-32600
X45000Y-33600
X45000Y-34600
X45000Y-35600
X32000Y-41600
X35000Y-41600
X27000Y-47600
X30000Y-47600
X53000Y-44600
X56000Y-44600
X73500Y-41600
X76500Y-41600
X32000Y-47600
X35000Y-47600
X14000Y-13000
X14000Y-16000
X15000Y-13000
X15000Y-16000
X16000Y-13000
X16000Y-16000
X17000Y-13000
X17000Y-16000
X64500Y-41600
X67500Y-41600
X27000Y-53600
X30000Y-53600
X71000Y-14000
X71000Y-15000
X71000Y-16000
X71000Y-17000
X71000Y-18000
X71000Y-19000
X71000Y-20000
X71000Y-21000
X71000Y-22000
X71000Y-23000
X74000Y-14000
X74000Y-15000
X74000Y-16000
X74000Y-17000
X74000Y-18000
X74000Y-19000
X74000Y-20000
X74000Y-21000
X74000Y-22000
X74000Y-23000
X59000Y-17600
X59000Y-20600
X60000Y-17600
X60000Y-20600
X61000Y-17600
X61000Y-20600
X62000Y-17600
X62000Y-20600
X63000Y-17600
X63000Y-20600
X64000Y-17600
X64000Y-20600
X65000Y-17600
X65000Y-20600
X19000Y-59600
X22000Y-59600
X73500Y-59600
X76500Y-59600
X19000Y-41600
X22000Y-41600
X11000Y-38600
X11000Y-39600
X11000Y-40600
X11000Y-41600
X11000Y-42600
X11000Y-43600
X11000Y-44600
X11000Y-45600
X11000Y-46600
X11000Y-47600
X14000Y-38600
X14000Y-39600
X14000Y-40600
X14000Y-41600
X14000Y-42600
X14000Y-43600
X14000Y-44600
X14000Y-45600
X14000Y-46600
X14000Y-47600
X73500Y-53600
X76500Y-53600
X53000Y-59600
X56000Y-59600
X11000Y-22600
X11000Y-23600
X11000Y-24600
X11000Y-25600
X11000Y-26600
X11000Y-27600
X11000Y-28600
X11000Y-29600
X11000Y-30600
X11000Y-31600
X11000Y-32600
X11000Y-33600
X11000Y-34600
X11000Y-35600
X17000Y-22600
X17000Y-23600
X17000Y-24600
X17000Y-25600
X17000Y-26600
X17000Y-27600
X17000Y-28600
X17000Y-29600
X17000Y-30600
X17000Y-31600
X17000Y-32600
X17000Y-33600
X17000Y-34600
X17000Y-35600
X48515Y-41600
X51515Y-41600
X19000Y-53600
X22000Y-53600
X39000Y-17600
X39000Y-20600
X40000Y-17600
X40000Y-20600
X41000Y-17600
X41000Y-20600
X42000Y-17600
X42000Y-20600
X43000Y-17600
X43000Y-20600
X44000Y-17600
X44000Y-20600
X45000Y-17600
X45000Y-20600
X39000Y-13000
X39000Y-16000
X40000Y-13000
X40000Y-16000
X41000Y-13000
X41000Y-16000
X42000Y-13000
X42000Y-16000
X43000Y-13000
X43000Y-16000
X44000Y-13000
X44000Y-16000
X45000Y-13000
X45000Y-16000
X46000Y-13000
X46000Y-16000
X19000Y-38600
X22000Y-38600
X40000Y-50600
X40000Y-51600
X40000Y-52600
X40000Y-53600
X40000Y-54600
X40000Y-55600
X40000Y-56600
X40000Y-57600
X40000Y-58600
X40000Y-59600
X43000Y-50600
X43000Y-51600
X43000Y-52600
X43000Y-53600
X43000Y-54600
X43000Y-55600
X43000Y-56600
X43000Y-57600
X43000Y-58600
X43000Y-59600
X48515Y-47600
X51515Y-47600
X64500Y-56600
X67500Y-56600
X73500Y-47600
X76500Y-47600
X50000Y-13000
X50000Y-16000
X51000Y-13000
X51000Y-16000
X52000Y-13000
X52000Y-16000
X53000Y-13000
X53000Y-16000
X54000Y-13000
X54000Y-16000
X55000Y-13000
X55000Y-16000
X56000Y-13000
X56000Y-16000
X64500Y-44600
X67500Y-44600
X27000Y-50600
X30000Y-50600
X64500Y-53600
X67500Y-53600
X19000Y-47600
X22000Y-47600
X53000Y-47600
X56000Y-47600
X73500Y-44600
X76500Y-44600
X32000Y-53600
X35000Y-53600
X20000Y-13000
X20000Y-16000
X21000Y-13000
X21000Y-16000
X22000Y-13000
X22000Y-16000
X23000Y-13000
X23000Y-16000
X24000Y-13000
X24000Y-16000
X25000Y-13000
X25000Y-16000
X26000Y-13000
X26000Y-16000
X64500Y-38600
X67500Y-38600
X73500Y-50600
X76500Y-50600
X73500Y-26600
X76500Y-26600
X65000Y-23600
X65000Y-24600
X65000Y-25600
X65000Y-26600
X65000Y-27600
X65000Y-28600
X65000Y-29600
X65000Y-30600
X65000Y-31600
X65000Y-32600
X68000Y-23600
X68000Y-24600
X68000Y-25600
X68000Y-26600
X68000Y-27600
X68000Y-28600
X68000Y-29600
X68000Y-30600
X68000Y-31600
X68000Y-32600
X40000Y-38600
X40000Y-39600
X40000Y-40600
X40000Y-41600
X40000Y-42600
X40000Y-43600
X40000Y-44600
X40000Y-45600
X40000Y-46600
X40000Y-47600
X43000Y-38600
X43000Y-39600
X43000Y-40600
X43000Y-41600
X43000Y-42600
X43000Y-43600
X43000Y-44600
X43000Y-45600
X43000Y-46600
X43000Y-47600
X52970Y-53600
X55970Y-53600
X48515Y-50600
X51515Y-50600
X27000Y-44600
X30000Y-44600
X29000Y-17600
X29000Y-20600
X30000Y-17600
X30000Y-20600
X31000Y-17600
X31000Y-20600
X32000Y-17600
X32000Y-20600
X33000Y-17600
X33000Y-20600
X34000Y-17600
X34000Y-20600
X35000Y-17600
X35000Y-20600
T5
X24000Y-50600
X25000Y-50600
X24000Y-47600
X25000Y-47600
X37000Y-44600
X38000Y-44600
X70500Y-56600
X71500Y-56600
X70500Y-32600
X71500Y-32600
X16000Y-53600
X17000Y-53600
X58000Y-47600
X59000Y-47600
X70500Y-35600
X71500Y-35600
X24000Y-53600
X25000Y-53600
X45515Y-50600
X46515Y-50600
X58000Y-50600
X59000Y-50600
X45515Y-41600
X46515Y-41600
X61500Y-50600
X62500Y-50600
X61500Y-56600
X62500Y-56600
X37000Y-47600
X38000Y-47600
X37000Y-41800
X38000Y-41800
X58000Y-59600
X59000Y-59600
X61500Y-38600
X62500Y-38600
X16000Y-50600
X17000Y-50600
X16000Y-44600
X17000Y-44600
X70500Y-50600
X71500Y-50600
X70500Y-38600
X71500Y-38600
X58000Y-53600
X59000Y-53600
X70500Y-59600
X71500Y-59600
X58000Y-44600
X59000Y-44600
X37000Y-53600
X38000Y-53600
X16000Y-47600
X17000Y-47600
X37000Y-38600
X38000Y-38600
X41000Y-11200
X42000Y-11200
X57000Y-11200
X58000Y-11200
X61500Y-44600
X62500Y-44600
X61500Y-53600
X62500Y-53600
X61500Y-59600
X62500Y-59600
X37000Y-50600
X38000Y-50600
X16000Y-59600
X17000Y-59600
X70500Y-41600
X71500Y-41600
X16000Y-56600
X17000Y-56600
X45515Y-47600
X46515Y-47600
X16000Y-41600
X17000Y-41600
X45515Y-44600
X46515Y-44600
X70500Y-29600
X71500Y-29600
X16000Y-38600
X17000Y-38600
X70500Y-53600
X71500Y-53600
X70500Y-26600
X71500Y-26600
X58000Y-56600
X59000Y-56600
X61500Y-41600
X62500Y-41600
X70500Y-44600
X71500Y-44600
X24000Y-44600
X25000Y-44600
X45515Y-38600
X46515Y-38600
X24000Y-41600
X25000Y-41600
X70500Y-47600
X71500Y-47600
X61500Y-47600
X62500Y-47600
X24000Y-38600
X25000Y-38600
X58000Y-41600
X59000Y-41600
X37000Y-59600
X38000Y-59600
X58000Y-38600
X59000Y-38600
T6
X42000Y-63100
X43000Y-63100
X14000Y-63100
X15000Y-63100
X81000Y-25600
X81000Y-26600
X81000Y-27600
X81000Y-28600
X81000Y-29600
X81000Y-30600
X81000Y-31600
X81000Y-32600
X24000Y-63100
X25000Y-63100
X51000Y-11200
X52000Y-11200
X53000Y-11200
X54000Y-11200
X19000Y-63100
X20000Y-63100
X61000Y-63100
X62000Y-63100
X63000Y-63100
X64000Y-63100
X16000Y-11200
X17000Y-11200
X18000Y-11200
X19000Y-11200
X20000Y-11200
X21000Y-11200
X22000Y-11200
X23000Y-11200
X24000Y-11200
X25000Y-11200
X26000Y-11200
X31000Y-11200
X32000Y-11200
X34000Y-63100
X35000Y-63100
X36000Y-63100
X37000Y-63100
X38000Y-63100
X47000Y-63100
X48000Y-63100
X49000Y-63100
X50000Y-63100
X54000Y-63100
X55000Y-63100
X56000Y-63100
X57000Y-63100
X29000Y-63100
X30000Y-63100
X36000Y-11200
X37000Y-11200
X68000Y-11200
X69000Y-11200
X70000Y-11200
X71000Y-11200
X72000Y-11200
X73000Y-11200
X74000Y-11200
X75000Y-11200
X68000Y-63100
X69000Y-63100
T7
X11000Y-62600
X11000Y-11400
X81000Y-11400
X81000Y-62600
T0
M30
